<?xml version="1.0" encoding="utf-8" standalone="no"?>
<!DOCTYPE svg PUBLIC "-//W3C//DTD SVG 1.1//EN"
  "http://www.w3.org/Graphics/SVG/1.1/DTD/svg11.dtd">
<svg xmlns:xlink="http://www.w3.org/1999/xlink" width="576pt" height="273.6pt" viewBox="0 0 576 273.6" xmlns="http://www.w3.org/2000/svg" version="1.1">
 <metadata>
  <rdf:RDF xmlns:dc="http://purl.org/dc/elements/1.1/" xmlns:cc="http://creativecommons.org/ns#" xmlns:rdf="http://www.w3.org/1999/02/22-rdf-syntax-ns#">
   <cc:Work>
    <dc:type rdf:resource="http://purl.org/dc/dcmitype/StillImage"/>
    <dc:date>2026-09-07T20:06:04.923759</dc:date>
    <dc:format>image/svg+xml</dc:format>
    <dc:creator>
     <cc:Agent>
      <dc:title>Matplotlib v3.10.8, https://matplotlib.org/</dc:title>
     </cc:Agent>
    </dc:creator>
   </cc:Work>
  </rdf:RDF>
 </metadata>
 <defs>
  <style type="text/css">*{stroke-linejoin: round; stroke-linecap: butt}</style>
 </defs>
 <g id="figure_1">
  <g id="patch_1">
   <path d="M 0 273.6
L 576 273.6
L 576 0
L 0 0
z
" style="fill: #ffffff"/>
  </g>
  <g id="axes_1">
   <g id="line2d_1">
    <path d="M 501.365455 102.9675
L 501.365455 142.005
L 218.97 142.005
" clip-path="url(#p902a4be21d)" style="fill: none; stroke: #174c71; stroke-width: 1.6; stroke-linecap: square"/>
   </g>
   <g id="line2d_2">
    <path d="M 501.365455 142.005
L 457.437273 142.005
L 457.437273 173.235
L 375.856364 173.235
" clip-path="url(#p902a4be21d)" style="fill: none; stroke: #174c71; stroke-width: 1.6; stroke-linecap: square"/>
   </g>
   <g id="line2d_3">
    <path d="M 62.083636 102.9675
L 62.083636 209.67
" clip-path="url(#p902a4be21d)" style="fill: none; stroke: #174c71; stroke-width: 1.6; stroke-linecap: square"/>
   </g>
   <g id="text_1">
    <g id="patch_2">
     <path d="M 42.558636 94.472969
L 81.608636 94.472969
Q 86.008636 94.472969 86.008636 90.072969
L 86.008636 79.427031
Q 86.008636 75.027031 81.608636 75.027031
L 42.558636 75.027031
Q 38.158636 75.027031 38.158636 79.427031
L 38.158636 90.072969
Q 38.158636 94.472969 42.558636 94.472969
z
" style="fill: #eef5fa; stroke: #174c71; stroke-linejoin: miter"/>
    </g>
    <!-- Input $u$ -->
    <g transform="translate(42.558636 87.762969)">
     <text>
      <tspan x="0" y="-0.984375" style="font-size: 11px; font-family: 'DejaVu Sans'">I</tspan>
      <tspan x="3.244141" y="-0.984375" style="font-size: 11px; font-family: 'DejaVu Sans'">n</tspan>
      <tspan x="10.21582" y="-0.984375" style="font-size: 11px; font-family: 'DejaVu Sans'">p</tspan>
      <tspan x="17.198242" y="-0.984375" style="font-size: 11px; font-family: 'DejaVu Sans'">u</tspan>
      <tspan x="24.169922" y="-0.984375" style="font-size: 11px; font-family: 'DejaVu Sans'">t</tspan>
      <tspan x="28.48291" y="-0.984375" style="font-size: 11px; font-family: 'DejaVu Sans'"> </tspan>
      <tspan x="31.979492" y="-0.984375" style="font-style: oblique; font-size: 11px; font-family: 'DejaVu Sans'">u</tspan>
     </text>
    </g>
   </g>
   <g id="text_2">
    <g id="patch_3">
     <path d="M 196.97 94.472969
L 240.97 94.472969
Q 245.37 94.472969 245.37 90.072969
L 245.37 79.427031
Q 245.37 75.027031 240.97 75.027031
L 196.97 75.027031
Q 192.57 75.027031 192.57 79.427031
L 192.57 90.072969
Q 192.57 94.472969 196.97 94.472969
z
" style="fill: #eef5fa; stroke: #174c71; stroke-linejoin: miter"/>
    </g>
    <!-- $F(x,u,t)$ -->
    <g transform="translate(196.97 87.785313)">
     <text>
      <tspan x="0" y="-0.65625" style="font-style: oblique; font-size: 11px; font-family: 'DejaVu Sans'">F</tspan>
      <tspan x="10.618652" y="-0.65625" style="font-style: oblique; font-size: 11px; font-family: 'DejaVu Sans'">x</tspan>
      <tspan x="22.768066" y="-0.65625" style="font-style: oblique; font-size: 11px; font-family: 'DejaVu Sans'">u</tspan>
      <tspan x="35.379395" y="-0.65625" style="font-style: oblique; font-size: 11px; font-family: 'DejaVu Sans'">t</tspan>
      <tspan x="6.327148" y="-0.65625" style="font-size: 11px; font-family: 'DejaVu Sans'">(</tspan>
      <tspan x="17.128418" y="-0.65625" style="font-size: 11px; font-family: 'DejaVu Sans'">,</tspan>
      <tspan x="29.739746" y="-0.65625" style="font-size: 11px; font-family: 'DejaVu Sans'">,</tspan>
      <tspan x="39.692383" y="-0.65625" style="font-size: 11px; font-family: 'DejaVu Sans'">)</tspan>
     </text>
    </g>
   </g>
   <g id="text_3">
    <g id="patch_4">
     <path d="M 349.181364 96.795
L 402.531364 96.795
Q 406.931364 96.795 406.931364 92.395
L 406.931364 77.105
Q 406.931364 72.705 402.531364 72.705
L 349.181364 72.705
Q 344.781364 72.705 344.781364 77.105
L 344.781364 92.395
Q 344.781364 96.795 349.181364 96.795
z
" style="fill: #eef5fa; stroke: #174c71; stroke-linejoin: miter"/>
    </g>
    <!-- $x_0+\int\dot x\,dt$ -->
    <g transform="translate(349.181364 88.985)">
     <text>
      <tspan x="0" y="-0.21875" style="font-style: oblique; font-size: 11px; font-family: 'DejaVu Sans'">x</tspan>
      <tspan x="33.312061" y="-0.21875" style="font-style: oblique; font-size: 11px; font-family: 'DejaVu Sans'">x</tspan>
      <tspan x="41.972985" y="-0.21875" style="font-style: oblique; font-size: 11px; font-family: 'DejaVu Sans'">d</tspan>
      <tspan x="48.955407" y="-0.21875" style="font-style: oblique; font-size: 11px; font-family: 'DejaVu Sans'">t</tspan>
      <tspan x="6.509766" y="1.585938" style="font-size: 7.7px; font-family: 'DejaVu Sans'">0</tspan>
      <tspan x="13.852588" y="-0.21875" style="font-size: 11px; font-family: 'DejaVu Sans'">+</tspan>
      <tspan x="40.280811" y="-1.453125" style="font-size: 11px; font-family: 'DejaVu Sans'">̇</tspan>
      <tspan x="25.212451" y="-0.21875" style="font-size: 11px; font-family: 'DejaVu Sans Display'">∫</tspan>
     </text>
    </g>
   </g>
   <g id="text_4">
    <g id="patch_5">
     <path d="M 481.785455 94.472969
L 520.945455 94.472969
Q 525.345455 94.472969 525.345455 90.072969
L 525.345455 79.427031
Q 525.345455 75.027031 520.945455 75.027031
L 481.785455 75.027031
Q 477.385455 75.027031 477.385455 79.427031
L 477.385455 90.072969
Q 477.385455 94.472969 481.785455 94.472969
z
" style="fill: #eef5fa; stroke: #174c71; stroke-linejoin: miter"/>
    </g>
    <!-- State $x$ -->
    <g transform="translate(481.785455 87.785313)">
     <text>
      <tspan x="0" y="-0.828125" style="font-size: 11px; font-family: 'DejaVu Sans'">S</tspan>
      <tspan x="6.982422" y="-0.828125" style="font-size: 11px; font-family: 'DejaVu Sans'">t</tspan>
      <tspan x="11.29541" y="-0.828125" style="font-size: 11px; font-family: 'DejaVu Sans'">a</tspan>
      <tspan x="18.036133" y="-0.828125" style="font-size: 11px; font-family: 'DejaVu Sans'">t</tspan>
      <tspan x="22.349121" y="-0.828125" style="font-size: 11px; font-family: 'DejaVu Sans'">e</tspan>
      <tspan x="29.116699" y="-0.828125" style="font-size: 11px; font-family: 'DejaVu Sans'"> </tspan>
      <tspan x="32.613281" y="-0.828125" style="font-style: oblique; font-size: 11px; font-family: 'DejaVu Sans'">x</tspan>
     </text>
    </g>
   </g>
   <g id="text_5">
    <g id="patch_6">
     <path d="M 353.526364 219.392969
L 398.186364 219.392969
Q 402.586364 219.392969 402.586364 214.992969
L 402.586364 204.347031
Q 402.586364 199.947031 398.186364 199.947031
L 353.526364 199.947031
Q 349.126364 199.947031 349.126364 204.347031
L 349.126364 214.992969
Q 349.126364 219.392969 353.526364 219.392969
z
" style="fill: #eef5fa; stroke: #174c71; stroke-linejoin: miter"/>
    </g>
    <!-- $h(x,u,t)$ -->
    <g transform="translate(353.526364 212.705312)">
     <text>
      <tspan x="0" y="-0.640625" style="font-style: oblique; font-size: 11px; font-family: 'DejaVu Sans'">h</tspan>
      <tspan x="11.263184" y="-0.640625" style="font-style: oblique; font-size: 11px; font-family: 'DejaVu Sans'">x</tspan>
      <tspan x="23.412598" y="-0.640625" style="font-style: oblique; font-size: 11px; font-family: 'DejaVu Sans'">u</tspan>
      <tspan x="36.023926" y="-0.640625" style="font-style: oblique; font-size: 11px; font-family: 'DejaVu Sans'">t</tspan>
      <tspan x="6.97168" y="-0.640625" style="font-size: 11px; font-family: 'DejaVu Sans'">(</tspan>
      <tspan x="17.772949" y="-0.640625" style="font-size: 11px; font-family: 'DejaVu Sans'">,</tspan>
      <tspan x="30.384277" y="-0.640625" style="font-size: 11px; font-family: 'DejaVu Sans'">,</tspan>
      <tspan x="40.336914" y="-0.640625" style="font-size: 11px; font-family: 'DejaVu Sans'">)</tspan>
     </text>
    </g>
   </g>
   <g id="text_6">
    <g id="patch_7">
     <path d="M 477.220455 219.392969
L 525.510455 219.392969
Q 529.910455 219.392969 529.910455 214.992969
L 529.910455 204.347031
Q 529.910455 199.947031 525.510455 199.947031
L 477.220455 199.947031
Q 472.820455 199.947031 472.820455 204.347031
L 472.820455 214.992969
Q 472.820455 219.392969 477.220455 219.392969
z
" style="fill: #eef5fa; stroke: #174c71; stroke-linejoin: miter"/>
    </g>
    <!-- Output $y$ -->
    <g transform="translate(477.220455 212.682969)">
     <text>
      <tspan x="0" y="-0.828125" style="font-size: 11px; font-family: 'DejaVu Sans'">O</tspan>
      <tspan x="8.658203" y="-0.828125" style="font-size: 11px; font-family: 'DejaVu Sans'">u</tspan>
      <tspan x="15.629883" y="-0.828125" style="font-size: 11px; font-family: 'DejaVu Sans'">t</tspan>
      <tspan x="19.942871" y="-0.828125" style="font-size: 11px; font-family: 'DejaVu Sans'">p</tspan>
      <tspan x="26.925293" y="-0.828125" style="font-size: 11px; font-family: 'DejaVu Sans'">u</tspan>
      <tspan x="33.896973" y="-0.828125" style="font-size: 11px; font-family: 'DejaVu Sans'">t</tspan>
      <tspan x="38.209961" y="-0.828125" style="font-size: 11px; font-family: 'DejaVu Sans'"> </tspan>
      <tspan x="41.706543" y="-0.828125" style="font-style: oblique; font-size: 11px; font-family: 'DejaVu Sans'">y</tspan>
     </text>
    </g>
   </g>
   <g id="patch_8">
    <path d="M 95.45761 84.75
Q 134.251511 84.75 171.256558 84.75
" style="fill: none; stroke: #174c71; stroke-width: 1.6; stroke-linecap: round"/>
    <path d="M 166.856558 82.55
L 171.256558 84.75
L 166.856558 86.95
" style="fill: none; stroke: #174c71; stroke-width: 1.6; stroke-linecap: round"/>
   </g>
   <g id="patch_9">
    <path d="M 268.038738 84.75
Q 294.277716 84.75 318.72784 84.75
" style="fill: none; stroke: #174c71; stroke-width: 1.6; stroke-linecap: round"/>
    <path d="M 314.32784 82.55
L 318.72784 84.75
L 314.32784 86.95
" style="fill: none; stroke: #174c71; stroke-width: 1.6; stroke-linecap: round"/>
   </g>
   <g id="patch_10">
    <path d="M 434.334836 84.75
Q 451.162676 84.75 466.201661 84.75
" style="fill: none; stroke: #174c71; stroke-width: 1.6; stroke-linecap: round"/>
    <path d="M 461.801661 82.55
L 466.201661 84.75
L 461.801661 86.95
" style="fill: none; stroke: #174c71; stroke-width: 1.6; stroke-linecap: round"/>
   </g>
   <g id="text_7">
    <!-- $\dot x$ -->
    <g transform="translate(290.810455 70.176)">
     <text>
      <tspan x="6.96875" y="-1.640625" style="font-size: 11px; font-family: 'DejaVu Sans'">̇</tspan>
      <tspan x="0" y="-0.40625" style="font-style: oblique; font-size: 11px; font-family: 'DejaVu Sans'">x</tspan>
     </text>
    </g>
   </g>
   <g id="patch_11">
    <path d="M 218.97 140.008331
Q 218.97 122.489447 218.97 106.759417
" style="fill: none; stroke: #174c71; stroke-width: 1.6; stroke-linecap: round"/>
    <path d="M 216.77 111.159417
L 218.97 106.759417
L 221.17 111.159417
" style="fill: none; stroke: #174c71; stroke-width: 1.6; stroke-linecap: round"/>
   </g>
   <g id="patch_12">
    <path d="M 375.856364 175.231987
Q 375.856364 182.342322 375.856364 187.663802
" style="fill: none; stroke: #174c71; stroke-width: 1.6; stroke-linecap: round"/>
    <path d="M 378.056364 183.263802
L 375.856364 187.663802
L 373.656364 183.263802
" style="fill: none; stroke: #174c71; stroke-width: 1.6; stroke-linecap: round"/>
   </g>
   <g id="patch_13">
    <path d="M 64.082444 209.67
Q 193.867778 209.67 321.864259 209.67
" style="fill: none; stroke: #174c71; stroke-width: 1.6; stroke-linecap: round"/>
    <path d="M 317.464259 207.47
L 321.864259 209.67
L 317.464259 211.87
" style="fill: none; stroke: #174c71; stroke-width: 1.6; stroke-linecap: round"/>
   </g>
   <g id="patch_14">
    <path d="M 428.059382 209.67
Q 444.887221 209.67 459.926206 209.67
" style="fill: none; stroke: #174c71; stroke-width: 1.6; stroke-linecap: round"/>
    <path d="M 455.526206 207.47
L 459.926206 209.67
L 455.526206 211.87
" style="fill: none; stroke: #174c71; stroke-width: 1.6; stroke-linecap: round"/>
   </g>
   <g id="text_8">
    <text style="font-size: 13px; font-family: 'DejaVu Sans', 'Bitstream Vera Sans', 'Computer Modern Sans Serif', 'Lucida Grande', 'Verdana', 'Geneva', 'Lucid', 'Arial', 'Helvetica', 'Avant Garde', sans-serif; text-anchor: middle" x="288" y="32.7" transform="rotate(-0 288 32.7)">A Physical State Model and Its Measurements</text>
   </g>
  </g>
 </g>
 <defs>
  <clipPath id="p902a4be21d">
   <rect x="11.88" y="11.88" width="552.24" height="249.84"/>
  </clipPath>
 </defs>
</svg>
