<?xml version="1.0" encoding="utf-8" standalone="no"?>
<!DOCTYPE svg PUBLIC "-//W3C//DTD SVG 1.1//EN"
  "http://www.w3.org/Graphics/SVG/1.1/DTD/svg11.dtd">
<svg xmlns:xlink="http://www.w3.org/1999/xlink" width="628.2pt" height="319.32pt" viewBox="0 0 628.2 319.32" xmlns="http://www.w3.org/2000/svg" version="1.1">
 <metadata>
  <rdf:RDF xmlns:dc="http://purl.org/dc/elements/1.1/" xmlns:cc="http://creativecommons.org/ns#" xmlns:rdf="http://www.w3.org/1999/02/22-rdf-syntax-ns#">
   <cc:Work>
    <dc:type rdf:resource="http://purl.org/dc/dcmitype/StillImage"/>
    <dc:format>image/svg+xml</dc:format>
    <dc:creator>
     <cc:Agent>
      <dc:title>Matplotlib v3.10.8, https://matplotlib.org/</dc:title>
     </cc:Agent>
    </dc:creator>
   </cc:Work>
  </rdf:RDF>
 </metadata>
 <defs>
  <style type="text/css">*{stroke-linejoin: round; stroke-linecap: butt}</style>
 </defs>
 <g id="figure_1">
  <g id="patch_1">
   <path d="M 0 319.32
L 628.2 319.32
L 628.2 0
L 0 0
z
" style="fill: #ffffff"/>
  </g>
  <g id="axes_1">
   <g id="patch_2">
    <path d="M 21.364615 184.0536
L 96.909231 184.0536
Q 100.686462 184.0536 100.686462 179.988
L 100.686462 139.332
Q 100.686462 135.2664 96.909231 135.2664
L 21.364615 135.2664
Q 17.587385 135.2664 17.587385 139.332
L 17.587385 179.988
Q 17.587385 184.0536 21.364615 184.0536
z
" clip-path="url(#p9e64ca2ec6)" style="fill: #17324d; opacity: 0.14; stroke: #17324d; stroke-width: 2; stroke-linejoin: miter"/>
   </g>
   <g id="patch_3">
    <path d="M 103.627279 159.66
Q 120.517281 159.66 134.947609 159.66
" clip-path="url(#p9e64ca2ec6)" style="fill: none; stroke: #17324d; stroke-width: 2.2; stroke-linecap: round"/>
    <path d="M 128.947609 156.66
L 134.947609 159.66
L 128.947609 162.66
z
" clip-path="url(#p9e64ca2ec6)" style="fill: #17324d; stroke: #17324d; stroke-width: 2.2; stroke-linecap: round"/>
   </g>
   <g id="patch_4">
    <path d="M 144.124615 184.0536
L 238.555385 184.0536
Q 242.332615 184.0536 242.332615 179.988
L 242.332615 139.332
Q 242.332615 135.2664 238.555385 135.2664
L 144.124615 135.2664
Q 140.347385 135.2664 140.347385 139.332
L 140.347385 179.988
Q 140.347385 184.0536 144.124615 184.0536
z
" clip-path="url(#p9e64ca2ec6)" style="fill: #2c7fb8; opacity: 0.14; stroke: #2c7fb8; stroke-width: 2; stroke-linejoin: miter"/>
   </g>
   <g id="patch_5">
    <path d="M 245.273433 159.66
Q 262.163435 159.66 276.593763 159.66
" clip-path="url(#p9e64ca2ec6)" style="fill: none; stroke: #17324d; stroke-width: 2.2; stroke-linecap: round"/>
    <path d="M 270.593763 156.66
L 276.593763 159.66
L 270.593763 162.66
z
" clip-path="url(#p9e64ca2ec6)" style="fill: #17324d; stroke: #17324d; stroke-width: 2.2; stroke-linecap: round"/>
   </g>
   <g id="patch_6">
    <path d="M 285.770769 184.0536
L 389.644615 184.0536
Q 393.421846 184.0536 393.421846 179.988
L 393.421846 139.332
Q 393.421846 135.2664 389.644615 135.2664
L 285.770769 135.2664
Q 281.993538 135.2664 281.993538 139.332
L 281.993538 179.988
Q 281.993538 184.0536 285.770769 184.0536
z
" clip-path="url(#p9e64ca2ec6)" style="fill: #756bb1; opacity: 0.14; stroke: #756bb1; stroke-width: 2; stroke-linejoin: miter"/>
   </g>
   <g id="patch_7">
    <path d="M 395.442361 157.975099
Q 420.334901 119.003553 443.903402 82.10491
" clip-path="url(#p9e64ca2ec6)" style="fill: none; stroke: #238b45; stroke-width: 2.2; stroke-linecap: round"/>
    <path d="M 438.145351 85.546544
L 443.903402 82.10491
L 443.201878 88.776332
z
" clip-path="url(#p9e64ca2ec6)" style="fill: #238b45; stroke: #238b45; stroke-width: 2.2; stroke-linecap: round"/>
   </g>
   <g id="patch_8">
    <path d="M 396.36641 159.66
Q 420.333511 159.66 441.840937 159.66
" clip-path="url(#p9e64ca2ec6)" style="fill: none; stroke: #b2182b; stroke-width: 2.2; stroke-linecap: round"/>
    <path d="M 435.840937 156.66
L 441.840937 159.66
L 435.840937 162.66
z
" clip-path="url(#p9e64ca2ec6)" style="fill: #b2182b; stroke: #b2182b; stroke-width: 2.2; stroke-linecap: round"/>
   </g>
   <g id="patch_9">
    <path d="M 395.442361 161.344901
Q 420.334901 200.316447 443.903402 237.21509
" clip-path="url(#p9e64ca2ec6)" style="fill: none; stroke: #d95f0e; stroke-width: 2.2; stroke-linecap: round"/>
    <path d="M 443.201878 230.543668
L 443.903402 237.21509
L 438.145351 233.773456
z
" clip-path="url(#p9e64ca2ec6)" style="fill: #d95f0e; stroke: #d95f0e; stroke-width: 2.2; stroke-linecap: round"/>
   </g>
   <g id="patch_10">
    <path d="M 451.024615 102.7416
L 573.784615 102.7416
Q 577.561846 102.7416 577.561846 98.676
L 577.561846 58.02
Q 577.561846 53.9544 573.784615 53.9544
L 451.024615 53.9544
Q 447.247385 53.9544 447.247385 58.02
L 447.247385 98.676
Q 447.247385 102.7416 451.024615 102.7416
z
" clip-path="url(#p9e64ca2ec6)" style="fill: #238b45; opacity: 0.14; stroke: #238b45; stroke-width: 2; stroke-linejoin: miter"/>
   </g>
   <g id="patch_11">
    <path d="M 451.024615 184.0536
L 573.784615 184.0536
Q 577.561846 184.0536 577.561846 179.988
L 577.561846 139.332
Q 577.561846 135.2664 573.784615 135.2664
L 451.024615 135.2664
Q 447.247385 135.2664 447.247385 139.332
L 447.247385 179.988
Q 447.247385 184.0536 451.024615 184.0536
z
" clip-path="url(#p9e64ca2ec6)" style="fill: #b2182b; opacity: 0.14; stroke: #b2182b; stroke-width: 2; stroke-linejoin: miter"/>
   </g>
   <g id="patch_12">
    <path d="M 451.024615 265.3656
L 573.784615 265.3656
Q 577.561846 265.3656 577.561846 261.3
L 577.561846 220.644
Q 577.561846 216.5784 573.784615 216.5784
L 451.024615 216.5784
Q 447.247385 216.5784 447.247385 220.644
L 447.247385 261.3
Q 447.247385 265.3656 451.024615 265.3656
z
" clip-path="url(#p9e64ca2ec6)" style="fill: #d95f0e; opacity: 0.14; stroke: #d95f0e; stroke-width: 2; stroke-linejoin: miter"/>
   </g>
   <g id="text_1">
    <!-- Bounded -->
    <g style="fill: #17324d" transform="translate(34.222861 156.820469) scale(0.1 -0.1)">
     <defs>
      <path id="DejaVuSans-Bold-42" d="M 2456 2859
Q 2741 2859 2887 2984
Q 3034 3109 3034 3353
Q 3034 3594 2887 3720
Q 2741 3847 2456 3847
L 1791 3847
L 1791 2859
L 2456 2859
z
M 2497 819
Q 2859 819 3042 972
Q 3225 1125 3225 1434
Q 3225 1738 3044 1889
Q 2863 2041 2497 2041
L 1791 2041
L 1791 819
L 2497 819
z
M 3616 2497
Q 4003 2384 4215 2081
Q 4428 1778 4428 1338
Q 4428 663 3972 331
Q 3516 0 2584 0
L 588 0
L 588 4666
L 2394 4666
Q 3366 4666 3802 4372
Q 4238 4078 4238 3431
Q 4238 3091 4078 2852
Q 3919 2613 3616 2497
z
" transform="scale(0.015625)"/>
      <path id="DejaVuSans-Bold-6f" d="M 2203 2784
Q 1831 2784 1636 2517
Q 1441 2250 1441 1747
Q 1441 1244 1636 976
Q 1831 709 2203 709
Q 2569 709 2762 976
Q 2956 1244 2956 1747
Q 2956 2250 2762 2517
Q 2569 2784 2203 2784
z
M 2203 3584
Q 3106 3584 3614 3096
Q 4122 2609 4122 1747
Q 4122 884 3614 396
Q 3106 -91 2203 -91
Q 1297 -91 786 396
Q 275 884 275 1747
Q 275 2609 786 3096
Q 1297 3584 2203 3584
z
" transform="scale(0.015625)"/>
      <path id="DejaVuSans-Bold-75" d="M 500 1363
L 500 3500
L 1625 3500
L 1625 3150
Q 1625 2866 1622 2436
Q 1619 2006 1619 1863
Q 1619 1441 1641 1255
Q 1663 1069 1716 984
Q 1784 875 1895 815
Q 2006 756 2150 756
Q 2500 756 2700 1025
Q 2900 1294 2900 1772
L 2900 3500
L 4019 3500
L 4019 0
L 2900 0
L 2900 506
Q 2647 200 2364 54
Q 2081 -91 1741 -91
Q 1134 -91 817 281
Q 500 653 500 1363
z
" transform="scale(0.015625)"/>
      <path id="DejaVuSans-Bold-6e" d="M 4056 2131
L 4056 0
L 2931 0
L 2931 347
L 2931 1631
Q 2931 2084 2911 2256
Q 2891 2428 2841 2509
Q 2775 2619 2662 2680
Q 2550 2741 2406 2741
Q 2056 2741 1856 2470
Q 1656 2200 1656 1722
L 1656 0
L 538 0
L 538 3500
L 1656 3500
L 1656 2988
Q 1909 3294 2193 3439
Q 2478 3584 2822 3584
Q 3428 3584 3742 3212
Q 4056 2841 4056 2131
z
" transform="scale(0.015625)"/>
      <path id="DejaVuSans-Bold-64" d="M 2919 2988
L 2919 4863
L 4044 4863
L 4044 0
L 2919 0
L 2919 506
Q 2688 197 2409 53
Q 2131 -91 1766 -91
Q 1119 -91 703 423
Q 288 938 288 1747
Q 288 2556 703 3070
Q 1119 3584 1766 3584
Q 2128 3584 2408 3439
Q 2688 3294 2919 2988
z
M 2181 722
Q 2541 722 2730 984
Q 2919 1247 2919 1747
Q 2919 2247 2730 2509
Q 2541 2772 2181 2772
Q 1825 2772 1636 2509
Q 1447 2247 1447 1747
Q 1447 1247 1636 984
Q 1825 722 2181 722
z
" transform="scale(0.015625)"/>
      <path id="DejaVuSans-Bold-65" d="M 4031 1759
L 4031 1441
L 1416 1441
Q 1456 1047 1700 850
Q 1944 653 2381 653
Q 2734 653 3104 758
Q 3475 863 3866 1075
L 3866 213
Q 3469 63 3072 -14
Q 2675 -91 2278 -91
Q 1328 -91 801 392
Q 275 875 275 1747
Q 275 2603 792 3093
Q 1309 3584 2216 3584
Q 3041 3584 3536 3087
Q 4031 2591 4031 1759
z
M 2881 2131
Q 2881 2450 2695 2645
Q 2509 2841 2209 2841
Q 1884 2841 1681 2658
Q 1478 2475 1428 2131
L 2881 2131
z
" transform="scale(0.015625)"/>
     </defs>
     <use xlink:href="#DejaVuSans-Bold-42"/>
     <use xlink:href="#DejaVuSans-Bold-6f" transform="translate(76.220703 0)"/>
     <use xlink:href="#DejaVuSans-Bold-75" transform="translate(144.921875 0)"/>
     <use xlink:href="#DejaVuSans-Bold-6e" transform="translate(216.113281 0)"/>
     <use xlink:href="#DejaVuSans-Bold-64" transform="translate(287.304688 0)"/>
     <use xlink:href="#DejaVuSans-Bold-65" transform="translate(358.886719 0)"/>
     <use xlink:href="#DejaVuSans-Bold-64" transform="translate(426.708984 0)"/>
    </g>
    <!-- Claim -->
    <g style="fill: #17324d" transform="translate(43.454892 168.018281) scale(0.1 -0.1)">
     <defs>
      <path id="DejaVuSans-Bold-43" d="M 4288 256
Q 3956 84 3597 -3
Q 3238 -91 2847 -91
Q 1681 -91 1000 561
Q 319 1213 319 2328
Q 319 3447 1000 4098
Q 1681 4750 2847 4750
Q 3238 4750 3597 4662
Q 3956 4575 4288 4403
L 4288 3438
Q 3953 3666 3628 3772
Q 3303 3878 2944 3878
Q 2300 3878 1931 3465
Q 1563 3053 1563 2328
Q 1563 1606 1931 1193
Q 2300 781 2944 781
Q 3303 781 3628 887
Q 3953 994 4288 1222
L 4288 256
z
" transform="scale(0.015625)"/>
      <path id="DejaVuSans-Bold-6c" d="M 538 4863
L 1656 4863
L 1656 0
L 538 0
L 538 4863
z
" transform="scale(0.015625)"/>
      <path id="DejaVuSans-Bold-61" d="M 2106 1575
Q 1756 1575 1579 1456
Q 1403 1338 1403 1106
Q 1403 894 1545 773
Q 1688 653 1941 653
Q 2256 653 2472 879
Q 2688 1106 2688 1447
L 2688 1575
L 2106 1575
z
M 3816 1997
L 3816 0
L 2688 0
L 2688 519
Q 2463 200 2181 54
Q 1900 -91 1497 -91
Q 953 -91 614 226
Q 275 544 275 1050
Q 275 1666 698 1953
Q 1122 2241 2028 2241
L 2688 2241
L 2688 2328
Q 2688 2594 2478 2717
Q 2269 2841 1825 2841
Q 1466 2841 1156 2769
Q 847 2697 581 2553
L 581 3406
Q 941 3494 1303 3539
Q 1666 3584 2028 3584
Q 2975 3584 3395 3211
Q 3816 2838 3816 1997
z
" transform="scale(0.015625)"/>
      <path id="DejaVuSans-Bold-69" d="M 538 3500
L 1656 3500
L 1656 0
L 538 0
L 538 3500
z
M 538 4863
L 1656 4863
L 1656 3950
L 538 3950
L 538 4863
z
" transform="scale(0.015625)"/>
      <path id="DejaVuSans-Bold-6d" d="M 3781 2919
Q 3994 3244 4286 3414
Q 4578 3584 4928 3584
Q 5531 3584 5847 3212
Q 6163 2841 6163 2131
L 6163 0
L 5038 0
L 5038 1825
Q 5041 1866 5042 1909
Q 5044 1953 5044 2034
Q 5044 2406 4934 2573
Q 4825 2741 4581 2741
Q 4263 2741 4089 2478
Q 3916 2216 3909 1719
L 3909 0
L 2784 0
L 2784 1825
Q 2784 2406 2684 2573
Q 2584 2741 2328 2741
Q 2006 2741 1831 2477
Q 1656 2213 1656 1722
L 1656 0
L 531 0
L 531 3500
L 1656 3500
L 1656 2988
Q 1863 3284 2130 3434
Q 2397 3584 2719 3584
Q 3081 3584 3359 3409
Q 3638 3234 3781 2919
z
" transform="scale(0.015625)"/>
     </defs>
     <use xlink:href="#DejaVuSans-Bold-43"/>
     <use xlink:href="#DejaVuSans-Bold-6c" transform="translate(73.388672 0)"/>
     <use xlink:href="#DejaVuSans-Bold-61" transform="translate(107.666016 0)"/>
     <use xlink:href="#DejaVuSans-Bold-69" transform="translate(175.146484 0)"/>
     <use xlink:href="#DejaVuSans-Bold-6d" transform="translate(209.423828 0)"/>
    </g>
   </g>
   <g id="text_2">
    <!-- Registered -->
    <g style="fill: #2c7fb8" transform="translate(160.612656 156.781406) scale(0.1 -0.1)">
     <defs>
      <path id="DejaVuSans-Bold-52" d="M 2297 2597
Q 2675 2597 2839 2737
Q 3003 2878 3003 3200
Q 3003 3519 2839 3656
Q 2675 3794 2297 3794
L 1791 3794
L 1791 2597
L 2297 2597
z
M 1791 1766
L 1791 0
L 588 0
L 588 4666
L 2425 4666
Q 3347 4666 3776 4356
Q 4206 4047 4206 3378
Q 4206 2916 3982 2619
Q 3759 2322 3309 2181
Q 3556 2125 3751 1926
Q 3947 1728 4147 1325
L 4800 0
L 3519 0
L 2950 1159
Q 2778 1509 2601 1637
Q 2425 1766 2131 1766
L 1791 1766
z
" transform="scale(0.015625)"/>
      <path id="DejaVuSans-Bold-67" d="M 2919 594
Q 2688 288 2409 144
Q 2131 0 1766 0
Q 1125 0 706 504
Q 288 1009 288 1791
Q 288 2575 706 3076
Q 1125 3578 1766 3578
Q 2131 3578 2409 3434
Q 2688 3291 2919 2981
L 2919 3500
L 4044 3500
L 4044 353
Q 4044 -491 3511 -936
Q 2978 -1381 1966 -1381
Q 1638 -1381 1331 -1331
Q 1025 -1281 716 -1178
L 716 -306
Q 1009 -475 1290 -558
Q 1572 -641 1856 -641
Q 2406 -641 2662 -400
Q 2919 -159 2919 353
L 2919 594
z
M 2181 2772
Q 1834 2772 1640 2515
Q 1447 2259 1447 1791
Q 1447 1309 1634 1061
Q 1822 813 2181 813
Q 2531 813 2725 1069
Q 2919 1325 2919 1791
Q 2919 2259 2725 2515
Q 2531 2772 2181 2772
z
" transform="scale(0.015625)"/>
      <path id="DejaVuSans-Bold-73" d="M 3272 3391
L 3272 2541
Q 2913 2691 2578 2766
Q 2244 2841 1947 2841
Q 1628 2841 1473 2761
Q 1319 2681 1319 2516
Q 1319 2381 1436 2309
Q 1553 2238 1856 2203
L 2053 2175
Q 2913 2066 3209 1816
Q 3506 1566 3506 1031
Q 3506 472 3093 190
Q 2681 -91 1863 -91
Q 1516 -91 1145 -36
Q 775 19 384 128
L 384 978
Q 719 816 1070 734
Q 1422 653 1784 653
Q 2113 653 2278 743
Q 2444 834 2444 1013
Q 2444 1163 2330 1236
Q 2216 1309 1875 1350
L 1678 1375
Q 931 1469 631 1722
Q 331 1975 331 2491
Q 331 3047 712 3315
Q 1094 3584 1881 3584
Q 2191 3584 2531 3537
Q 2872 3491 3272 3391
z
" transform="scale(0.015625)"/>
      <path id="DejaVuSans-Bold-74" d="M 1759 4494
L 1759 3500
L 2913 3500
L 2913 2700
L 1759 2700
L 1759 1216
Q 1759 972 1856 886
Q 1953 800 2241 800
L 2816 800
L 2816 0
L 1856 0
Q 1194 0 917 276
Q 641 553 641 1216
L 641 2700
L 84 2700
L 84 3500
L 641 3500
L 641 4494
L 1759 4494
z
" transform="scale(0.015625)"/>
      <path id="DejaVuSans-Bold-72" d="M 3138 2547
Q 2991 2616 2845 2648
Q 2700 2681 2553 2681
Q 2122 2681 1889 2404
Q 1656 2128 1656 1613
L 1656 0
L 538 0
L 538 3500
L 1656 3500
L 1656 2925
Q 1872 3269 2151 3426
Q 2431 3584 2822 3584
Q 2878 3584 2943 3579
Q 3009 3575 3134 3559
L 3138 2547
z
" transform="scale(0.015625)"/>
     </defs>
     <use xlink:href="#DejaVuSans-Bold-52"/>
     <use xlink:href="#DejaVuSans-Bold-65" transform="translate(77.001953 0)"/>
     <use xlink:href="#DejaVuSans-Bold-67" transform="translate(144.824219 0)"/>
     <use xlink:href="#DejaVuSans-Bold-69" transform="translate(216.40625 0)"/>
     <use xlink:href="#DejaVuSans-Bold-73" transform="translate(250.683594 0)"/>
     <use xlink:href="#DejaVuSans-Bold-74" transform="translate(310.205078 0)"/>
     <use xlink:href="#DejaVuSans-Bold-65" transform="translate(358.007812 0)"/>
     <use xlink:href="#DejaVuSans-Bold-72" transform="translate(425.830078 0)"/>
     <use xlink:href="#DejaVuSans-Bold-65" transform="translate(475.146484 0)"/>
     <use xlink:href="#DejaVuSans-Bold-64" transform="translate(542.96875 0)"/>
    </g>
    <!-- Prediction -->
    <g style="fill: #2c7fb8" transform="translate(162.462656 168.057344) scale(0.1 -0.1)">
     <defs>
      <path id="DejaVuSans-Bold-50" d="M 588 4666
L 2584 4666
Q 3475 4666 3951 4270
Q 4428 3875 4428 3144
Q 4428 2409 3951 2014
Q 3475 1619 2584 1619
L 1791 1619
L 1791 0
L 588 0
L 588 4666
z
M 1791 3794
L 1791 2491
L 2456 2491
Q 2806 2491 2997 2661
Q 3188 2831 3188 3144
Q 3188 3456 2997 3625
Q 2806 3794 2456 3794
L 1791 3794
z
" transform="scale(0.015625)"/>
      <path id="DejaVuSans-Bold-63" d="M 3366 3391
L 3366 2478
Q 3138 2634 2908 2709
Q 2678 2784 2431 2784
Q 1963 2784 1702 2511
Q 1441 2238 1441 1747
Q 1441 1256 1702 982
Q 1963 709 2431 709
Q 2694 709 2930 787
Q 3166 866 3366 1019
L 3366 103
Q 3103 6 2833 -42
Q 2563 -91 2291 -91
Q 1344 -91 809 395
Q 275 881 275 1747
Q 275 2613 809 3098
Q 1344 3584 2291 3584
Q 2566 3584 2833 3536
Q 3100 3488 3366 3391
z
" transform="scale(0.015625)"/>
     </defs>
     <use xlink:href="#DejaVuSans-Bold-50"/>
     <use xlink:href="#DejaVuSans-Bold-72" transform="translate(73.291016 0)"/>
     <use xlink:href="#DejaVuSans-Bold-65" transform="translate(122.607422 0)"/>
     <use xlink:href="#DejaVuSans-Bold-64" transform="translate(190.429688 0)"/>
     <use xlink:href="#DejaVuSans-Bold-69" transform="translate(262.011719 0)"/>
     <use xlink:href="#DejaVuSans-Bold-63" transform="translate(296.289062 0)"/>
     <use xlink:href="#DejaVuSans-Bold-74" transform="translate(355.566406 0)"/>
     <use xlink:href="#DejaVuSans-Bold-69" transform="translate(403.369141 0)"/>
     <use xlink:href="#DejaVuSans-Bold-6f" transform="translate(437.646484 0)"/>
     <use xlink:href="#DejaVuSans-Bold-6e" transform="translate(506.347656 0)"/>
    </g>
   </g>
   <g id="text_3">
    <!-- Qualified -->
    <g style="fill: #756bb1" transform="translate(312.235817 156.820469) scale(0.1 -0.1)">
     <defs>
      <path id="DejaVuSans-Bold-51" d="M 2847 -84
L 2753 -84
Q 1600 -84 959 553
Q 319 1191 319 2328
Q 319 3463 958 4106
Q 1597 4750 2719 4750
Q 3853 4750 4486 4112
Q 5119 3475 5119 2328
Q 5119 1541 4783 972
Q 4447 403 3816 116
L 4756 -934
L 3609 -934
L 2847 -84
z
M 2719 3878
Q 2169 3878 1866 3472
Q 1563 3066 1563 2328
Q 1563 1578 1859 1179
Q 2156 781 2719 781
Q 3272 781 3575 1187
Q 3878 1594 3878 2328
Q 3878 3066 3575 3472
Q 3272 3878 2719 3878
z
" transform="scale(0.015625)"/>
      <path id="DejaVuSans-Bold-66" d="M 2841 4863
L 2841 4128
L 2222 4128
Q 1984 4128 1890 4042
Q 1797 3956 1797 3744
L 1797 3500
L 2753 3500
L 2753 2700
L 1797 2700
L 1797 0
L 678 0
L 678 2700
L 122 2700
L 122 3500
L 678 3500
L 678 3744
Q 678 4316 997 4589
Q 1316 4863 1984 4863
L 2841 4863
z
" transform="scale(0.015625)"/>
     </defs>
     <use xlink:href="#DejaVuSans-Bold-51"/>
     <use xlink:href="#DejaVuSans-Bold-75" transform="translate(85.009766 0)"/>
     <use xlink:href="#DejaVuSans-Bold-61" transform="translate(156.201172 0)"/>
     <use xlink:href="#DejaVuSans-Bold-6c" transform="translate(223.681641 0)"/>
     <use xlink:href="#DejaVuSans-Bold-69" transform="translate(257.958984 0)"/>
     <use xlink:href="#DejaVuSans-Bold-66" transform="translate(292.236328 0)"/>
     <use xlink:href="#DejaVuSans-Bold-69" transform="translate(335.742188 0)"/>
     <use xlink:href="#DejaVuSans-Bold-65" transform="translate(370.019531 0)"/>
     <use xlink:href="#DejaVuSans-Bold-64" transform="translate(437.841797 0)"/>
    </g>
    <!-- Measurements -->
    <g style="fill: #756bb1" transform="translate(296.047536 168.018281) scale(0.1 -0.1)">
     <defs>
      <path id="DejaVuSans-Bold-4d" d="M 588 4666
L 2119 4666
L 3181 2169
L 4250 4666
L 5778 4666
L 5778 0
L 4641 0
L 4641 3413
L 3566 897
L 2803 897
L 1728 3413
L 1728 0
L 588 0
L 588 4666
z
" transform="scale(0.015625)"/>
     </defs>
     <use xlink:href="#DejaVuSans-Bold-4d"/>
     <use xlink:href="#DejaVuSans-Bold-65" transform="translate(99.511719 0)"/>
     <use xlink:href="#DejaVuSans-Bold-61" transform="translate(167.333984 0)"/>
     <use xlink:href="#DejaVuSans-Bold-73" transform="translate(234.814453 0)"/>
     <use xlink:href="#DejaVuSans-Bold-75" transform="translate(294.335938 0)"/>
     <use xlink:href="#DejaVuSans-Bold-72" transform="translate(365.527344 0)"/>
     <use xlink:href="#DejaVuSans-Bold-65" transform="translate(414.84375 0)"/>
     <use xlink:href="#DejaVuSans-Bold-6d" transform="translate(482.666016 0)"/>
     <use xlink:href="#DejaVuSans-Bold-65" transform="translate(586.865234 0)"/>
     <use xlink:href="#DejaVuSans-Bold-6e" transform="translate(654.6875 0)"/>
     <use xlink:href="#DejaVuSans-Bold-74" transform="translate(725.878906 0)"/>
     <use xlink:href="#DejaVuSans-Bold-73" transform="translate(773.681641 0)"/>
    </g>
   </g>
   <g id="text_4">
    <!-- Bounded -->
    <g style="fill: #238b45" transform="translate(487.490553 75.508469) scale(0.1 -0.1)">
     <use xlink:href="#DejaVuSans-Bold-42"/>
     <use xlink:href="#DejaVuSans-Bold-6f" transform="translate(76.220703 0)"/>
     <use xlink:href="#DejaVuSans-Bold-75" transform="translate(144.921875 0)"/>
     <use xlink:href="#DejaVuSans-Bold-6e" transform="translate(216.113281 0)"/>
     <use xlink:href="#DejaVuSans-Bold-64" transform="translate(287.304688 0)"/>
     <use xlink:href="#DejaVuSans-Bold-65" transform="translate(358.886719 0)"/>
     <use xlink:href="#DejaVuSans-Bold-64" transform="translate(426.708984 0)"/>
    </g>
    <!-- Support -->
    <g style="fill: #238b45" transform="translate(489.796022 86.706281) scale(0.1 -0.1)">
     <defs>
      <path id="DejaVuSans-Bold-53" d="M 3834 4519
L 3834 3531
Q 3450 3703 3084 3790
Q 2719 3878 2394 3878
Q 1963 3878 1756 3759
Q 1550 3641 1550 3391
Q 1550 3203 1689 3098
Q 1828 2994 2194 2919
L 2706 2816
Q 3484 2659 3812 2340
Q 4141 2022 4141 1434
Q 4141 663 3683 286
Q 3225 -91 2284 -91
Q 1841 -91 1394 -6
Q 947 78 500 244
L 500 1259
Q 947 1022 1364 901
Q 1781 781 2169 781
Q 2563 781 2772 912
Q 2981 1044 2981 1288
Q 2981 1506 2839 1625
Q 2697 1744 2272 1838
L 1806 1941
Q 1106 2091 782 2419
Q 459 2747 459 3303
Q 459 4000 909 4375
Q 1359 4750 2203 4750
Q 2588 4750 2994 4692
Q 3400 4634 3834 4519
z
" transform="scale(0.015625)"/>
      <path id="DejaVuSans-Bold-70" d="M 1656 506
L 1656 -1331
L 538 -1331
L 538 3500
L 1656 3500
L 1656 2988
Q 1888 3294 2169 3439
Q 2450 3584 2816 3584
Q 3463 3584 3878 3070
Q 4294 2556 4294 1747
Q 4294 938 3878 423
Q 3463 -91 2816 -91
Q 2450 -91 2169 54
Q 1888 200 1656 506
z
M 2400 2772
Q 2041 2772 1848 2508
Q 1656 2244 1656 1747
Q 1656 1250 1848 986
Q 2041 722 2400 722
Q 2759 722 2948 984
Q 3138 1247 3138 1747
Q 3138 2247 2948 2509
Q 2759 2772 2400 2772
z
" transform="scale(0.015625)"/>
     </defs>
     <use xlink:href="#DejaVuSans-Bold-53"/>
     <use xlink:href="#DejaVuSans-Bold-75" transform="translate(72.021484 0)"/>
     <use xlink:href="#DejaVuSans-Bold-70" transform="translate(143.212891 0)"/>
     <use xlink:href="#DejaVuSans-Bold-70" transform="translate(214.794922 0)"/>
     <use xlink:href="#DejaVuSans-Bold-6f" transform="translate(286.376953 0)"/>
     <use xlink:href="#DejaVuSans-Bold-72" transform="translate(355.078125 0)"/>
     <use xlink:href="#DejaVuSans-Bold-74" transform="translate(404.394531 0)"/>
    </g>
   </g>
   <g id="text_5">
    <!-- Contradiction: -->
    <g style="fill: #b2182b" transform="translate(472.156178 156.820469) scale(0.1 -0.1)">
     <defs>
      <path id="DejaVuSans-Bold-3a" d="M 716 3500
L 1844 3500
L 1844 2291
L 716 2291
L 716 3500
z
M 716 1209
L 1844 1209
L 1844 0
L 716 0
L 716 1209
z
" transform="scale(0.015625)"/>
     </defs>
     <use xlink:href="#DejaVuSans-Bold-43"/>
     <use xlink:href="#DejaVuSans-Bold-6f" transform="translate(73.388672 0)"/>
     <use xlink:href="#DejaVuSans-Bold-6e" transform="translate(142.089844 0)"/>
     <use xlink:href="#DejaVuSans-Bold-74" transform="translate(213.28125 0)"/>
     <use xlink:href="#DejaVuSans-Bold-72" transform="translate(261.083984 0)"/>
     <use xlink:href="#DejaVuSans-Bold-61" transform="translate(310.400391 0)"/>
     <use xlink:href="#DejaVuSans-Bold-64" transform="translate(377.880859 0)"/>
     <use xlink:href="#DejaVuSans-Bold-69" transform="translate(449.462891 0)"/>
     <use xlink:href="#DejaVuSans-Bold-63" transform="translate(483.740234 0)"/>
     <use xlink:href="#DejaVuSans-Bold-74" transform="translate(543.017578 0)"/>
     <use xlink:href="#DejaVuSans-Bold-69" transform="translate(590.820312 0)"/>
     <use xlink:href="#DejaVuSans-Bold-6f" transform="translate(625.097656 0)"/>
     <use xlink:href="#DejaVuSans-Bold-6e" transform="translate(693.798828 0)"/>
     <use xlink:href="#DejaVuSans-Bold-3a" transform="translate(764.990234 0)"/>
    </g>
    <!-- Revise the Claim -->
    <g style="fill: #b2182b" transform="translate(465.318678 168.018281) scale(0.1 -0.1)">
     <defs>
      <path id="DejaVuSans-Bold-76" d="M 97 3500
L 1216 3500
L 2088 1081
L 2956 3500
L 4078 3500
L 2700 0
L 1472 0
L 97 3500
z
" transform="scale(0.015625)"/>
      <path id="DejaVuSans-Bold-20" transform="scale(0.015625)"/>
      <path id="DejaVuSans-Bold-68" d="M 4056 2131
L 4056 0
L 2931 0
L 2931 347
L 2931 1625
Q 2931 2084 2911 2256
Q 2891 2428 2841 2509
Q 2775 2619 2662 2680
Q 2550 2741 2406 2741
Q 2056 2741 1856 2470
Q 1656 2200 1656 1722
L 1656 0
L 538 0
L 538 4863
L 1656 4863
L 1656 2988
Q 1909 3294 2193 3439
Q 2478 3584 2822 3584
Q 3428 3584 3742 3212
Q 4056 2841 4056 2131
z
" transform="scale(0.015625)"/>
     </defs>
     <use xlink:href="#DejaVuSans-Bold-52"/>
     <use xlink:href="#DejaVuSans-Bold-65" transform="translate(77.001953 0)"/>
     <use xlink:href="#DejaVuSans-Bold-76" transform="translate(144.824219 0)"/>
     <use xlink:href="#DejaVuSans-Bold-69" transform="translate(210.009766 0)"/>
     <use xlink:href="#DejaVuSans-Bold-73" transform="translate(244.287109 0)"/>
     <use xlink:href="#DejaVuSans-Bold-65" transform="translate(303.808594 0)"/>
     <use xlink:href="#DejaVuSans-Bold-20" transform="translate(371.630859 0)"/>
     <use xlink:href="#DejaVuSans-Bold-74" transform="translate(406.445312 0)"/>
     <use xlink:href="#DejaVuSans-Bold-68" transform="translate(454.248047 0)"/>
     <use xlink:href="#DejaVuSans-Bold-65" transform="translate(525.439453 0)"/>
     <use xlink:href="#DejaVuSans-Bold-20" transform="translate(593.261719 0)"/>
     <use xlink:href="#DejaVuSans-Bold-43" transform="translate(628.076172 0)"/>
     <use xlink:href="#DejaVuSans-Bold-6c" transform="translate(701.464844 0)"/>
     <use xlink:href="#DejaVuSans-Bold-61" transform="translate(735.742188 0)"/>
     <use xlink:href="#DejaVuSans-Bold-69" transform="translate(803.222656 0)"/>
     <use xlink:href="#DejaVuSans-Bold-6d" transform="translate(837.5 0)"/>
    </g>
   </g>
   <g id="text_6">
    <!-- Inconclusive: -->
    <g style="fill: #d95f0e" transform="translate(475.449147 238.093406) scale(0.1 -0.1)">
     <defs>
      <path id="DejaVuSans-Bold-49" d="M 588 4666
L 1791 4666
L 1791 0
L 588 0
L 588 4666
z
" transform="scale(0.015625)"/>
     </defs>
     <use xlink:href="#DejaVuSans-Bold-49"/>
     <use xlink:href="#DejaVuSans-Bold-6e" transform="translate(37.207031 0)"/>
     <use xlink:href="#DejaVuSans-Bold-63" transform="translate(108.398438 0)"/>
     <use xlink:href="#DejaVuSans-Bold-6f" transform="translate(167.675781 0)"/>
     <use xlink:href="#DejaVuSans-Bold-6e" transform="translate(236.376953 0)"/>
     <use xlink:href="#DejaVuSans-Bold-63" transform="translate(307.568359 0)"/>
     <use xlink:href="#DejaVuSans-Bold-6c" transform="translate(366.845703 0)"/>
     <use xlink:href="#DejaVuSans-Bold-75" transform="translate(401.123047 0)"/>
     <use xlink:href="#DejaVuSans-Bold-73" transform="translate(472.314453 0)"/>
     <use xlink:href="#DejaVuSans-Bold-69" transform="translate(531.835938 0)"/>
     <use xlink:href="#DejaVuSans-Bold-76" transform="translate(566.113281 0)"/>
     <use xlink:href="#DejaVuSans-Bold-65" transform="translate(631.298828 0)"/>
     <use xlink:href="#DejaVuSans-Bold-3a" transform="translate(699.121094 0)"/>
    </g>
    <!-- Resolve Uncertainty -->
    <g style="fill: #d95f0e" transform="translate(455.519459 249.291219) scale(0.1 -0.1)">
     <defs>
      <path id="DejaVuSans-Bold-55" d="M 588 4666
L 1791 4666
L 1791 1869
Q 1791 1291 1980 1042
Q 2169 794 2597 794
Q 3028 794 3217 1042
Q 3406 1291 3406 1869
L 3406 4666
L 4609 4666
L 4609 1869
Q 4609 878 4112 393
Q 3616 -91 2597 -91
Q 1581 -91 1084 393
Q 588 878 588 1869
L 588 4666
z
" transform="scale(0.015625)"/>
      <path id="DejaVuSans-Bold-79" d="M 78 3500
L 1197 3500
L 2138 1125
L 2938 3500
L 4056 3500
L 2584 -331
Q 2363 -916 2067 -1148
Q 1772 -1381 1288 -1381
L 641 -1381
L 641 -647
L 991 -647
Q 1275 -647 1404 -556
Q 1534 -466 1606 -231
L 1638 -134
L 78 3500
z
" transform="scale(0.015625)"/>
     </defs>
     <use xlink:href="#DejaVuSans-Bold-52"/>
     <use xlink:href="#DejaVuSans-Bold-65" transform="translate(77.001953 0)"/>
     <use xlink:href="#DejaVuSans-Bold-73" transform="translate(144.824219 0)"/>
     <use xlink:href="#DejaVuSans-Bold-6f" transform="translate(204.345703 0)"/>
     <use xlink:href="#DejaVuSans-Bold-6c" transform="translate(273.046875 0)"/>
     <use xlink:href="#DejaVuSans-Bold-76" transform="translate(307.324219 0)"/>
     <use xlink:href="#DejaVuSans-Bold-65" transform="translate(372.509766 0)"/>
     <use xlink:href="#DejaVuSans-Bold-20" transform="translate(440.332031 0)"/>
     <use xlink:href="#DejaVuSans-Bold-55" transform="translate(475.146484 0)"/>
     <use xlink:href="#DejaVuSans-Bold-6e" transform="translate(556.347656 0)"/>
     <use xlink:href="#DejaVuSans-Bold-63" transform="translate(627.539062 0)"/>
     <use xlink:href="#DejaVuSans-Bold-65" transform="translate(686.816406 0)"/>
     <use xlink:href="#DejaVuSans-Bold-72" transform="translate(754.638672 0)"/>
     <use xlink:href="#DejaVuSans-Bold-74" transform="translate(803.955078 0)"/>
     <use xlink:href="#DejaVuSans-Bold-61" transform="translate(851.757812 0)"/>
     <use xlink:href="#DejaVuSans-Bold-69" transform="translate(919.238281 0)"/>
     <use xlink:href="#DejaVuSans-Bold-6e" transform="translate(953.515625 0)"/>
     <use xlink:href="#DejaVuSans-Bold-74" transform="translate(1024.707031 0)"/>
     <use xlink:href="#DejaVuSans-Bold-79" transform="translate(1072.509766 0)"/>
    </g>
   </g>
   <g id="text_7">
    <!-- A Test Must Distinguish Its Possible Outcomes -->
    <g style="fill: #17324d" transform="translate(105.35875 24.987) scale(0.16 -0.16)">
     <defs>
      <path id="DejaVuSans-Bold-41" d="M 3419 850
L 1538 850
L 1241 0
L 31 0
L 1759 4666
L 3194 4666
L 4922 0
L 3713 0
L 3419 850
z
M 1838 1716
L 3116 1716
L 2478 3572
L 1838 1716
z
" transform="scale(0.015625)"/>
      <path id="DejaVuSans-Bold-54" d="M 31 4666
L 4331 4666
L 4331 3756
L 2784 3756
L 2784 0
L 1581 0
L 1581 3756
L 31 3756
L 31 4666
z
" transform="scale(0.015625)"/>
      <path id="DejaVuSans-Bold-44" d="M 1791 3756
L 1791 909
L 2222 909
Q 2959 909 3348 1275
Q 3738 1641 3738 2338
Q 3738 3031 3350 3393
Q 2963 3756 2222 3756
L 1791 3756
z
M 588 4666
L 1856 4666
Q 2919 4666 3439 4514
Q 3959 4363 4331 4000
Q 4659 3684 4818 3271
Q 4978 2859 4978 2338
Q 4978 1809 4818 1395
Q 4659 981 4331 666
Q 3956 303 3431 151
Q 2906 0 1856 0
L 588 0
L 588 4666
z
" transform="scale(0.015625)"/>
      <path id="DejaVuSans-Bold-62" d="M 2400 722
Q 2759 722 2948 984
Q 3138 1247 3138 1747
Q 3138 2247 2948 2509
Q 2759 2772 2400 2772
Q 2041 2772 1848 2508
Q 1656 2244 1656 1747
Q 1656 1250 1848 986
Q 2041 722 2400 722
z
M 1656 2988
Q 1888 3294 2169 3439
Q 2450 3584 2816 3584
Q 3463 3584 3878 3070
Q 4294 2556 4294 1747
Q 4294 938 3878 423
Q 3463 -91 2816 -91
Q 2450 -91 2169 54
Q 1888 200 1656 506
L 1656 0
L 538 0
L 538 4863
L 1656 4863
L 1656 2988
z
" transform="scale(0.015625)"/>
      <path id="DejaVuSans-Bold-4f" d="M 2719 3878
Q 2169 3878 1866 3472
Q 1563 3066 1563 2328
Q 1563 1594 1866 1187
Q 2169 781 2719 781
Q 3272 781 3575 1187
Q 3878 1594 3878 2328
Q 3878 3066 3575 3472
Q 3272 3878 2719 3878
z
M 2719 4750
Q 3844 4750 4481 4106
Q 5119 3463 5119 2328
Q 5119 1197 4481 553
Q 3844 -91 2719 -91
Q 1597 -91 958 553
Q 319 1197 319 2328
Q 319 3463 958 4106
Q 1597 4750 2719 4750
z
" transform="scale(0.015625)"/>
     </defs>
     <use xlink:href="#DejaVuSans-Bold-41"/>
     <use xlink:href="#DejaVuSans-Bold-20" transform="translate(77.392578 0)"/>
     <use xlink:href="#DejaVuSans-Bold-54" transform="translate(112.207031 0)"/>
     <use xlink:href="#DejaVuSans-Bold-65" transform="translate(167.169922 0)"/>
     <use xlink:href="#DejaVuSans-Bold-73" transform="translate(234.992188 0)"/>
     <use xlink:href="#DejaVuSans-Bold-74" transform="translate(294.513672 0)"/>
     <use xlink:href="#DejaVuSans-Bold-20" transform="translate(342.316406 0)"/>
     <use xlink:href="#DejaVuSans-Bold-4d" transform="translate(377.130859 0)"/>
     <use xlink:href="#DejaVuSans-Bold-75" transform="translate(476.642578 0)"/>
     <use xlink:href="#DejaVuSans-Bold-73" transform="translate(547.833984 0)"/>
     <use xlink:href="#DejaVuSans-Bold-74" transform="translate(607.355469 0)"/>
     <use xlink:href="#DejaVuSans-Bold-20" transform="translate(655.158203 0)"/>
     <use xlink:href="#DejaVuSans-Bold-44" transform="translate(689.972656 0)"/>
     <use xlink:href="#DejaVuSans-Bold-69" transform="translate(772.980469 0)"/>
     <use xlink:href="#DejaVuSans-Bold-73" transform="translate(807.257812 0)"/>
     <use xlink:href="#DejaVuSans-Bold-74" transform="translate(866.779297 0)"/>
     <use xlink:href="#DejaVuSans-Bold-69" transform="translate(914.582031 0)"/>
     <use xlink:href="#DejaVuSans-Bold-6e" transform="translate(948.859375 0)"/>
     <use xlink:href="#DejaVuSans-Bold-67" transform="translate(1020.050781 0)"/>
     <use xlink:href="#DejaVuSans-Bold-75" transform="translate(1091.632812 0)"/>
     <use xlink:href="#DejaVuSans-Bold-69" transform="translate(1162.824219 0)"/>
     <use xlink:href="#DejaVuSans-Bold-73" transform="translate(1197.101562 0)"/>
     <use xlink:href="#DejaVuSans-Bold-68" transform="translate(1256.623047 0)"/>
     <use xlink:href="#DejaVuSans-Bold-20" transform="translate(1327.814453 0)"/>
     <use xlink:href="#DejaVuSans-Bold-49" transform="translate(1362.628906 0)"/>
     <use xlink:href="#DejaVuSans-Bold-74" transform="translate(1399.835938 0)"/>
     <use xlink:href="#DejaVuSans-Bold-73" transform="translate(1447.638672 0)"/>
     <use xlink:href="#DejaVuSans-Bold-20" transform="translate(1507.160156 0)"/>
     <use xlink:href="#DejaVuSans-Bold-50" transform="translate(1541.974609 0)"/>
     <use xlink:href="#DejaVuSans-Bold-6f" transform="translate(1615.265625 0)"/>
     <use xlink:href="#DejaVuSans-Bold-73" transform="translate(1683.966797 0)"/>
     <use xlink:href="#DejaVuSans-Bold-73" transform="translate(1743.488281 0)"/>
     <use xlink:href="#DejaVuSans-Bold-69" transform="translate(1803.009766 0)"/>
     <use xlink:href="#DejaVuSans-Bold-62" transform="translate(1837.287109 0)"/>
     <use xlink:href="#DejaVuSans-Bold-6c" transform="translate(1908.869141 0)"/>
     <use xlink:href="#DejaVuSans-Bold-65" transform="translate(1943.146484 0)"/>
     <use xlink:href="#DejaVuSans-Bold-20" transform="translate(2010.96875 0)"/>
     <use xlink:href="#DejaVuSans-Bold-4f" transform="translate(2045.783203 0)"/>
     <use xlink:href="#DejaVuSans-Bold-75" transform="translate(2130.792969 0)"/>
     <use xlink:href="#DejaVuSans-Bold-74" transform="translate(2201.984375 0)"/>
     <use xlink:href="#DejaVuSans-Bold-63" transform="translate(2249.787109 0)"/>
     <use xlink:href="#DejaVuSans-Bold-6f" transform="translate(2309.064453 0)"/>
     <use xlink:href="#DejaVuSans-Bold-6d" transform="translate(2377.765625 0)"/>
     <use xlink:href="#DejaVuSans-Bold-65" transform="translate(2481.964844 0)"/>
     <use xlink:href="#DejaVuSans-Bold-73" transform="translate(2549.787109 0)"/>
    </g>
   </g>
   <g id="text_8">
    <!-- An Unexecuted Test Remains Untested. -->
    <g style="fill: #657786" transform="translate(215.791406 299.415) scale(0.1 -0.1)">
     <defs>
      <path id="DejaVuSans-41" d="M 2188 4044
L 1331 1722
L 3047 1722
L 2188 4044
z
M 1831 4666
L 2547 4666
L 4325 0
L 3669 0
L 3244 1197
L 1141 1197
L 716 0
L 50 0
L 1831 4666
z
" transform="scale(0.015625)"/>
      <path id="DejaVuSans-6e" d="M 3513 2113
L 3513 0
L 2938 0
L 2938 2094
Q 2938 2591 2744 2837
Q 2550 3084 2163 3084
Q 1697 3084 1428 2787
Q 1159 2491 1159 1978
L 1159 0
L 581 0
L 581 3500
L 1159 3500
L 1159 2956
Q 1366 3272 1645 3428
Q 1925 3584 2291 3584
Q 2894 3584 3203 3211
Q 3513 2838 3513 2113
z
" transform="scale(0.015625)"/>
      <path id="DejaVuSans-20" transform="scale(0.015625)"/>
      <path id="DejaVuSans-55" d="M 556 4666
L 1191 4666
L 1191 1831
Q 1191 1081 1462 751
Q 1734 422 2344 422
Q 2950 422 3222 751
Q 3494 1081 3494 1831
L 3494 4666
L 4128 4666
L 4128 1753
Q 4128 841 3676 375
Q 3225 -91 2344 -91
Q 1459 -91 1007 375
Q 556 841 556 1753
L 556 4666
z
" transform="scale(0.015625)"/>
      <path id="DejaVuSans-65" d="M 3597 1894
L 3597 1613
L 953 1613
Q 991 1019 1311 708
Q 1631 397 2203 397
Q 2534 397 2845 478
Q 3156 559 3463 722
L 3463 178
Q 3153 47 2828 -22
Q 2503 -91 2169 -91
Q 1331 -91 842 396
Q 353 884 353 1716
Q 353 2575 817 3079
Q 1281 3584 2069 3584
Q 2775 3584 3186 3129
Q 3597 2675 3597 1894
z
M 3022 2063
Q 3016 2534 2758 2815
Q 2500 3097 2075 3097
Q 1594 3097 1305 2825
Q 1016 2553 972 2059
L 3022 2063
z
" transform="scale(0.015625)"/>
      <path id="DejaVuSans-78" d="M 3513 3500
L 2247 1797
L 3578 0
L 2900 0
L 1881 1375
L 863 0
L 184 0
L 1544 1831
L 300 3500
L 978 3500
L 1906 2253
L 2834 3500
L 3513 3500
z
" transform="scale(0.015625)"/>
      <path id="DejaVuSans-63" d="M 3122 3366
L 3122 2828
Q 2878 2963 2633 3030
Q 2388 3097 2138 3097
Q 1578 3097 1268 2742
Q 959 2388 959 1747
Q 959 1106 1268 751
Q 1578 397 2138 397
Q 2388 397 2633 464
Q 2878 531 3122 666
L 3122 134
Q 2881 22 2623 -34
Q 2366 -91 2075 -91
Q 1284 -91 818 406
Q 353 903 353 1747
Q 353 2603 823 3093
Q 1294 3584 2113 3584
Q 2378 3584 2631 3529
Q 2884 3475 3122 3366
z
" transform="scale(0.015625)"/>
      <path id="DejaVuSans-75" d="M 544 1381
L 544 3500
L 1119 3500
L 1119 1403
Q 1119 906 1312 657
Q 1506 409 1894 409
Q 2359 409 2629 706
Q 2900 1003 2900 1516
L 2900 3500
L 3475 3500
L 3475 0
L 2900 0
L 2900 538
Q 2691 219 2414 64
Q 2138 -91 1772 -91
Q 1169 -91 856 284
Q 544 659 544 1381
z
M 1991 3584
L 1991 3584
z
" transform="scale(0.015625)"/>
      <path id="DejaVuSans-74" d="M 1172 4494
L 1172 3500
L 2356 3500
L 2356 3053
L 1172 3053
L 1172 1153
Q 1172 725 1289 603
Q 1406 481 1766 481
L 2356 481
L 2356 0
L 1766 0
Q 1100 0 847 248
Q 594 497 594 1153
L 594 3053
L 172 3053
L 172 3500
L 594 3500
L 594 4494
L 1172 4494
z
" transform="scale(0.015625)"/>
      <path id="DejaVuSans-64" d="M 2906 2969
L 2906 4863
L 3481 4863
L 3481 0
L 2906 0
L 2906 525
Q 2725 213 2448 61
Q 2172 -91 1784 -91
Q 1150 -91 751 415
Q 353 922 353 1747
Q 353 2572 751 3078
Q 1150 3584 1784 3584
Q 2172 3584 2448 3432
Q 2725 3281 2906 2969
z
M 947 1747
Q 947 1113 1208 752
Q 1469 391 1925 391
Q 2381 391 2643 752
Q 2906 1113 2906 1747
Q 2906 2381 2643 2742
Q 2381 3103 1925 3103
Q 1469 3103 1208 2742
Q 947 2381 947 1747
z
" transform="scale(0.015625)"/>
      <path id="DejaVuSans-54" d="M -19 4666
L 3928 4666
L 3928 4134
L 2272 4134
L 2272 0
L 1638 0
L 1638 4134
L -19 4134
L -19 4666
z
" transform="scale(0.015625)"/>
      <path id="DejaVuSans-73" d="M 2834 3397
L 2834 2853
Q 2591 2978 2328 3040
Q 2066 3103 1784 3103
Q 1356 3103 1142 2972
Q 928 2841 928 2578
Q 928 2378 1081 2264
Q 1234 2150 1697 2047
L 1894 2003
Q 2506 1872 2764 1633
Q 3022 1394 3022 966
Q 3022 478 2636 193
Q 2250 -91 1575 -91
Q 1294 -91 989 -36
Q 684 19 347 128
L 347 722
Q 666 556 975 473
Q 1284 391 1588 391
Q 1994 391 2212 530
Q 2431 669 2431 922
Q 2431 1156 2273 1281
Q 2116 1406 1581 1522
L 1381 1569
Q 847 1681 609 1914
Q 372 2147 372 2553
Q 372 3047 722 3315
Q 1072 3584 1716 3584
Q 2034 3584 2315 3537
Q 2597 3491 2834 3397
z
" transform="scale(0.015625)"/>
      <path id="DejaVuSans-52" d="M 2841 2188
Q 3044 2119 3236 1894
Q 3428 1669 3622 1275
L 4263 0
L 3584 0
L 2988 1197
Q 2756 1666 2539 1819
Q 2322 1972 1947 1972
L 1259 1972
L 1259 0
L 628 0
L 628 4666
L 2053 4666
Q 2853 4666 3247 4331
Q 3641 3997 3641 3322
Q 3641 2881 3436 2590
Q 3231 2300 2841 2188
z
M 1259 4147
L 1259 2491
L 2053 2491
Q 2509 2491 2742 2702
Q 2975 2913 2975 3322
Q 2975 3731 2742 3939
Q 2509 4147 2053 4147
L 1259 4147
z
" transform="scale(0.015625)"/>
      <path id="DejaVuSans-6d" d="M 3328 2828
Q 3544 3216 3844 3400
Q 4144 3584 4550 3584
Q 5097 3584 5394 3201
Q 5691 2819 5691 2113
L 5691 0
L 5113 0
L 5113 2094
Q 5113 2597 4934 2840
Q 4756 3084 4391 3084
Q 3944 3084 3684 2787
Q 3425 2491 3425 1978
L 3425 0
L 2847 0
L 2847 2094
Q 2847 2600 2669 2842
Q 2491 3084 2119 3084
Q 1678 3084 1418 2786
Q 1159 2488 1159 1978
L 1159 0
L 581 0
L 581 3500
L 1159 3500
L 1159 2956
Q 1356 3278 1631 3431
Q 1906 3584 2284 3584
Q 2666 3584 2933 3390
Q 3200 3197 3328 2828
z
" transform="scale(0.015625)"/>
      <path id="DejaVuSans-61" d="M 2194 1759
Q 1497 1759 1228 1600
Q 959 1441 959 1056
Q 959 750 1161 570
Q 1363 391 1709 391
Q 2188 391 2477 730
Q 2766 1069 2766 1631
L 2766 1759
L 2194 1759
z
M 3341 1997
L 3341 0
L 2766 0
L 2766 531
Q 2569 213 2275 61
Q 1981 -91 1556 -91
Q 1019 -91 701 211
Q 384 513 384 1019
Q 384 1609 779 1909
Q 1175 2209 1959 2209
L 2766 2209
L 2766 2266
Q 2766 2663 2505 2880
Q 2244 3097 1772 3097
Q 1472 3097 1187 3025
Q 903 2953 641 2809
L 641 3341
Q 956 3463 1253 3523
Q 1550 3584 1831 3584
Q 2591 3584 2966 3190
Q 3341 2797 3341 1997
z
" transform="scale(0.015625)"/>
      <path id="DejaVuSans-69" d="M 603 3500
L 1178 3500
L 1178 0
L 603 0
L 603 3500
z
M 603 4863
L 1178 4863
L 1178 4134
L 603 4134
L 603 4863
z
" transform="scale(0.015625)"/>
      <path id="DejaVuSans-2e" d="M 684 794
L 1344 794
L 1344 0
L 684 0
L 684 794
z
" transform="scale(0.015625)"/>
     </defs>
     <use xlink:href="#DejaVuSans-41"/>
     <use xlink:href="#DejaVuSans-6e" transform="translate(68.408203 0)"/>
     <use xlink:href="#DejaVuSans-20" transform="translate(131.787109 0)"/>
     <use xlink:href="#DejaVuSans-55" transform="translate(163.574219 0)"/>
     <use xlink:href="#DejaVuSans-6e" transform="translate(236.767578 0)"/>
     <use xlink:href="#DejaVuSans-65" transform="translate(300.146484 0)"/>
     <use xlink:href="#DejaVuSans-78" transform="translate(359.919922 0)"/>
     <use xlink:href="#DejaVuSans-65" transform="translate(415.974609 0)"/>
     <use xlink:href="#DejaVuSans-63" transform="translate(477.498047 0)"/>
     <use xlink:href="#DejaVuSans-75" transform="translate(532.478516 0)"/>
     <use xlink:href="#DejaVuSans-74" transform="translate(595.857422 0)"/>
     <use xlink:href="#DejaVuSans-65" transform="translate(635.066406 0)"/>
     <use xlink:href="#DejaVuSans-64" transform="translate(696.589844 0)"/>
     <use xlink:href="#DejaVuSans-20" transform="translate(760.066406 0)"/>
     <use xlink:href="#DejaVuSans-54" transform="translate(791.853516 0)"/>
     <use xlink:href="#DejaVuSans-65" transform="translate(835.9375 0)"/>
     <use xlink:href="#DejaVuSans-73" transform="translate(897.460938 0)"/>
     <use xlink:href="#DejaVuSans-74" transform="translate(949.560547 0)"/>
     <use xlink:href="#DejaVuSans-20" transform="translate(988.769531 0)"/>
     <use xlink:href="#DejaVuSans-52" transform="translate(1020.556641 0)"/>
     <use xlink:href="#DejaVuSans-65" transform="translate(1085.539062 0)"/>
     <use xlink:href="#DejaVuSans-6d" transform="translate(1147.0625 0)"/>
     <use xlink:href="#DejaVuSans-61" transform="translate(1244.474609 0)"/>
     <use xlink:href="#DejaVuSans-69" transform="translate(1305.753906 0)"/>
     <use xlink:href="#DejaVuSans-6e" transform="translate(1333.537109 0)"/>
     <use xlink:href="#DejaVuSans-73" transform="translate(1396.916016 0)"/>
     <use xlink:href="#DejaVuSans-20" transform="translate(1449.015625 0)"/>
     <use xlink:href="#DejaVuSans-55" transform="translate(1480.802734 0)"/>
     <use xlink:href="#DejaVuSans-6e" transform="translate(1553.996094 0)"/>
     <use xlink:href="#DejaVuSans-74" transform="translate(1617.375 0)"/>
     <use xlink:href="#DejaVuSans-65" transform="translate(1656.583984 0)"/>
     <use xlink:href="#DejaVuSans-73" transform="translate(1718.107422 0)"/>
     <use xlink:href="#DejaVuSans-74" transform="translate(1770.207031 0)"/>
     <use xlink:href="#DejaVuSans-65" transform="translate(1809.416016 0)"/>
     <use xlink:href="#DejaVuSans-64" transform="translate(1870.939453 0)"/>
     <use xlink:href="#DejaVuSans-2e" transform="translate(1934.416016 0)"/>
    </g>
   </g>
  </g>
 </g>
 <defs>
  <clipPath id="p9e64ca2ec6">
   <rect x="7.2" y="7.2" width="613.8" height="304.92"/>
  </clipPath>
 </defs>
</svg>
