<?xml version="1.0" encoding="utf-8" standalone="no"?>
<!DOCTYPE svg PUBLIC "-//W3C//DTD SVG 1.1//EN"
  "http://www.w3.org/Graphics/SVG/1.1/DTD/svg11.dtd">
<svg xmlns:xlink="http://www.w3.org/1999/xlink" width="712.470312pt" height="496.71625pt" viewBox="0 0 712.470312 496.71625" xmlns="http://www.w3.org/2000/svg" version="1.1">
 <metadata>
  <rdf:RDF xmlns:dc="http://purl.org/dc/elements/1.1/" xmlns:cc="http://creativecommons.org/ns#" xmlns:rdf="http://www.w3.org/1999/02/22-rdf-syntax-ns#">
   <cc:Work>
    <dc:type rdf:resource="http://purl.org/dc/dcmitype/StillImage"/>
    <dc:format>image/svg+xml</dc:format>
    <dc:creator>
     <cc:Agent>
      <dc:title>Matplotlib v3.10.8, https://matplotlib.org/</dc:title>
     </cc:Agent>
    </dc:creator>
   </cc:Work>
  </rdf:RDF>
 </metadata>
 <defs>
  <style type="text/css">*{stroke-linejoin: round; stroke-linecap: butt}</style>
 </defs>
 <g id="figure_1">
  <g id="patch_1">
   <path d="M 0 496.71625
L 712.470312 496.71625
L 712.470312 0
L 0 0
z
" style="fill: #ffffff"/>
  </g>
  <g id="axes_1">
   <g id="patch_2">
    <path d="M 42.620313 238.27
L 705.270313 238.27
L 705.270313 47.76
L 42.620313 47.76
z
" style="fill: #ffffff"/>
   </g>
   <g id="matplotlib.axis_1">
    <g id="xtick_1">
     <g id="line2d_1">
      <defs>
       <path id="mb026062304" d="M 0 0
L 0 3.5
" style="stroke: #000000; stroke-width: 0.8"/>
      </defs>
      <g>
       <use xlink:href="#mb026062304" x="132.981676" y="238.27" style="stroke: #000000; stroke-width: 0.8"/>
      </g>
     </g>
    </g>
    <g id="xtick_2">
     <g id="line2d_2">
      <g>
       <use xlink:href="#mb026062304" x="233.383191" y="238.27" style="stroke: #000000; stroke-width: 0.8"/>
      </g>
     </g>
    </g>
    <g id="xtick_3">
     <g id="line2d_3">
      <g>
       <use xlink:href="#mb026062304" x="333.784706" y="238.27" style="stroke: #000000; stroke-width: 0.8"/>
      </g>
     </g>
    </g>
    <g id="xtick_4">
     <g id="line2d_4">
      <g>
       <use xlink:href="#mb026062304" x="434.186222" y="238.27" style="stroke: #000000; stroke-width: 0.8"/>
      </g>
     </g>
    </g>
    <g id="xtick_5">
     <g id="line2d_5">
      <g>
       <use xlink:href="#mb026062304" x="534.587737" y="238.27" style="stroke: #000000; stroke-width: 0.8"/>
      </g>
     </g>
    </g>
    <g id="xtick_6">
     <g id="line2d_6">
      <g>
       <use xlink:href="#mb026062304" x="634.989252" y="238.27" style="stroke: #000000; stroke-width: 0.8"/>
      </g>
     </g>
    </g>
   </g>
   <g id="matplotlib.axis_2">
    <g id="ytick_1">
     <g id="line2d_7">
      <defs>
       <path id="mb49e9131cc" d="M 0 0
L -3.5 0
" style="stroke: #000000; stroke-width: 0.8"/>
      </defs>
      <g>
       <use xlink:href="#mb49e9131cc" x="42.620313" y="221.73814" style="stroke: #000000; stroke-width: 0.8"/>
      </g>
     </g>
     <g id="text_1">
      <!-- −5 -->
      <g transform="translate(20.878125 225.537359) scale(0.1 -0.1)">
       <defs>
        <path id="DejaVuSans-2212" d="M 678 2272
L 4684 2272
L 4684 1741
L 678 1741
L 678 2272
z
" transform="scale(0.015625)"/>
        <path id="DejaVuSans-35" d="M 691 4666
L 3169 4666
L 3169 4134
L 1269 4134
L 1269 2991
Q 1406 3038 1543 3061
Q 1681 3084 1819 3084
Q 2600 3084 3056 2656
Q 3513 2228 3513 1497
Q 3513 744 3044 326
Q 2575 -91 1722 -91
Q 1428 -91 1123 -41
Q 819 9 494 109
L 494 744
Q 775 591 1075 516
Q 1375 441 1709 441
Q 2250 441 2565 725
Q 2881 1009 2881 1497
Q 2881 1984 2565 2268
Q 2250 2553 1709 2553
Q 1456 2553 1204 2497
Q 953 2441 691 2322
L 691 4666
z
" transform="scale(0.015625)"/>
       </defs>
       <use xlink:href="#DejaVuSans-2212"/>
       <use xlink:href="#DejaVuSans-35" transform="translate(83.789062 0)"/>
      </g>
     </g>
    </g>
    <g id="ytick_2">
     <g id="line2d_8">
      <g>
       <use xlink:href="#mb49e9131cc" x="42.620313" y="182.37657" style="stroke: #000000; stroke-width: 0.8"/>
      </g>
     </g>
     <g id="text_2">
      <!-- 0 -->
      <g transform="translate(29.257813 186.175789) scale(0.1 -0.1)">
       <defs>
        <path id="DejaVuSans-30" d="M 2034 4250
Q 1547 4250 1301 3770
Q 1056 3291 1056 2328
Q 1056 1369 1301 889
Q 1547 409 2034 409
Q 2525 409 2770 889
Q 3016 1369 3016 2328
Q 3016 3291 2770 3770
Q 2525 4250 2034 4250
z
M 2034 4750
Q 2819 4750 3233 4129
Q 3647 3509 3647 2328
Q 3647 1150 3233 529
Q 2819 -91 2034 -91
Q 1250 -91 836 529
Q 422 1150 422 2328
Q 422 3509 836 4129
Q 1250 4750 2034 4750
z
" transform="scale(0.015625)"/>
       </defs>
       <use xlink:href="#DejaVuSans-30"/>
      </g>
     </g>
    </g>
    <g id="ytick_3">
     <g id="line2d_9">
      <g>
       <use xlink:href="#mb49e9131cc" x="42.620313" y="143.015" style="stroke: #000000; stroke-width: 0.8"/>
      </g>
     </g>
     <g id="text_3">
      <!-- 5 -->
      <g transform="translate(29.257813 146.814219) scale(0.1 -0.1)">
       <use xlink:href="#DejaVuSans-35"/>
      </g>
     </g>
    </g>
    <g id="ytick_4">
     <g id="line2d_10">
      <g>
       <use xlink:href="#mb49e9131cc" x="42.620313" y="103.65343" style="stroke: #000000; stroke-width: 0.8"/>
      </g>
     </g>
     <g id="text_4">
      <!-- 10 -->
      <g transform="translate(22.895313 107.452649) scale(0.1 -0.1)">
       <defs>
        <path id="DejaVuSans-31" d="M 794 531
L 1825 531
L 1825 4091
L 703 3866
L 703 4441
L 1819 4666
L 2450 4666
L 2450 531
L 3481 531
L 3481 0
L 794 0
L 794 531
z
" transform="scale(0.015625)"/>
       </defs>
       <use xlink:href="#DejaVuSans-31"/>
       <use xlink:href="#DejaVuSans-30" transform="translate(63.623047 0)"/>
      </g>
     </g>
    </g>
    <g id="ytick_5">
     <g id="line2d_11">
      <g>
       <use xlink:href="#mb49e9131cc" x="42.620313" y="64.29186" style="stroke: #000000; stroke-width: 0.8"/>
      </g>
     </g>
     <g id="text_5">
      <!-- 15 -->
      <g transform="translate(22.895313 68.091078) scale(0.1 -0.1)">
       <use xlink:href="#DejaVuSans-31"/>
       <use xlink:href="#DejaVuSans-35" transform="translate(63.623047 0)"/>
      </g>
     </g>
    </g>
    <g id="text_6">
     <!-- Torque (N m) -->
     <g transform="translate(14.798438 175.356406) rotate(-90) scale(0.1 -0.1)">
      <defs>
       <path id="DejaVuSans-54" d="M -19 4666
L 3928 4666
L 3928 4134
L 2272 4134
L 2272 0
L 1638 0
L 1638 4134
L -19 4134
L -19 4666
z
" transform="scale(0.015625)"/>
       <path id="DejaVuSans-6f" d="M 1959 3097
Q 1497 3097 1228 2736
Q 959 2375 959 1747
Q 959 1119 1226 758
Q 1494 397 1959 397
Q 2419 397 2687 759
Q 2956 1122 2956 1747
Q 2956 2369 2687 2733
Q 2419 3097 1959 3097
z
M 1959 3584
Q 2709 3584 3137 3096
Q 3566 2609 3566 1747
Q 3566 888 3137 398
Q 2709 -91 1959 -91
Q 1206 -91 779 398
Q 353 888 353 1747
Q 353 2609 779 3096
Q 1206 3584 1959 3584
z
" transform="scale(0.015625)"/>
       <path id="DejaVuSans-72" d="M 2631 2963
Q 2534 3019 2420 3045
Q 2306 3072 2169 3072
Q 1681 3072 1420 2755
Q 1159 2438 1159 1844
L 1159 0
L 581 0
L 581 3500
L 1159 3500
L 1159 2956
Q 1341 3275 1631 3429
Q 1922 3584 2338 3584
Q 2397 3584 2469 3576
Q 2541 3569 2628 3553
L 2631 2963
z
" transform="scale(0.015625)"/>
       <path id="DejaVuSans-71" d="M 947 1747
Q 947 1113 1208 752
Q 1469 391 1925 391
Q 2381 391 2643 752
Q 2906 1113 2906 1747
Q 2906 2381 2643 2742
Q 2381 3103 1925 3103
Q 1469 3103 1208 2742
Q 947 2381 947 1747
z
M 2906 525
Q 2725 213 2448 61
Q 2172 -91 1784 -91
Q 1150 -91 751 415
Q 353 922 353 1747
Q 353 2572 751 3078
Q 1150 3584 1784 3584
Q 2172 3584 2448 3432
Q 2725 3281 2906 2969
L 2906 3500
L 3481 3500
L 3481 -1331
L 2906 -1331
L 2906 525
z
" transform="scale(0.015625)"/>
       <path id="DejaVuSans-75" d="M 544 1381
L 544 3500
L 1119 3500
L 1119 1403
Q 1119 906 1312 657
Q 1506 409 1894 409
Q 2359 409 2629 706
Q 2900 1003 2900 1516
L 2900 3500
L 3475 3500
L 3475 0
L 2900 0
L 2900 538
Q 2691 219 2414 64
Q 2138 -91 1772 -91
Q 1169 -91 856 284
Q 544 659 544 1381
z
M 1991 3584
L 1991 3584
z
" transform="scale(0.015625)"/>
       <path id="DejaVuSans-65" d="M 3597 1894
L 3597 1613
L 953 1613
Q 991 1019 1311 708
Q 1631 397 2203 397
Q 2534 397 2845 478
Q 3156 559 3463 722
L 3463 178
Q 3153 47 2828 -22
Q 2503 -91 2169 -91
Q 1331 -91 842 396
Q 353 884 353 1716
Q 353 2575 817 3079
Q 1281 3584 2069 3584
Q 2775 3584 3186 3129
Q 3597 2675 3597 1894
z
M 3022 2063
Q 3016 2534 2758 2815
Q 2500 3097 2075 3097
Q 1594 3097 1305 2825
Q 1016 2553 972 2059
L 3022 2063
z
" transform="scale(0.015625)"/>
       <path id="DejaVuSans-20" transform="scale(0.015625)"/>
       <path id="DejaVuSans-28" d="M 1984 4856
Q 1566 4138 1362 3434
Q 1159 2731 1159 2009
Q 1159 1288 1364 580
Q 1569 -128 1984 -844
L 1484 -844
Q 1016 -109 783 600
Q 550 1309 550 2009
Q 550 2706 781 3412
Q 1013 4119 1484 4856
L 1984 4856
z
" transform="scale(0.015625)"/>
       <path id="DejaVuSans-4e" d="M 628 4666
L 1478 4666
L 3547 763
L 3547 4666
L 4159 4666
L 4159 0
L 3309 0
L 1241 3903
L 1241 0
L 628 0
L 628 4666
z
" transform="scale(0.015625)"/>
       <path id="DejaVuSans-6d" d="M 3328 2828
Q 3544 3216 3844 3400
Q 4144 3584 4550 3584
Q 5097 3584 5394 3201
Q 5691 2819 5691 2113
L 5691 0
L 5113 0
L 5113 2094
Q 5113 2597 4934 2840
Q 4756 3084 4391 3084
Q 3944 3084 3684 2787
Q 3425 2491 3425 1978
L 3425 0
L 2847 0
L 2847 2094
Q 2847 2600 2669 2842
Q 2491 3084 2119 3084
Q 1678 3084 1418 2786
Q 1159 2488 1159 1978
L 1159 0
L 581 0
L 581 3500
L 1159 3500
L 1159 2956
Q 1356 3278 1631 3431
Q 1906 3584 2284 3584
Q 2666 3584 2933 3390
Q 3200 3197 3328 2828
z
" transform="scale(0.015625)"/>
       <path id="DejaVuSans-29" d="M 513 4856
L 1013 4856
Q 1481 4119 1714 3412
Q 1947 2706 1947 2009
Q 1947 1309 1714 600
Q 1481 -109 1013 -844
L 513 -844
Q 928 -128 1133 580
Q 1338 1288 1338 2009
Q 1338 2731 1133 3434
Q 928 4138 513 4856
z
" transform="scale(0.015625)"/>
      </defs>
      <use xlink:href="#DejaVuSans-54"/>
      <use xlink:href="#DejaVuSans-6f" transform="translate(44.083984 0)"/>
      <use xlink:href="#DejaVuSans-72" transform="translate(105.265625 0)"/>
      <use xlink:href="#DejaVuSans-71" transform="translate(144.628906 0)"/>
      <use xlink:href="#DejaVuSans-75" transform="translate(208.105469 0)"/>
      <use xlink:href="#DejaVuSans-65" transform="translate(271.484375 0)"/>
      <use xlink:href="#DejaVuSans-20" transform="translate(333.007812 0)"/>
      <use xlink:href="#DejaVuSans-28" transform="translate(364.794922 0)"/>
      <use xlink:href="#DejaVuSans-4e" transform="translate(403.808594 0)"/>
      <use xlink:href="#DejaVuSans-20" transform="translate(478.613281 0)"/>
      <use xlink:href="#DejaVuSans-6d" transform="translate(510.400391 0)"/>
      <use xlink:href="#DejaVuSans-29" transform="translate(607.8125 0)"/>
     </g>
    </g>
   </g>
   <g id="line2d_12">
    <path d="M 72.740767 182.37657
L 92.218661 182.37657
L 92.620267 181.654924
L 95.632313 175.401596
L 98.644358 169.649594
L 101.656403 164.358726
L 104.668449 159.492023
L 107.881297 154.730136
L 111.094146 150.374341
L 114.306994 146.390005
L 117.519843 142.745451
L 120.933494 139.213046
L 124.347146 135.999834
L 127.9616 132.913507
L 131.576055 130.121662
L 135.391313 127.463185
L 139.20657 125.071726
L 143.222631 122.813427
L 147.439494 120.698017
L 151.857161 118.731927
L 156.475631 116.918518
L 161.495706 115.193894
L 166.716585 113.637715
L 172.33907 112.195668
L 178.363161 110.880919
L 184.989661 109.667172
L 192.21857 108.574321
L 200.250691 107.591331
L 209.286828 106.718133
L 219.527782 105.960152
L 231.375161 105.313958
L 245.431373 104.777732
L 262.700434 104.349749
L 285.190373 104.026531
L 317.118055 103.807292
L 371.13407 103.687809
L 434.186222 103.659408
L 437.39907 99.630816
L 440.611919 95.945781
L 444.02557 92.37414
L 447.439222 89.125237
L 450.852873 86.169909
L 454.467328 83.331283
L 458.282585 80.62826
L 462.097843 78.19673
L 466.113903 75.90059
L 470.330767 73.749734
L 474.748434 71.7507
L 479.366903 69.906905
L 484.186176 68.218936
L 489.407055 66.627841
L 495.02954 65.15344
L 501.053631 63.809193
L 507.479328 62.602564
L 514.507434 61.507216
L 522.338752 60.513655
L 531.174085 59.62362
L 541.214237 58.844641
L 552.660009 58.184847
L 566.314616 57.628179
L 582.981267 57.18071
L 604.467191 56.838913
L 634.386843 56.602395
L 675.149858 56.478557
L 675.149858 56.478557
" clip-path="url(#p92b1e4e504)" style="fill: none; stroke: #2c7fb8; stroke-width: 2.5; stroke-linecap: square"/>
   </g>
   <g id="line2d_13">
    <path d="M 72.740767 103.65343
L 434.186222 103.65343
L 434.186222 56.419545
L 675.149858 56.419545
L 675.149858 56.419545
" clip-path="url(#p92b1e4e504)" style="fill: none; stroke-dasharray: 4.44,1.92; stroke-dashoffset: 0; stroke: #2c7fb8; stroke-width: 1.2"/>
   </g>
   <g id="line2d_14">
    <path d="M 72.740767 182.37657
L 109.889328 182.408796
L 113.503782 185.410263
L 117.118237 188.125346
L 120.933494 190.710727
L 124.949555 193.152151
L 128.965616 195.336157
L 133.182479 197.381974
L 137.600146 199.283383
L 142.419419 201.108405
L 147.439494 202.767026
L 152.861176 204.316994
L 158.684464 205.741535
L 164.909358 207.030145
L 171.736661 208.209692
L 179.166373 209.26327
L 187.399297 210.203132
L 196.636237 211.031141
L 207.278797 211.755873
L 219.728585 212.37212
L 234.588009 212.876763
L 253.262691 213.276694
L 277.961464 213.568921
L 314.507616 213.758112
L 382.37904 213.84944
L 434.387025 213.949425
L 439.005494 215.832892
L 443.824767 217.557181
L 449.045646 219.182511
L 454.467328 220.638793
L 460.491419 222.019635
L 466.917116 223.259113
L 473.945222 224.38428
L 481.77654 225.404889
L 490.41107 226.300767
L 500.250419 227.091428
L 511.495388 227.766534
L 524.748388 228.333848
L 541.013434 228.797475
L 561.696146 229.152446
L 590.210176 229.402816
L 635.190055 229.550841
L 675.149858 229.590782
L 675.149858 229.590782
" clip-path="url(#p92b1e4e504)" style="fill: none; stroke: #d95f0e; stroke-width: 2.5; stroke-linecap: square"/>
   </g>
   <g id="line2d_15">
    <path d="M 72.740767 213.865826
L 434.186222 213.865826
L 434.186222 229.610455
L 675.149858 229.610455
L 675.149858 229.610455
" clip-path="url(#p92b1e4e504)" style="fill: none; stroke-dasharray: 4.44,1.92; stroke-dashoffset: 0; stroke: #d95f0e; stroke-width: 1.2"/>
   </g>
   <g id="line2d_16">
    <path d="M 434.186222 238.27
L 434.186222 47.76
" clip-path="url(#p92b1e4e504)" style="fill: none; stroke-dasharray: 1.5,2.475; stroke-dashoffset: 0; stroke: #17324d; stroke-width: 1.5"/>
   </g>
   <g id="line2d_17">
    <path d="M 42.620313 182.37657
L 705.270313 182.37657
" clip-path="url(#p92b1e4e504)" style="fill: none; stroke: #657786; stroke-width: 0.8; stroke-linecap: square"/>
   </g>
   <g id="patch_3">
    <path d="M 42.620313 238.27
L 42.620313 47.76
" style="fill: none; stroke: #000000; stroke-width: 0.8; stroke-linejoin: miter; stroke-linecap: square"/>
   </g>
   <g id="patch_4">
    <path d="M 42.620313 238.27
L 705.270313 238.27
" style="fill: none; stroke: #000000; stroke-width: 0.8; stroke-linejoin: miter; stroke-linecap: square"/>
   </g>
   <g id="text_7">
    <!-- Persistent Command Directions -->
    <g transform="translate(271.510391 41.76) scale(0.13 -0.13)">
     <defs>
      <path id="DejaVuSans-50" d="M 1259 4147
L 1259 2394
L 2053 2394
Q 2494 2394 2734 2622
Q 2975 2850 2975 3272
Q 2975 3691 2734 3919
Q 2494 4147 2053 4147
L 1259 4147
z
M 628 4666
L 2053 4666
Q 2838 4666 3239 4311
Q 3641 3956 3641 3272
Q 3641 2581 3239 2228
Q 2838 1875 2053 1875
L 1259 1875
L 1259 0
L 628 0
L 628 4666
z
" transform="scale(0.015625)"/>
      <path id="DejaVuSans-73" d="M 2834 3397
L 2834 2853
Q 2591 2978 2328 3040
Q 2066 3103 1784 3103
Q 1356 3103 1142 2972
Q 928 2841 928 2578
Q 928 2378 1081 2264
Q 1234 2150 1697 2047
L 1894 2003
Q 2506 1872 2764 1633
Q 3022 1394 3022 966
Q 3022 478 2636 193
Q 2250 -91 1575 -91
Q 1294 -91 989 -36
Q 684 19 347 128
L 347 722
Q 666 556 975 473
Q 1284 391 1588 391
Q 1994 391 2212 530
Q 2431 669 2431 922
Q 2431 1156 2273 1281
Q 2116 1406 1581 1522
L 1381 1569
Q 847 1681 609 1914
Q 372 2147 372 2553
Q 372 3047 722 3315
Q 1072 3584 1716 3584
Q 2034 3584 2315 3537
Q 2597 3491 2834 3397
z
" transform="scale(0.015625)"/>
      <path id="DejaVuSans-69" d="M 603 3500
L 1178 3500
L 1178 0
L 603 0
L 603 3500
z
M 603 4863
L 1178 4863
L 1178 4134
L 603 4134
L 603 4863
z
" transform="scale(0.015625)"/>
      <path id="DejaVuSans-74" d="M 1172 4494
L 1172 3500
L 2356 3500
L 2356 3053
L 1172 3053
L 1172 1153
Q 1172 725 1289 603
Q 1406 481 1766 481
L 2356 481
L 2356 0
L 1766 0
Q 1100 0 847 248
Q 594 497 594 1153
L 594 3053
L 172 3053
L 172 3500
L 594 3500
L 594 4494
L 1172 4494
z
" transform="scale(0.015625)"/>
      <path id="DejaVuSans-6e" d="M 3513 2113
L 3513 0
L 2938 0
L 2938 2094
Q 2938 2591 2744 2837
Q 2550 3084 2163 3084
Q 1697 3084 1428 2787
Q 1159 2491 1159 1978
L 1159 0
L 581 0
L 581 3500
L 1159 3500
L 1159 2956
Q 1366 3272 1645 3428
Q 1925 3584 2291 3584
Q 2894 3584 3203 3211
Q 3513 2838 3513 2113
z
" transform="scale(0.015625)"/>
      <path id="DejaVuSans-43" d="M 4122 4306
L 4122 3641
Q 3803 3938 3442 4084
Q 3081 4231 2675 4231
Q 1875 4231 1450 3742
Q 1025 3253 1025 2328
Q 1025 1406 1450 917
Q 1875 428 2675 428
Q 3081 428 3442 575
Q 3803 722 4122 1019
L 4122 359
Q 3791 134 3420 21
Q 3050 -91 2638 -91
Q 1578 -91 968 557
Q 359 1206 359 2328
Q 359 3453 968 4101
Q 1578 4750 2638 4750
Q 3056 4750 3426 4639
Q 3797 4528 4122 4306
z
" transform="scale(0.015625)"/>
      <path id="DejaVuSans-61" d="M 2194 1759
Q 1497 1759 1228 1600
Q 959 1441 959 1056
Q 959 750 1161 570
Q 1363 391 1709 391
Q 2188 391 2477 730
Q 2766 1069 2766 1631
L 2766 1759
L 2194 1759
z
M 3341 1997
L 3341 0
L 2766 0
L 2766 531
Q 2569 213 2275 61
Q 1981 -91 1556 -91
Q 1019 -91 701 211
Q 384 513 384 1019
Q 384 1609 779 1909
Q 1175 2209 1959 2209
L 2766 2209
L 2766 2266
Q 2766 2663 2505 2880
Q 2244 3097 1772 3097
Q 1472 3097 1187 3025
Q 903 2953 641 2809
L 641 3341
Q 956 3463 1253 3523
Q 1550 3584 1831 3584
Q 2591 3584 2966 3190
Q 3341 2797 3341 1997
z
" transform="scale(0.015625)"/>
      <path id="DejaVuSans-64" d="M 2906 2969
L 2906 4863
L 3481 4863
L 3481 0
L 2906 0
L 2906 525
Q 2725 213 2448 61
Q 2172 -91 1784 -91
Q 1150 -91 751 415
Q 353 922 353 1747
Q 353 2572 751 3078
Q 1150 3584 1784 3584
Q 2172 3584 2448 3432
Q 2725 3281 2906 2969
z
M 947 1747
Q 947 1113 1208 752
Q 1469 391 1925 391
Q 2381 391 2643 752
Q 2906 1113 2906 1747
Q 2906 2381 2643 2742
Q 2381 3103 1925 3103
Q 1469 3103 1208 2742
Q 947 2381 947 1747
z
" transform="scale(0.015625)"/>
      <path id="DejaVuSans-44" d="M 1259 4147
L 1259 519
L 2022 519
Q 2988 519 3436 956
Q 3884 1394 3884 2338
Q 3884 3275 3436 3711
Q 2988 4147 2022 4147
L 1259 4147
z
M 628 4666
L 1925 4666
Q 3281 4666 3915 4102
Q 4550 3538 4550 2338
Q 4550 1131 3912 565
Q 3275 0 1925 0
L 628 0
L 628 4666
z
" transform="scale(0.015625)"/>
      <path id="DejaVuSans-63" d="M 3122 3366
L 3122 2828
Q 2878 2963 2633 3030
Q 2388 3097 2138 3097
Q 1578 3097 1268 2742
Q 959 2388 959 1747
Q 959 1106 1268 751
Q 1578 397 2138 397
Q 2388 397 2633 464
Q 2878 531 3122 666
L 3122 134
Q 2881 22 2623 -34
Q 2366 -91 2075 -91
Q 1284 -91 818 406
Q 353 903 353 1747
Q 353 2603 823 3093
Q 1294 3584 2113 3584
Q 2378 3584 2631 3529
Q 2884 3475 3122 3366
z
" transform="scale(0.015625)"/>
     </defs>
     <use xlink:href="#DejaVuSans-50"/>
     <use xlink:href="#DejaVuSans-65" transform="translate(56.677734 0)"/>
     <use xlink:href="#DejaVuSans-72" transform="translate(118.201172 0)"/>
     <use xlink:href="#DejaVuSans-73" transform="translate(159.314453 0)"/>
     <use xlink:href="#DejaVuSans-69" transform="translate(211.414062 0)"/>
     <use xlink:href="#DejaVuSans-73" transform="translate(239.197266 0)"/>
     <use xlink:href="#DejaVuSans-74" transform="translate(291.296875 0)"/>
     <use xlink:href="#DejaVuSans-65" transform="translate(330.505859 0)"/>
     <use xlink:href="#DejaVuSans-6e" transform="translate(392.029297 0)"/>
     <use xlink:href="#DejaVuSans-74" transform="translate(455.408203 0)"/>
     <use xlink:href="#DejaVuSans-20" transform="translate(494.617188 0)"/>
     <use xlink:href="#DejaVuSans-43" transform="translate(526.404297 0)"/>
     <use xlink:href="#DejaVuSans-6f" transform="translate(596.228516 0)"/>
     <use xlink:href="#DejaVuSans-6d" transform="translate(657.410156 0)"/>
     <use xlink:href="#DejaVuSans-6d" transform="translate(754.822266 0)"/>
     <use xlink:href="#DejaVuSans-61" transform="translate(852.234375 0)"/>
     <use xlink:href="#DejaVuSans-6e" transform="translate(913.513672 0)"/>
     <use xlink:href="#DejaVuSans-64" transform="translate(976.892578 0)"/>
     <use xlink:href="#DejaVuSans-20" transform="translate(1040.369141 0)"/>
     <use xlink:href="#DejaVuSans-44" transform="translate(1072.15625 0)"/>
     <use xlink:href="#DejaVuSans-69" transform="translate(1149.158203 0)"/>
     <use xlink:href="#DejaVuSans-72" transform="translate(1176.941406 0)"/>
     <use xlink:href="#DejaVuSans-65" transform="translate(1215.804688 0)"/>
     <use xlink:href="#DejaVuSans-63" transform="translate(1277.328125 0)"/>
     <use xlink:href="#DejaVuSans-74" transform="translate(1332.308594 0)"/>
     <use xlink:href="#DejaVuSans-69" transform="translate(1371.517578 0)"/>
     <use xlink:href="#DejaVuSans-6f" transform="translate(1399.300781 0)"/>
     <use xlink:href="#DejaVuSans-6e" transform="translate(1460.482422 0)"/>
     <use xlink:href="#DejaVuSans-73" transform="translate(1523.861328 0)"/>
    </g>
   </g>
   <g id="legend_1">
    <g id="line2d_18">
     <path d="M 51.620313 60.858437
L 61.620313 60.858437
L 71.620313 60.858437
" style="fill: none; stroke: #2c7fb8; stroke-width: 2.5; stroke-linecap: square"/>
    </g>
    <g id="text_8">
     <!-- Arm Transmitted -->
     <g transform="translate(79.620313 64.358437) scale(0.1 -0.1)">
      <defs>
       <path id="DejaVuSans-41" d="M 2188 4044
L 1331 1722
L 3047 1722
L 2188 4044
z
M 1831 4666
L 2547 4666
L 4325 0
L 3669 0
L 3244 1197
L 1141 1197
L 716 0
L 50 0
L 1831 4666
z
" transform="scale(0.015625)"/>
      </defs>
      <use xlink:href="#DejaVuSans-41"/>
      <use xlink:href="#DejaVuSans-72" transform="translate(68.408203 0)"/>
      <use xlink:href="#DejaVuSans-6d" transform="translate(107.771484 0)"/>
      <use xlink:href="#DejaVuSans-20" transform="translate(205.183594 0)"/>
      <use xlink:href="#DejaVuSans-54" transform="translate(236.970703 0)"/>
      <use xlink:href="#DejaVuSans-72" transform="translate(283.304688 0)"/>
      <use xlink:href="#DejaVuSans-61" transform="translate(324.417969 0)"/>
      <use xlink:href="#DejaVuSans-6e" transform="translate(385.697266 0)"/>
      <use xlink:href="#DejaVuSans-73" transform="translate(449.076172 0)"/>
      <use xlink:href="#DejaVuSans-6d" transform="translate(501.175781 0)"/>
      <use xlink:href="#DejaVuSans-69" transform="translate(598.587891 0)"/>
      <use xlink:href="#DejaVuSans-74" transform="translate(626.371094 0)"/>
      <use xlink:href="#DejaVuSans-74" transform="translate(665.580078 0)"/>
      <use xlink:href="#DejaVuSans-65" transform="translate(704.789062 0)"/>
      <use xlink:href="#DejaVuSans-64" transform="translate(766.3125 0)"/>
     </g>
    </g>
    <g id="line2d_19">
     <path d="M 51.620313 75.536562
L 61.620313 75.536562
L 61.620313 75.536562
L 71.620313 75.536562
L 71.620313 75.536562
" style="fill: none; stroke-dasharray: 4.44,1.92; stroke-dashoffset: 0; stroke: #2c7fb8; stroke-width: 1.2"/>
    </g>
    <g id="text_9">
     <!-- Arm Command -->
     <g transform="translate(79.620313 79.036562) scale(0.1 -0.1)">
      <use xlink:href="#DejaVuSans-41"/>
      <use xlink:href="#DejaVuSans-72" transform="translate(68.408203 0)"/>
      <use xlink:href="#DejaVuSans-6d" transform="translate(107.771484 0)"/>
      <use xlink:href="#DejaVuSans-20" transform="translate(205.183594 0)"/>
      <use xlink:href="#DejaVuSans-43" transform="translate(236.970703 0)"/>
      <use xlink:href="#DejaVuSans-6f" transform="translate(306.794922 0)"/>
      <use xlink:href="#DejaVuSans-6d" transform="translate(367.976562 0)"/>
      <use xlink:href="#DejaVuSans-6d" transform="translate(465.388672 0)"/>
      <use xlink:href="#DejaVuSans-61" transform="translate(562.800781 0)"/>
      <use xlink:href="#DejaVuSans-6e" transform="translate(624.080078 0)"/>
      <use xlink:href="#DejaVuSans-64" transform="translate(687.458984 0)"/>
     </g>
    </g>
    <g id="line2d_20">
     <path d="M 182.595313 60.858437
L 192.595313 60.858437
L 202.595313 60.858437
" style="fill: none; stroke: #d95f0e; stroke-width: 2.5; stroke-linecap: square"/>
    </g>
    <g id="text_10">
     <!-- Wrist Transmitted -->
     <g transform="translate(210.595313 64.358437) scale(0.1 -0.1)">
      <defs>
       <path id="DejaVuSans-57" d="M 213 4666
L 850 4666
L 1831 722
L 2809 4666
L 3519 4666
L 4500 722
L 5478 4666
L 6119 4666
L 4947 0
L 4153 0
L 3169 4050
L 2175 0
L 1381 0
L 213 4666
z
" transform="scale(0.015625)"/>
      </defs>
      <use xlink:href="#DejaVuSans-57"/>
      <use xlink:href="#DejaVuSans-72" transform="translate(94.376953 0)"/>
      <use xlink:href="#DejaVuSans-69" transform="translate(135.490234 0)"/>
      <use xlink:href="#DejaVuSans-73" transform="translate(163.273438 0)"/>
      <use xlink:href="#DejaVuSans-74" transform="translate(215.373047 0)"/>
      <use xlink:href="#DejaVuSans-20" transform="translate(254.582031 0)"/>
      <use xlink:href="#DejaVuSans-54" transform="translate(286.369141 0)"/>
      <use xlink:href="#DejaVuSans-72" transform="translate(332.703125 0)"/>
      <use xlink:href="#DejaVuSans-61" transform="translate(373.816406 0)"/>
      <use xlink:href="#DejaVuSans-6e" transform="translate(435.095703 0)"/>
      <use xlink:href="#DejaVuSans-73" transform="translate(498.474609 0)"/>
      <use xlink:href="#DejaVuSans-6d" transform="translate(550.574219 0)"/>
      <use xlink:href="#DejaVuSans-69" transform="translate(647.986328 0)"/>
      <use xlink:href="#DejaVuSans-74" transform="translate(675.769531 0)"/>
      <use xlink:href="#DejaVuSans-74" transform="translate(714.978516 0)"/>
      <use xlink:href="#DejaVuSans-65" transform="translate(754.1875 0)"/>
      <use xlink:href="#DejaVuSans-64" transform="translate(815.710938 0)"/>
     </g>
    </g>
    <g id="line2d_21">
     <path d="M 182.595313 75.536562
L 192.595313 75.536562
L 192.595313 75.536562
L 202.595313 75.536562
L 202.595313 75.536562
" style="fill: none; stroke-dasharray: 4.44,1.92; stroke-dashoffset: 0; stroke: #d95f0e; stroke-width: 1.2"/>
    </g>
    <g id="text_11">
     <!-- Wrist Command -->
     <g transform="translate(210.595313 79.036562) scale(0.1 -0.1)">
      <use xlink:href="#DejaVuSans-57"/>
      <use xlink:href="#DejaVuSans-72" transform="translate(94.376953 0)"/>
      <use xlink:href="#DejaVuSans-69" transform="translate(135.490234 0)"/>
      <use xlink:href="#DejaVuSans-73" transform="translate(163.273438 0)"/>
      <use xlink:href="#DejaVuSans-74" transform="translate(215.373047 0)"/>
      <use xlink:href="#DejaVuSans-20" transform="translate(254.582031 0)"/>
      <use xlink:href="#DejaVuSans-43" transform="translate(286.369141 0)"/>
      <use xlink:href="#DejaVuSans-6f" transform="translate(356.193359 0)"/>
      <use xlink:href="#DejaVuSans-6d" transform="translate(417.375 0)"/>
      <use xlink:href="#DejaVuSans-6d" transform="translate(514.787109 0)"/>
      <use xlink:href="#DejaVuSans-61" transform="translate(612.199219 0)"/>
      <use xlink:href="#DejaVuSans-6e" transform="translate(673.478516 0)"/>
      <use xlink:href="#DejaVuSans-64" transform="translate(736.857422 0)"/>
     </g>
    </g>
   </g>
  </g>
  <g id="axes_2">
   <g id="patch_5">
    <path d="M 42.620313 459.16
L 705.270313 459.16
L 705.270313 268.65
L 42.620313 268.65
z
" style="fill: #ffffff"/>
   </g>
   <g id="matplotlib.axis_3">
    <g id="xtick_7">
     <g id="line2d_22">
      <g>
       <use xlink:href="#mb026062304" x="132.981676" y="459.16" style="stroke: #000000; stroke-width: 0.8"/>
      </g>
     </g>
     <g id="text_12">
      <!-- −150 -->
      <g transform="translate(119.248082 473.758437) scale(0.1 -0.1)">
       <use xlink:href="#DejaVuSans-2212"/>
       <use xlink:href="#DejaVuSans-31" transform="translate(83.789062 0)"/>
       <use xlink:href="#DejaVuSans-35" transform="translate(147.412109 0)"/>
       <use xlink:href="#DejaVuSans-30" transform="translate(211.035156 0)"/>
      </g>
     </g>
    </g>
    <g id="xtick_8">
     <g id="line2d_23">
      <g>
       <use xlink:href="#mb026062304" x="233.383191" y="459.16" style="stroke: #000000; stroke-width: 0.8"/>
      </g>
     </g>
     <g id="text_13">
      <!-- −100 -->
      <g transform="translate(219.649598 473.758437) scale(0.1 -0.1)">
       <use xlink:href="#DejaVuSans-2212"/>
       <use xlink:href="#DejaVuSans-31" transform="translate(83.789062 0)"/>
       <use xlink:href="#DejaVuSans-30" transform="translate(147.412109 0)"/>
       <use xlink:href="#DejaVuSans-30" transform="translate(211.035156 0)"/>
      </g>
     </g>
    </g>
    <g id="xtick_9">
     <g id="line2d_24">
      <g>
       <use xlink:href="#mb026062304" x="333.784706" y="459.16" style="stroke: #000000; stroke-width: 0.8"/>
      </g>
     </g>
     <g id="text_14">
      <!-- −50 -->
      <g transform="translate(323.232363 473.758437) scale(0.1 -0.1)">
       <use xlink:href="#DejaVuSans-2212"/>
       <use xlink:href="#DejaVuSans-35" transform="translate(83.789062 0)"/>
       <use xlink:href="#DejaVuSans-30" transform="translate(147.412109 0)"/>
      </g>
     </g>
    </g>
    <g id="xtick_10">
     <g id="line2d_25">
      <g>
       <use xlink:href="#mb026062304" x="434.186222" y="459.16" style="stroke: #000000; stroke-width: 0.8"/>
      </g>
     </g>
     <g id="text_15">
      <!-- 0 -->
      <g transform="translate(431.004972 473.758437) scale(0.1 -0.1)">
       <use xlink:href="#DejaVuSans-30"/>
      </g>
     </g>
    </g>
    <g id="xtick_11">
     <g id="line2d_26">
      <g>
       <use xlink:href="#mb026062304" x="534.587737" y="459.16" style="stroke: #000000; stroke-width: 0.8"/>
      </g>
     </g>
     <g id="text_16">
      <!-- 50 -->
      <g transform="translate(528.225237 473.758437) scale(0.1 -0.1)">
       <use xlink:href="#DejaVuSans-35"/>
       <use xlink:href="#DejaVuSans-30" transform="translate(63.623047 0)"/>
      </g>
     </g>
    </g>
    <g id="xtick_12">
     <g id="line2d_27">
      <g>
       <use xlink:href="#mb026062304" x="634.989252" y="459.16" style="stroke: #000000; stroke-width: 0.8"/>
      </g>
     </g>
     <g id="text_17">
      <!-- 100 -->
      <g transform="translate(625.445502 473.758437) scale(0.1 -0.1)">
       <use xlink:href="#DejaVuSans-31"/>
       <use xlink:href="#DejaVuSans-30" transform="translate(63.623047 0)"/>
       <use xlink:href="#DejaVuSans-30" transform="translate(127.246094 0)"/>
      </g>
     </g>
    </g>
    <g id="text_18">
     <!-- Time Relative to Transition (ms) -->
     <g transform="translate(294.619531 487.436562) scale(0.1 -0.1)">
      <defs>
       <path id="DejaVuSans-52" d="M 2841 2188
Q 3044 2119 3236 1894
Q 3428 1669 3622 1275
L 4263 0
L 3584 0
L 2988 1197
Q 2756 1666 2539 1819
Q 2322 1972 1947 1972
L 1259 1972
L 1259 0
L 628 0
L 628 4666
L 2053 4666
Q 2853 4666 3247 4331
Q 3641 3997 3641 3322
Q 3641 2881 3436 2590
Q 3231 2300 2841 2188
z
M 1259 4147
L 1259 2491
L 2053 2491
Q 2509 2491 2742 2702
Q 2975 2913 2975 3322
Q 2975 3731 2742 3939
Q 2509 4147 2053 4147
L 1259 4147
z
" transform="scale(0.015625)"/>
       <path id="DejaVuSans-6c" d="M 603 4863
L 1178 4863
L 1178 0
L 603 0
L 603 4863
z
" transform="scale(0.015625)"/>
       <path id="DejaVuSans-76" d="M 191 3500
L 800 3500
L 1894 563
L 2988 3500
L 3597 3500
L 2284 0
L 1503 0
L 191 3500
z
" transform="scale(0.015625)"/>
      </defs>
      <use xlink:href="#DejaVuSans-54"/>
      <use xlink:href="#DejaVuSans-69" transform="translate(57.958984 0)"/>
      <use xlink:href="#DejaVuSans-6d" transform="translate(85.742188 0)"/>
      <use xlink:href="#DejaVuSans-65" transform="translate(183.154297 0)"/>
      <use xlink:href="#DejaVuSans-20" transform="translate(244.677734 0)"/>
      <use xlink:href="#DejaVuSans-52" transform="translate(276.464844 0)"/>
      <use xlink:href="#DejaVuSans-65" transform="translate(341.447266 0)"/>
      <use xlink:href="#DejaVuSans-6c" transform="translate(402.970703 0)"/>
      <use xlink:href="#DejaVuSans-61" transform="translate(430.753906 0)"/>
      <use xlink:href="#DejaVuSans-74" transform="translate(492.033203 0)"/>
      <use xlink:href="#DejaVuSans-69" transform="translate(531.242188 0)"/>
      <use xlink:href="#DejaVuSans-76" transform="translate(559.025391 0)"/>
      <use xlink:href="#DejaVuSans-65" transform="translate(618.205078 0)"/>
      <use xlink:href="#DejaVuSans-20" transform="translate(679.728516 0)"/>
      <use xlink:href="#DejaVuSans-74" transform="translate(711.515625 0)"/>
      <use xlink:href="#DejaVuSans-6f" transform="translate(750.724609 0)"/>
      <use xlink:href="#DejaVuSans-20" transform="translate(811.90625 0)"/>
      <use xlink:href="#DejaVuSans-54" transform="translate(843.693359 0)"/>
      <use xlink:href="#DejaVuSans-72" transform="translate(890.027344 0)"/>
      <use xlink:href="#DejaVuSans-61" transform="translate(931.140625 0)"/>
      <use xlink:href="#DejaVuSans-6e" transform="translate(992.419922 0)"/>
      <use xlink:href="#DejaVuSans-73" transform="translate(1055.798828 0)"/>
      <use xlink:href="#DejaVuSans-69" transform="translate(1107.898438 0)"/>
      <use xlink:href="#DejaVuSans-74" transform="translate(1135.681641 0)"/>
      <use xlink:href="#DejaVuSans-69" transform="translate(1174.890625 0)"/>
      <use xlink:href="#DejaVuSans-6f" transform="translate(1202.673828 0)"/>
      <use xlink:href="#DejaVuSans-6e" transform="translate(1263.855469 0)"/>
      <use xlink:href="#DejaVuSans-20" transform="translate(1327.234375 0)"/>
      <use xlink:href="#DejaVuSans-28" transform="translate(1359.021484 0)"/>
      <use xlink:href="#DejaVuSans-6d" transform="translate(1398.035156 0)"/>
      <use xlink:href="#DejaVuSans-73" transform="translate(1495.447266 0)"/>
      <use xlink:href="#DejaVuSans-29" transform="translate(1547.546875 0)"/>
     </g>
    </g>
   </g>
   <g id="matplotlib.axis_4">
    <g id="ytick_6">
     <g id="line2d_28">
      <g>
       <use xlink:href="#mb49e9131cc" x="42.620313" y="442.62814" style="stroke: #000000; stroke-width: 0.8"/>
      </g>
     </g>
     <g id="text_19">
      <!-- −5 -->
      <g transform="translate(20.878125 446.427359) scale(0.1 -0.1)">
       <use xlink:href="#DejaVuSans-2212"/>
       <use xlink:href="#DejaVuSans-35" transform="translate(83.789062 0)"/>
      </g>
     </g>
    </g>
    <g id="ytick_7">
     <g id="line2d_29">
      <g>
       <use xlink:href="#mb49e9131cc" x="42.620313" y="403.26657" style="stroke: #000000; stroke-width: 0.8"/>
      </g>
     </g>
     <g id="text_20">
      <!-- 0 -->
      <g transform="translate(29.257813 407.065789) scale(0.1 -0.1)">
       <use xlink:href="#DejaVuSans-30"/>
      </g>
     </g>
    </g>
    <g id="ytick_8">
     <g id="line2d_30">
      <g>
       <use xlink:href="#mb49e9131cc" x="42.620313" y="363.905" style="stroke: #000000; stroke-width: 0.8"/>
      </g>
     </g>
     <g id="text_21">
      <!-- 5 -->
      <g transform="translate(29.257813 367.704219) scale(0.1 -0.1)">
       <use xlink:href="#DejaVuSans-35"/>
      </g>
     </g>
    </g>
    <g id="ytick_9">
     <g id="line2d_31">
      <g>
       <use xlink:href="#mb49e9131cc" x="42.620313" y="324.54343" style="stroke: #000000; stroke-width: 0.8"/>
      </g>
     </g>
     <g id="text_22">
      <!-- 10 -->
      <g transform="translate(22.895313 328.342649) scale(0.1 -0.1)">
       <use xlink:href="#DejaVuSans-31"/>
       <use xlink:href="#DejaVuSans-30" transform="translate(63.623047 0)"/>
      </g>
     </g>
    </g>
    <g id="ytick_10">
     <g id="line2d_32">
      <g>
       <use xlink:href="#mb49e9131cc" x="42.620313" y="285.18186" style="stroke: #000000; stroke-width: 0.8"/>
      </g>
     </g>
     <g id="text_23">
      <!-- 15 -->
      <g transform="translate(22.895313 288.981078) scale(0.1 -0.1)">
       <use xlink:href="#DejaVuSans-31"/>
       <use xlink:href="#DejaVuSans-35" transform="translate(63.623047 0)"/>
      </g>
     </g>
    </g>
    <g id="text_24">
     <!-- Torque (N m) -->
     <g transform="translate(14.798438 396.246406) rotate(-90) scale(0.1 -0.1)">
      <use xlink:href="#DejaVuSans-54"/>
      <use xlink:href="#DejaVuSans-6f" transform="translate(44.083984 0)"/>
      <use xlink:href="#DejaVuSans-72" transform="translate(105.265625 0)"/>
      <use xlink:href="#DejaVuSans-71" transform="translate(144.628906 0)"/>
      <use xlink:href="#DejaVuSans-75" transform="translate(208.105469 0)"/>
      <use xlink:href="#DejaVuSans-65" transform="translate(271.484375 0)"/>
      <use xlink:href="#DejaVuSans-20" transform="translate(333.007812 0)"/>
      <use xlink:href="#DejaVuSans-28" transform="translate(364.794922 0)"/>
      <use xlink:href="#DejaVuSans-4e" transform="translate(403.808594 0)"/>
      <use xlink:href="#DejaVuSans-20" transform="translate(478.613281 0)"/>
      <use xlink:href="#DejaVuSans-6d" transform="translate(510.400391 0)"/>
      <use xlink:href="#DejaVuSans-29" transform="translate(607.8125 0)"/>
     </g>
    </g>
   </g>
   <g id="line2d_33">
    <path d="M 72.740767 403.26657
L 109.889328 403.298796
L 113.503782 406.300263
L 117.118237 409.015346
L 120.933494 411.600727
L 124.949555 414.042151
L 128.965616 416.226157
L 133.182479 418.271974
L 137.600146 420.173383
L 142.419419 421.998405
L 147.439494 423.657026
L 152.861176 425.206994
L 158.684464 426.631535
L 164.909358 427.920145
L 171.736661 429.099692
L 179.166373 430.15327
L 187.399297 431.093132
L 196.636237 431.921141
L 207.278797 432.645873
L 219.728585 433.26212
L 234.588009 433.766763
L 253.262691 434.166694
L 277.961464 434.458921
L 314.507616 434.648112
L 382.37904 434.73944
L 434.186222 434.751934
L 436.997464 414.433367
L 438.603888 403.514774
L 438.804691 403.26657
L 461.696237 403.26657
L 461.89704 402.845226
L 464.909085 392.781115
L 467.921131 383.523837
L 470.933176 375.008709
L 473.945222 367.176233
L 476.957267 359.971681
L 479.969313 353.344714
L 482.981358 347.249025
L 485.993403 341.642024
L 489.005449 336.484533
L 492.017494 331.740514
L 495.230343 327.098669
L 498.443191 322.852677
L 501.65604 318.968782
L 504.868888 315.416103
L 508.28254 311.972746
L 511.696191 308.840535
L 515.310646 305.832011
L 518.9251 303.110545
L 522.740358 300.519085
L 526.756419 298.071921
L 530.772479 295.882781
L 534.989343 293.832154
L 539.407009 291.926274
L 544.226282 290.096961
L 549.246358 288.434441
L 554.66804 286.880828
L 560.491328 285.452938
L 566.716222 284.161298
L 573.543525 282.978978
L 580.973237 281.922923
L 589.206161 280.980851
L 598.4431 280.150896
L 609.085661 279.424459
L 621.535449 278.806764
L 636.394873 278.300935
L 654.868752 277.903362
L 675.149858 277.647833
L 675.149858 277.647833
" clip-path="url(#pf94025f485)" style="fill: none; stroke: #2c7fb8; stroke-width: 2.5; stroke-linecap: square"/>
   </g>
   <g id="line2d_34">
    <path d="M 72.740767 434.755826
L 434.186222 434.755826
L 434.186222 277.309545
L 675.149858 277.309545
L 675.149858 277.309545
" clip-path="url(#pf94025f485)" style="fill: none; stroke-dasharray: 4.44,1.92; stroke-dashoffset: 0; stroke: #2c7fb8; stroke-width: 1.2"/>
   </g>
   <g id="line2d_35">
    <path d="M 72.740767 403.26657
L 92.218661 403.26657
L 92.620267 402.544924
L 95.632313 396.291596
L 98.644358 390.539594
L 101.656403 385.248726
L 104.668449 380.382023
L 107.881297 375.620136
L 111.094146 371.264341
L 114.306994 367.280005
L 117.519843 363.635451
L 120.933494 360.103046
L 124.347146 356.889834
L 127.9616 353.803507
L 131.576055 351.011662
L 135.391313 348.353185
L 139.20657 345.961726
L 143.222631 343.703427
L 147.439494 341.588017
L 151.857161 339.621927
L 156.475631 337.808518
L 161.495706 336.083894
L 166.716585 334.527715
L 172.33907 333.085668
L 178.363161 331.770919
L 184.989661 330.557172
L 192.21857 329.464321
L 200.250691 328.481331
L 209.286828 327.608133
L 219.527782 326.850152
L 231.375161 326.203958
L 245.431373 325.667732
L 262.700434 325.239749
L 285.190373 324.916531
L 317.118055 324.697292
L 371.13407 324.577809
L 434.186222 324.549408
L 436.997464 342.50516
L 439.808706 359.113682
L 442.619949 374.476056
L 445.431191 388.685781
L 448.242434 401.829342
L 448.64404 403.26657
L 492.619903 403.26657
L 493.222313 403.980449
L 496.435161 407.947652
L 499.648009 411.576534
L 503.061661 415.093749
L 506.475313 418.293144
L 510.089767 421.366199
L 513.704222 424.146039
L 517.519479 426.793084
L 521.334737 429.17426
L 525.350797 431.422848
L 529.567661 433.529161
L 533.985328 435.486797
L 538.603797 437.292408
L 543.623873 439.009615
L 548.844752 440.559103
L 554.467237 441.994949
L 560.491328 443.304044
L 567.117828 444.512572
L 574.346737 445.600724
L 582.378858 446.579487
L 591.414994 447.44893
L 601.655949 448.203652
L 613.503328 448.847067
L 627.55954 449.380987
L 645.029403 449.810981
L 667.720146 450.133074
L 675.149858 450.201506
L 675.149858 450.201506
" clip-path="url(#pf94025f485)" style="fill: none; stroke: #d95f0e; stroke-width: 2.5; stroke-linecap: square"/>
   </g>
   <g id="line2d_36">
    <path d="M 72.740767 324.54343
L 434.186222 324.54343
L 434.186222 450.500455
L 675.149858 450.500455
L 675.149858 450.500455
" clip-path="url(#pf94025f485)" style="fill: none; stroke-dasharray: 4.44,1.92; stroke-dashoffset: 0; stroke: #d95f0e; stroke-width: 1.2"/>
   </g>
   <g id="line2d_37">
    <path d="M 434.186222 459.16
L 434.186222 268.65
" clip-path="url(#pf94025f485)" style="fill: none; stroke-dasharray: 1.5,2.475; stroke-dashoffset: 0; stroke: #17324d; stroke-width: 1.5"/>
   </g>
   <g id="line2d_38">
    <path d="M 42.620313 403.26657
L 705.270313 403.26657
" clip-path="url(#pf94025f485)" style="fill: none; stroke: #657786; stroke-width: 0.8; stroke-linecap: square"/>
   </g>
   <g id="patch_6">
    <path d="M 42.620313 459.16
L 42.620313 268.65
" style="fill: none; stroke: #000000; stroke-width: 0.8; stroke-linejoin: miter; stroke-linecap: square"/>
   </g>
   <g id="patch_7">
    <path d="M 42.620313 459.16
L 705.270313 459.16
" style="fill: none; stroke: #000000; stroke-width: 0.8; stroke-linejoin: miter; stroke-linecap: square"/>
   </g>
   <g id="text_25">
    <!-- Complete Role Reversal -->
    <g transform="translate(296.562813 262.65) scale(0.13 -0.13)">
     <defs>
      <path id="DejaVuSans-70" d="M 1159 525
L 1159 -1331
L 581 -1331
L 581 3500
L 1159 3500
L 1159 2969
Q 1341 3281 1617 3432
Q 1894 3584 2278 3584
Q 2916 3584 3314 3078
Q 3713 2572 3713 1747
Q 3713 922 3314 415
Q 2916 -91 2278 -91
Q 1894 -91 1617 61
Q 1341 213 1159 525
z
M 3116 1747
Q 3116 2381 2855 2742
Q 2594 3103 2138 3103
Q 1681 3103 1420 2742
Q 1159 2381 1159 1747
Q 1159 1113 1420 752
Q 1681 391 2138 391
Q 2594 391 2855 752
Q 3116 1113 3116 1747
z
" transform="scale(0.015625)"/>
     </defs>
     <use xlink:href="#DejaVuSans-43"/>
     <use xlink:href="#DejaVuSans-6f" transform="translate(69.824219 0)"/>
     <use xlink:href="#DejaVuSans-6d" transform="translate(131.005859 0)"/>
     <use xlink:href="#DejaVuSans-70" transform="translate(228.417969 0)"/>
     <use xlink:href="#DejaVuSans-6c" transform="translate(291.894531 0)"/>
     <use xlink:href="#DejaVuSans-65" transform="translate(319.677734 0)"/>
     <use xlink:href="#DejaVuSans-74" transform="translate(381.201172 0)"/>
     <use xlink:href="#DejaVuSans-65" transform="translate(420.410156 0)"/>
     <use xlink:href="#DejaVuSans-20" transform="translate(481.933594 0)"/>
     <use xlink:href="#DejaVuSans-52" transform="translate(513.720703 0)"/>
     <use xlink:href="#DejaVuSans-6f" transform="translate(578.703125 0)"/>
     <use xlink:href="#DejaVuSans-6c" transform="translate(639.884766 0)"/>
     <use xlink:href="#DejaVuSans-65" transform="translate(667.667969 0)"/>
     <use xlink:href="#DejaVuSans-20" transform="translate(729.191406 0)"/>
     <use xlink:href="#DejaVuSans-52" transform="translate(760.978516 0)"/>
     <use xlink:href="#DejaVuSans-65" transform="translate(825.960938 0)"/>
     <use xlink:href="#DejaVuSans-76" transform="translate(887.484375 0)"/>
     <use xlink:href="#DejaVuSans-65" transform="translate(946.664062 0)"/>
     <use xlink:href="#DejaVuSans-72" transform="translate(1008.1875 0)"/>
     <use xlink:href="#DejaVuSans-73" transform="translate(1049.300781 0)"/>
     <use xlink:href="#DejaVuSans-61" transform="translate(1101.400391 0)"/>
     <use xlink:href="#DejaVuSans-6c" transform="translate(1162.679688 0)"/>
    </g>
   </g>
  </g>
  <g id="text_26">
   <!-- Synthetic Transmission: Commands and Continuous State -->
   <g style="fill: #17324d" transform="translate(182.411563 16.318125) scale(0.12 -0.12)">
    <defs>
     <path id="DejaVuSans-53" d="M 3425 4513
L 3425 3897
Q 3066 4069 2747 4153
Q 2428 4238 2131 4238
Q 1616 4238 1336 4038
Q 1056 3838 1056 3469
Q 1056 3159 1242 3001
Q 1428 2844 1947 2747
L 2328 2669
Q 3034 2534 3370 2195
Q 3706 1856 3706 1288
Q 3706 609 3251 259
Q 2797 -91 1919 -91
Q 1588 -91 1214 -16
Q 841 59 441 206
L 441 856
Q 825 641 1194 531
Q 1563 422 1919 422
Q 2459 422 2753 634
Q 3047 847 3047 1241
Q 3047 1584 2836 1778
Q 2625 1972 2144 2069
L 1759 2144
Q 1053 2284 737 2584
Q 422 2884 422 3419
Q 422 4038 858 4394
Q 1294 4750 2059 4750
Q 2388 4750 2728 4690
Q 3069 4631 3425 4513
z
" transform="scale(0.015625)"/>
     <path id="DejaVuSans-79" d="M 2059 -325
Q 1816 -950 1584 -1140
Q 1353 -1331 966 -1331
L 506 -1331
L 506 -850
L 844 -850
Q 1081 -850 1212 -737
Q 1344 -625 1503 -206
L 1606 56
L 191 3500
L 800 3500
L 1894 763
L 2988 3500
L 3597 3500
L 2059 -325
z
" transform="scale(0.015625)"/>
     <path id="DejaVuSans-68" d="M 3513 2113
L 3513 0
L 2938 0
L 2938 2094
Q 2938 2591 2744 2837
Q 2550 3084 2163 3084
Q 1697 3084 1428 2787
Q 1159 2491 1159 1978
L 1159 0
L 581 0
L 581 4863
L 1159 4863
L 1159 2956
Q 1366 3272 1645 3428
Q 1925 3584 2291 3584
Q 2894 3584 3203 3211
Q 3513 2838 3513 2113
z
" transform="scale(0.015625)"/>
     <path id="DejaVuSans-3a" d="M 750 794
L 1409 794
L 1409 0
L 750 0
L 750 794
z
M 750 3309
L 1409 3309
L 1409 2516
L 750 2516
L 750 3309
z
" transform="scale(0.015625)"/>
    </defs>
    <use xlink:href="#DejaVuSans-53"/>
    <use xlink:href="#DejaVuSans-79" transform="translate(63.476562 0)"/>
    <use xlink:href="#DejaVuSans-6e" transform="translate(122.65625 0)"/>
    <use xlink:href="#DejaVuSans-74" transform="translate(186.035156 0)"/>
    <use xlink:href="#DejaVuSans-68" transform="translate(225.244141 0)"/>
    <use xlink:href="#DejaVuSans-65" transform="translate(288.623047 0)"/>
    <use xlink:href="#DejaVuSans-74" transform="translate(350.146484 0)"/>
    <use xlink:href="#DejaVuSans-69" transform="translate(389.355469 0)"/>
    <use xlink:href="#DejaVuSans-63" transform="translate(417.138672 0)"/>
    <use xlink:href="#DejaVuSans-20" transform="translate(472.119141 0)"/>
    <use xlink:href="#DejaVuSans-54" transform="translate(503.90625 0)"/>
    <use xlink:href="#DejaVuSans-72" transform="translate(550.240234 0)"/>
    <use xlink:href="#DejaVuSans-61" transform="translate(591.353516 0)"/>
    <use xlink:href="#DejaVuSans-6e" transform="translate(652.632812 0)"/>
    <use xlink:href="#DejaVuSans-73" transform="translate(716.011719 0)"/>
    <use xlink:href="#DejaVuSans-6d" transform="translate(768.111328 0)"/>
    <use xlink:href="#DejaVuSans-69" transform="translate(865.523438 0)"/>
    <use xlink:href="#DejaVuSans-73" transform="translate(893.306641 0)"/>
    <use xlink:href="#DejaVuSans-73" transform="translate(945.40625 0)"/>
    <use xlink:href="#DejaVuSans-69" transform="translate(997.505859 0)"/>
    <use xlink:href="#DejaVuSans-6f" transform="translate(1025.289062 0)"/>
    <use xlink:href="#DejaVuSans-6e" transform="translate(1086.470703 0)"/>
    <use xlink:href="#DejaVuSans-3a" transform="translate(1149.849609 0)"/>
    <use xlink:href="#DejaVuSans-20" transform="translate(1183.541016 0)"/>
    <use xlink:href="#DejaVuSans-43" transform="translate(1215.328125 0)"/>
    <use xlink:href="#DejaVuSans-6f" transform="translate(1285.152344 0)"/>
    <use xlink:href="#DejaVuSans-6d" transform="translate(1346.333984 0)"/>
    <use xlink:href="#DejaVuSans-6d" transform="translate(1443.746094 0)"/>
    <use xlink:href="#DejaVuSans-61" transform="translate(1541.158203 0)"/>
    <use xlink:href="#DejaVuSans-6e" transform="translate(1602.4375 0)"/>
    <use xlink:href="#DejaVuSans-64" transform="translate(1665.816406 0)"/>
    <use xlink:href="#DejaVuSans-73" transform="translate(1729.292969 0)"/>
    <use xlink:href="#DejaVuSans-20" transform="translate(1781.392578 0)"/>
    <use xlink:href="#DejaVuSans-61" transform="translate(1813.179688 0)"/>
    <use xlink:href="#DejaVuSans-6e" transform="translate(1874.458984 0)"/>
    <use xlink:href="#DejaVuSans-64" transform="translate(1937.837891 0)"/>
    <use xlink:href="#DejaVuSans-20" transform="translate(2001.314453 0)"/>
    <use xlink:href="#DejaVuSans-43" transform="translate(2033.101562 0)"/>
    <use xlink:href="#DejaVuSans-6f" transform="translate(2102.925781 0)"/>
    <use xlink:href="#DejaVuSans-6e" transform="translate(2164.107422 0)"/>
    <use xlink:href="#DejaVuSans-74" transform="translate(2227.486328 0)"/>
    <use xlink:href="#DejaVuSans-69" transform="translate(2266.695312 0)"/>
    <use xlink:href="#DejaVuSans-6e" transform="translate(2294.478516 0)"/>
    <use xlink:href="#DejaVuSans-75" transform="translate(2357.857422 0)"/>
    <use xlink:href="#DejaVuSans-6f" transform="translate(2421.236328 0)"/>
    <use xlink:href="#DejaVuSans-75" transform="translate(2482.417969 0)"/>
    <use xlink:href="#DejaVuSans-73" transform="translate(2545.796875 0)"/>
    <use xlink:href="#DejaVuSans-20" transform="translate(2597.896484 0)"/>
    <use xlink:href="#DejaVuSans-53" transform="translate(2629.683594 0)"/>
    <use xlink:href="#DejaVuSans-74" transform="translate(2693.160156 0)"/>
    <use xlink:href="#DejaVuSans-61" transform="translate(2732.369141 0)"/>
    <use xlink:href="#DejaVuSans-74" transform="translate(2793.648438 0)"/>
    <use xlink:href="#DejaVuSans-65" transform="translate(2832.857422 0)"/>
   </g>
  </g>
 </g>
 <defs>
  <clipPath id="p92b1e4e504">
   <rect x="42.620313" y="47.76" width="662.65" height="190.51"/>
  </clipPath>
  <clipPath id="pf94025f485">
   <rect x="42.620313" y="268.65" width="662.65" height="190.51"/>
  </clipPath>
 </defs>
</svg>
