<?xml version="1.0" encoding="utf-8" standalone="no"?>
<!DOCTYPE svg PUBLIC "-//W3C//DTD SVG 1.1//EN"
  "http://www.w3.org/Graphics/SVG/1.1/DTD/svg11.dtd">
<svg xmlns:xlink="http://www.w3.org/1999/xlink" width="691.2pt" height="302.4pt" viewBox="0 0 691.2 302.4" xmlns="http://www.w3.org/2000/svg" version="1.1">
 <metadata>
  <rdf:RDF xmlns:dc="http://purl.org/dc/elements/1.1/" xmlns:cc="http://creativecommons.org/ns#" xmlns:rdf="http://www.w3.org/1999/02/22-rdf-syntax-ns#">
   <cc:Work>
    <dc:type rdf:resource="http://purl.org/dc/dcmitype/StillImage"/>
    <dc:date>2026-09-09T13:02:11.230915</dc:date>
    <dc:format>image/svg+xml</dc:format>
    <dc:creator>
     <cc:Agent>
      <dc:title>Matplotlib v3.10.8, https://matplotlib.org/</dc:title>
     </cc:Agent>
    </dc:creator>
   </cc:Work>
  </rdf:RDF>
 </metadata>
 <defs>
  <style type="text/css">*{stroke-linejoin: round; stroke-linecap: butt}</style>
 </defs>
 <g id="figure_1">
  <g id="patch_1">
   <path d="M 0 302.4
L 691.2 302.4
L 691.2 0
L 0 0
z
" style="fill: #ffffff"/>
  </g>
  <g id="axes_1">
   <g id="patch_2">
    <path d="M 39.58149 269.04351
L 342.724469 269.04351
L 342.724469 35.732595
L 39.58149 35.732595
z
" style="fill: #ffffff"/>
   </g>
   <g id="matplotlib.axis_1">
    <g id="xtick_1">
     <g id="line2d_1">
      <path d="M 53.360716 269.04351
L 53.360716 35.732595
" clip-path="url(#p70c52668ca)" style="fill: none; stroke: #b0b0b0; stroke-opacity: 0.18; stroke-width: 0.8; stroke-linecap: square"/>
     </g>
     <g id="line2d_2">
      <defs>
       <path id="m26519e88d6" d="M 0 0
L 0 3.5
" style="stroke: #000000; stroke-width: 0.8"/>
      </defs>
      <g>
       <use xlink:href="#m26519e88d6" x="53.360716" y="269.04351" style="stroke: #000000; stroke-width: 0.8"/>
      </g>
     </g>
     <g id="text_1">
      <text style="font-size: 10px; font-family: 'DejaVu Sans', 'Bitstream Vera Sans', 'Computer Modern Sans Serif', 'Lucida Grande', 'Verdana', 'Geneva', 'Lucid', 'Arial', 'Helvetica', 'Avant Garde', sans-serif; text-anchor: middle" x="53.360716" y="283.641948" transform="rotate(-0 53.360716 283.641948)">0.00</text>
     </g>
    </g>
    <g id="xtick_2">
     <g id="line2d_3">
      <path d="M 87.808782 269.04351
L 87.808782 35.732595
" clip-path="url(#p70c52668ca)" style="fill: none; stroke: #b0b0b0; stroke-opacity: 0.18; stroke-width: 0.8; stroke-linecap: square"/>
     </g>
     <g id="line2d_4">
      <g>
       <use xlink:href="#m26519e88d6" x="87.808782" y="269.04351" style="stroke: #000000; stroke-width: 0.8"/>
      </g>
     </g>
     <g id="text_2">
      <text style="font-size: 10px; font-family: 'DejaVu Sans', 'Bitstream Vera Sans', 'Computer Modern Sans Serif', 'Lucida Grande', 'Verdana', 'Geneva', 'Lucid', 'Arial', 'Helvetica', 'Avant Garde', sans-serif; text-anchor: middle" x="87.808782" y="283.641948" transform="rotate(-0 87.808782 283.641948)">0.25</text>
     </g>
    </g>
    <g id="xtick_3">
     <g id="line2d_5">
      <path d="M 122.256848 269.04351
L 122.256848 35.732595
" clip-path="url(#p70c52668ca)" style="fill: none; stroke: #b0b0b0; stroke-opacity: 0.18; stroke-width: 0.8; stroke-linecap: square"/>
     </g>
     <g id="line2d_6">
      <g>
       <use xlink:href="#m26519e88d6" x="122.256848" y="269.04351" style="stroke: #000000; stroke-width: 0.8"/>
      </g>
     </g>
     <g id="text_3">
      <text style="font-size: 10px; font-family: 'DejaVu Sans', 'Bitstream Vera Sans', 'Computer Modern Sans Serif', 'Lucida Grande', 'Verdana', 'Geneva', 'Lucid', 'Arial', 'Helvetica', 'Avant Garde', sans-serif; text-anchor: middle" x="122.256848" y="283.641948" transform="rotate(-0 122.256848 283.641948)">0.50</text>
     </g>
    </g>
    <g id="xtick_4">
     <g id="line2d_7">
      <path d="M 156.704914 269.04351
L 156.704914 35.732595
" clip-path="url(#p70c52668ca)" style="fill: none; stroke: #b0b0b0; stroke-opacity: 0.18; stroke-width: 0.8; stroke-linecap: square"/>
     </g>
     <g id="line2d_8">
      <g>
       <use xlink:href="#m26519e88d6" x="156.704914" y="269.04351" style="stroke: #000000; stroke-width: 0.8"/>
      </g>
     </g>
     <g id="text_4">
      <text style="font-size: 10px; font-family: 'DejaVu Sans', 'Bitstream Vera Sans', 'Computer Modern Sans Serif', 'Lucida Grande', 'Verdana', 'Geneva', 'Lucid', 'Arial', 'Helvetica', 'Avant Garde', sans-serif; text-anchor: middle" x="156.704914" y="283.641948" transform="rotate(-0 156.704914 283.641948)">0.75</text>
     </g>
    </g>
    <g id="xtick_5">
     <g id="line2d_9">
      <path d="M 191.152979 269.04351
L 191.152979 35.732595
" clip-path="url(#p70c52668ca)" style="fill: none; stroke: #b0b0b0; stroke-opacity: 0.18; stroke-width: 0.8; stroke-linecap: square"/>
     </g>
     <g id="line2d_10">
      <g>
       <use xlink:href="#m26519e88d6" x="191.152979" y="269.04351" style="stroke: #000000; stroke-width: 0.8"/>
      </g>
     </g>
     <g id="text_5">
      <text style="font-size: 10px; font-family: 'DejaVu Sans', 'Bitstream Vera Sans', 'Computer Modern Sans Serif', 'Lucida Grande', 'Verdana', 'Geneva', 'Lucid', 'Arial', 'Helvetica', 'Avant Garde', sans-serif; text-anchor: middle" x="191.152979" y="283.641948" transform="rotate(-0 191.152979 283.641948)">1.00</text>
     </g>
    </g>
    <g id="xtick_6">
     <g id="line2d_11">
      <path d="M 225.601045 269.04351
L 225.601045 35.732595
" clip-path="url(#p70c52668ca)" style="fill: none; stroke: #b0b0b0; stroke-opacity: 0.18; stroke-width: 0.8; stroke-linecap: square"/>
     </g>
     <g id="line2d_12">
      <g>
       <use xlink:href="#m26519e88d6" x="225.601045" y="269.04351" style="stroke: #000000; stroke-width: 0.8"/>
      </g>
     </g>
     <g id="text_6">
      <text style="font-size: 10px; font-family: 'DejaVu Sans', 'Bitstream Vera Sans', 'Computer Modern Sans Serif', 'Lucida Grande', 'Verdana', 'Geneva', 'Lucid', 'Arial', 'Helvetica', 'Avant Garde', sans-serif; text-anchor: middle" x="225.601045" y="283.641948" transform="rotate(-0 225.601045 283.641948)">1.25</text>
     </g>
    </g>
    <g id="xtick_7">
     <g id="line2d_13">
      <path d="M 260.049111 269.04351
L 260.049111 35.732595
" clip-path="url(#p70c52668ca)" style="fill: none; stroke: #b0b0b0; stroke-opacity: 0.18; stroke-width: 0.8; stroke-linecap: square"/>
     </g>
     <g id="line2d_14">
      <g>
       <use xlink:href="#m26519e88d6" x="260.049111" y="269.04351" style="stroke: #000000; stroke-width: 0.8"/>
      </g>
     </g>
     <g id="text_7">
      <text style="font-size: 10px; font-family: 'DejaVu Sans', 'Bitstream Vera Sans', 'Computer Modern Sans Serif', 'Lucida Grande', 'Verdana', 'Geneva', 'Lucid', 'Arial', 'Helvetica', 'Avant Garde', sans-serif; text-anchor: middle" x="260.049111" y="283.641948" transform="rotate(-0 260.049111 283.641948)">1.50</text>
     </g>
    </g>
    <g id="xtick_8">
     <g id="line2d_15">
      <path d="M 294.497177 269.04351
L 294.497177 35.732595
" clip-path="url(#p70c52668ca)" style="fill: none; stroke: #b0b0b0; stroke-opacity: 0.18; stroke-width: 0.8; stroke-linecap: square"/>
     </g>
     <g id="line2d_16">
      <g>
       <use xlink:href="#m26519e88d6" x="294.497177" y="269.04351" style="stroke: #000000; stroke-width: 0.8"/>
      </g>
     </g>
     <g id="text_8">
      <text style="font-size: 10px; font-family: 'DejaVu Sans', 'Bitstream Vera Sans', 'Computer Modern Sans Serif', 'Lucida Grande', 'Verdana', 'Geneva', 'Lucid', 'Arial', 'Helvetica', 'Avant Garde', sans-serif; text-anchor: middle" x="294.497177" y="283.641948" transform="rotate(-0 294.497177 283.641948)">1.75</text>
     </g>
    </g>
    <g id="xtick_9">
     <g id="line2d_17">
      <path d="M 328.945242 269.04351
L 328.945242 35.732595
" clip-path="url(#p70c52668ca)" style="fill: none; stroke: #b0b0b0; stroke-opacity: 0.18; stroke-width: 0.8; stroke-linecap: square"/>
     </g>
     <g id="line2d_18">
      <g>
       <use xlink:href="#m26519e88d6" x="328.945242" y="269.04351" style="stroke: #000000; stroke-width: 0.8"/>
      </g>
     </g>
     <g id="text_9">
      <text style="font-size: 10px; font-family: 'DejaVu Sans', 'Bitstream Vera Sans', 'Computer Modern Sans Serif', 'Lucida Grande', 'Verdana', 'Geneva', 'Lucid', 'Arial', 'Helvetica', 'Avant Garde', sans-serif; text-anchor: middle" x="328.945242" y="283.641948" transform="rotate(-0 328.945242 283.641948)">2.00</text>
     </g>
    </g>
    <g id="text_10">
     <text style="font-size: 10px; font-family: 'DejaVu Sans', 'Bitstream Vera Sans', 'Computer Modern Sans Serif', 'Lucida Grande', 'Verdana', 'Geneva', 'Lucid', 'Arial', 'Helvetica', 'Avant Garde', sans-serif; text-anchor: middle" x="191.152979" y="297.320073" transform="rotate(-0 191.152979 297.320073)">Time (s)</text>
    </g>
   </g>
   <g id="matplotlib.axis_2">
    <g id="ytick_1">
     <g id="line2d_19">
      <path d="M 39.58149 258.43865
L 342.724469 258.43865
" clip-path="url(#p70c52668ca)" style="fill: none; stroke: #b0b0b0; stroke-opacity: 0.18; stroke-width: 0.8; stroke-linecap: square"/>
     </g>
     <g id="line2d_20">
      <defs>
       <path id="m618fc8a513" d="M 0 0
L -3.5 0
" style="stroke: #000000; stroke-width: 0.8"/>
      </defs>
      <g>
       <use xlink:href="#m618fc8a513" x="39.58149" y="258.43865" style="stroke: #000000; stroke-width: 0.8"/>
      </g>
     </g>
     <g id="text_11">
      <text style="font-size: 10px; font-family: 'DejaVu Sans', 'Bitstream Vera Sans', 'Computer Modern Sans Serif', 'Lucida Grande', 'Verdana', 'Geneva', 'Lucid', 'Arial', 'Helvetica', 'Avant Garde', sans-serif; text-anchor: end" x="32.58149" y="262.237869" transform="rotate(-0 32.58149 262.237869)">0.0</text>
     </g>
    </g>
    <g id="ytick_2">
     <g id="line2d_21">
      <path d="M 39.58149 226.623471
L 342.724469 226.623471
" clip-path="url(#p70c52668ca)" style="fill: none; stroke: #b0b0b0; stroke-opacity: 0.18; stroke-width: 0.8; stroke-linecap: square"/>
     </g>
     <g id="line2d_22">
      <g>
       <use xlink:href="#m618fc8a513" x="39.58149" y="226.623471" style="stroke: #000000; stroke-width: 0.8"/>
      </g>
     </g>
     <g id="text_12">
      <text style="font-size: 10px; font-family: 'DejaVu Sans', 'Bitstream Vera Sans', 'Computer Modern Sans Serif', 'Lucida Grande', 'Verdana', 'Geneva', 'Lucid', 'Arial', 'Helvetica', 'Avant Garde', sans-serif; text-anchor: end" x="32.58149" y="230.42269" transform="rotate(-0 32.58149 230.42269)">0.5</text>
     </g>
    </g>
    <g id="ytick_3">
     <g id="line2d_23">
      <path d="M 39.58149 194.808292
L 342.724469 194.808292
" clip-path="url(#p70c52668ca)" style="fill: none; stroke: #b0b0b0; stroke-opacity: 0.18; stroke-width: 0.8; stroke-linecap: square"/>
     </g>
     <g id="line2d_24">
      <g>
       <use xlink:href="#m618fc8a513" x="39.58149" y="194.808292" style="stroke: #000000; stroke-width: 0.8"/>
      </g>
     </g>
     <g id="text_13">
      <text style="font-size: 10px; font-family: 'DejaVu Sans', 'Bitstream Vera Sans', 'Computer Modern Sans Serif', 'Lucida Grande', 'Verdana', 'Geneva', 'Lucid', 'Arial', 'Helvetica', 'Avant Garde', sans-serif; text-anchor: end" x="32.58149" y="198.60751" transform="rotate(-0 32.58149 198.60751)">1.0</text>
     </g>
    </g>
    <g id="ytick_4">
     <g id="line2d_25">
      <path d="M 39.58149 162.993112
L 342.724469 162.993112
" clip-path="url(#p70c52668ca)" style="fill: none; stroke: #b0b0b0; stroke-opacity: 0.18; stroke-width: 0.8; stroke-linecap: square"/>
     </g>
     <g id="line2d_26">
      <g>
       <use xlink:href="#m618fc8a513" x="39.58149" y="162.993112" style="stroke: #000000; stroke-width: 0.8"/>
      </g>
     </g>
     <g id="text_14">
      <text style="font-size: 10px; font-family: 'DejaVu Sans', 'Bitstream Vera Sans', 'Computer Modern Sans Serif', 'Lucida Grande', 'Verdana', 'Geneva', 'Lucid', 'Arial', 'Helvetica', 'Avant Garde', sans-serif; text-anchor: end" x="32.58149" y="166.792331" transform="rotate(-0 32.58149 166.792331)">1.5</text>
     </g>
    </g>
    <g id="ytick_5">
     <g id="line2d_27">
      <path d="M 39.58149 131.177933
L 342.724469 131.177933
" clip-path="url(#p70c52668ca)" style="fill: none; stroke: #b0b0b0; stroke-opacity: 0.18; stroke-width: 0.8; stroke-linecap: square"/>
     </g>
     <g id="line2d_28">
      <g>
       <use xlink:href="#m618fc8a513" x="39.58149" y="131.177933" style="stroke: #000000; stroke-width: 0.8"/>
      </g>
     </g>
     <g id="text_15">
      <text style="font-size: 10px; font-family: 'DejaVu Sans', 'Bitstream Vera Sans', 'Computer Modern Sans Serif', 'Lucida Grande', 'Verdana', 'Geneva', 'Lucid', 'Arial', 'Helvetica', 'Avant Garde', sans-serif; text-anchor: end" x="32.58149" y="134.977152" transform="rotate(-0 32.58149 134.977152)">2.0</text>
     </g>
    </g>
    <g id="ytick_6">
     <g id="line2d_29">
      <path d="M 39.58149 99.362754
L 342.724469 99.362754
" clip-path="url(#p70c52668ca)" style="fill: none; stroke: #b0b0b0; stroke-opacity: 0.18; stroke-width: 0.8; stroke-linecap: square"/>
     </g>
     <g id="line2d_30">
      <g>
       <use xlink:href="#m618fc8a513" x="39.58149" y="99.362754" style="stroke: #000000; stroke-width: 0.8"/>
      </g>
     </g>
     <g id="text_16">
      <text style="font-size: 10px; font-family: 'DejaVu Sans', 'Bitstream Vera Sans', 'Computer Modern Sans Serif', 'Lucida Grande', 'Verdana', 'Geneva', 'Lucid', 'Arial', 'Helvetica', 'Avant Garde', sans-serif; text-anchor: end" x="32.58149" y="103.161972" transform="rotate(-0 32.58149 103.161972)">2.5</text>
     </g>
    </g>
    <g id="ytick_7">
     <g id="line2d_31">
      <path d="M 39.58149 67.547574
L 342.724469 67.547574
" clip-path="url(#p70c52668ca)" style="fill: none; stroke: #b0b0b0; stroke-opacity: 0.18; stroke-width: 0.8; stroke-linecap: square"/>
     </g>
     <g id="line2d_32">
      <g>
       <use xlink:href="#m618fc8a513" x="39.58149" y="67.547574" style="stroke: #000000; stroke-width: 0.8"/>
      </g>
     </g>
     <g id="text_17">
      <text style="font-size: 10px; font-family: 'DejaVu Sans', 'Bitstream Vera Sans', 'Computer Modern Sans Serif', 'Lucida Grande', 'Verdana', 'Geneva', 'Lucid', 'Arial', 'Helvetica', 'Avant Garde', sans-serif; text-anchor: end" x="32.58149" y="71.346793" transform="rotate(-0 32.58149 71.346793)">3.0</text>
     </g>
    </g>
    <g id="text_18">
     <text style="font-size: 10px; font-family: 'DejaVu Sans', 'Bitstream Vera Sans', 'Computer Modern Sans Serif', 'Lucida Grande', 'Verdana', 'Geneva', 'Lucid', 'Arial', 'Helvetica', 'Avant Garde', sans-serif; text-anchor: middle" x="10.598678" y="152.388053" transform="rotate(-90 10.598678 152.388053)">Kinetic Energy (J)</text>
    </g>
   </g>
   <g id="line2d_33">
    <path d="M 53.360716 216.018411
L 56.943315 217.786598
L 60.801499 219.945779
L 64.659682 222.361219
L 68.79345 225.210157
L 73.478387 228.715545
L 79.265662 233.338216
L 95.800733 246.727599
L 100.210086 249.917459
L 104.068269 252.436777
L 107.375283 254.340553
L 110.406713 255.834248
L 113.162558 256.944752
L 115.642819 257.708974
L 117.847495 258.173765
L 120.052172 258.411599
L 121.981263 258.41654
L 123.910355 258.222732
L 126.115031 257.763366
L 128.595292 256.994809
L 133.831398 255.240125
L 135.484905 254.943455
L 137.138412 254.881323
L 138.791919 255.065461
L 140.721011 255.543717
L 143.752441 256.600912
L 147.059455 257.69024
L 149.264131 258.179237
L 151.193223 258.401265
L 153.122315 258.424139
L 155.326991 258.216015
L 157.531667 257.778037
L 160.011928 257.040423
L 162.492189 256.075386
L 165.248034 254.772346
L 168.279464 253.098645
L 171.862063 250.848362
L 175.720246 248.156515
L 180.405183 244.603046
L 186.743627 239.480891
L 199.971684 228.713581
L 204.932206 225.010715
L 209.341558 221.999465
L 213.199741 219.619831
L 217.057925 217.498386
L 220.916108 215.641492
L 224.774292 214.043229
L 228.632475 212.686091
L 232.766243 211.467707
L 237.45118 210.324679
L 243.514039 209.091176
L 254.813005 206.841315
L 259.222357 205.701493
L 262.804956 204.546807
L 265.836386 203.351371
L 268.592231 202.04487
L 271.348076 200.482492
L 273.828337 198.814356
L 276.033013 197.086519
L 278.23769 195.092086
L 280.442366 192.793422
L 282.647042 190.15155
L 284.851718 187.12997
L 287.056394 183.702265
L 289.261071 179.865983
L 292.016916 174.571194
L 297.528606 163.715334
L 299.182114 161.074692
L 300.284452 159.675262
L 301.38679 158.640241
L 302.213543 158.134815
L 303.040297 157.878795
L 303.867051 157.879984
L 304.693804 158.138345
L 305.520558 158.646005
L 306.347311 159.387892
L 307.449649 160.70427
L 308.827572 162.78709
L 310.481079 165.749936
L 313.236924 171.242805
L 317.095108 178.861037
L 319.575369 183.25744
L 321.780045 186.735357
L 323.984721 189.805209
L 326.189397 192.491396
L 328.394073 194.829699
L 328.945242 195.364483
L 328.945242 195.364483
" clip-path="url(#p70c52668ca)" style="fill: none; stroke: #17658b; stroke-width: 1.5; stroke-linecap: square"/>
   </g>
   <g id="line2d_34">
    <path d="M 53.360716 88.757694
L 56.943315 86.989507
L 60.801499 84.830326
L 64.659682 82.414886
L 68.79345 79.565948
L 73.478387 76.06056
L 79.265662 71.437889
L 95.800733 58.048506
L 100.210086 54.858646
L 104.068269 52.339328
L 107.375283 50.435552
L 110.406713 48.941857
L 113.162558 47.831353
L 115.642819 47.067131
L 117.847495 46.60234
L 120.052172 46.364506
L 121.981263 46.359565
L 123.910355 46.553373
L 126.115031 47.012739
L 128.595292 47.781296
L 133.831398 49.53598
L 135.484905 49.83265
L 137.138412 49.894782
L 138.791919 49.710644
L 140.721011 49.232388
L 143.752441 48.175193
L 147.059455 47.085865
L 149.264131 46.596868
L 151.193223 46.37484
L 153.122315 46.351966
L 155.326991 46.56009
L 157.531667 46.998068
L 160.011928 47.735682
L 162.492189 48.700719
L 165.248034 50.003759
L 168.279464 51.67746
L 171.862063 53.927743
L 175.720246 56.61959
L 180.405183 60.173059
L 186.743627 65.295214
L 199.971684 76.062524
L 204.932206 79.76539
L 209.341558 82.77664
L 213.199741 85.156274
L 217.057925 87.277719
L 220.916108 89.134613
L 224.774292 90.732876
L 228.632475 92.090014
L 232.766243 93.308398
L 237.45118 94.451426
L 243.514039 95.684929
L 254.813005 97.93479
L 259.222357 99.074612
L 262.804956 100.229298
L 265.836386 101.424734
L 268.592231 102.731235
L 271.348076 104.293613
L 273.828337 105.961749
L 276.033013 107.689586
L 278.23769 109.684019
L 280.442366 111.982683
L 282.647042 114.624555
L 284.851718 117.646135
L 287.056394 121.07384
L 289.261071 124.910122
L 292.016916 130.204911
L 297.528606 141.060771
L 299.182114 143.701413
L 300.284452 145.100843
L 301.38679 146.135864
L 302.213543 146.64129
L 303.040297 146.89731
L 303.867051 146.896121
L 304.693804 146.63776
L 305.520558 146.1301
L 306.347311 145.388213
L 307.449649 144.071835
L 308.827572 141.989015
L 310.481079 139.026169
L 313.236924 133.5333
L 317.095108 125.915068
L 319.575369 121.518665
L 321.780045 118.040748
L 323.984721 114.970896
L 326.189397 112.284709
L 328.394073 109.946406
L 328.945242 109.411622
L 328.945242 109.411622
" clip-path="url(#p70c52668ca)" style="fill: none; stroke: #a14520; stroke-width: 1.5; stroke-linecap: square"/>
   </g>
   <g id="line2d_35">
    <path d="M 39.58149 46.337455
L 342.724469 46.337455
" clip-path="url(#p70c52668ca)" style="fill: none; stroke-dasharray: 5.55,2.4; stroke-dashoffset: 0; stroke: #808080; stroke-width: 1.5"/>
   </g>
   <g id="patch_3">
    <path d="M 39.58149 269.04351
L 39.58149 35.732595
" style="fill: none; stroke: #000000; stroke-width: 0.8; stroke-linejoin: miter; stroke-linecap: square"/>
   </g>
   <g id="patch_4">
    <path d="M 342.724469 269.04351
L 342.724469 35.732595
" style="fill: none; stroke: #000000; stroke-width: 0.8; stroke-linejoin: miter; stroke-linecap: square"/>
   </g>
   <g id="patch_5">
    <path d="M 39.58149 269.04351
L 342.724469 269.04351
" style="fill: none; stroke: #000000; stroke-width: 0.8; stroke-linejoin: miter; stroke-linecap: square"/>
   </g>
   <g id="patch_6">
    <path d="M 39.58149 35.732595
L 342.724469 35.732595
" style="fill: none; stroke: #000000; stroke-width: 0.8; stroke-linejoin: miter; stroke-linecap: square"/>
   </g>
   <g id="text_19">
    <text style="font-size: 12px; font-family: 'DejaVu Sans', 'Bitstream Vera Sans', 'Computer Modern Sans Serif', 'Lucida Grande', 'Verdana', 'Geneva', 'Lucid', 'Arial', 'Helvetica', 'Avant Garde', sans-serif; text-anchor: middle" x="191.152979" y="29.732595" transform="rotate(-0 191.152979 29.732595)">Redistribution Can Reverse</text>
   </g>
   <g id="legend_1">
    <g id="patch_7">
     <path d="M 45.88149 264.54351
L 139.018834 264.54351
Q 140.818834 264.54351 140.818834 262.74351
L 140.818834 224.012573
Q 140.818834 222.212573 139.018834 222.212573
L 45.88149 222.212573
Q 44.08149 222.212573 44.08149 224.012573
L 44.08149 262.74351
Q 44.08149 264.54351 45.88149 264.54351
z
" style="fill: #ffffff; opacity: 0.8; stroke: #cccccc; stroke-linejoin: miter"/>
    </g>
    <g id="line2d_36">
     <path d="M 47.68149 229.501166
L 56.68149 229.501166
L 65.68149 229.501166
" style="fill: none; stroke: #17658b; stroke-width: 1.5; stroke-linecap: square"/>
    </g>
    <g id="text_20">
     <text style="font-size: 9px; font-family: 'DejaVu Sans', 'Bitstream Vera Sans', 'Computer Modern Sans Serif', 'Lucida Grande', 'Verdana', 'Geneva', 'Lucid', 'Arial', 'Helvetica', 'Avant Garde', sans-serif; text-anchor: start" x="72.88149" y="232.651166" transform="rotate(-0 72.88149 232.651166)">Inner Rod</text>
    </g>
    <g id="line2d_37">
     <path d="M 47.68149 242.711479
L 56.68149 242.711479
L 65.68149 242.711479
" style="fill: none; stroke: #a14520; stroke-width: 1.5; stroke-linecap: square"/>
    </g>
    <g id="text_21">
     <text style="font-size: 9px; font-family: 'DejaVu Sans', 'Bitstream Vera Sans', 'Computer Modern Sans Serif', 'Lucida Grande', 'Verdana', 'Geneva', 'Lucid', 'Arial', 'Helvetica', 'Avant Garde', sans-serif; text-anchor: start" x="72.88149" y="245.861479" transform="rotate(-0 72.88149 245.861479)">Outer Rod</text>
    </g>
    <g id="line2d_38">
     <path d="M 47.68149 255.921791
L 56.68149 255.921791
L 65.68149 255.921791
" style="fill: none; stroke-dasharray: 5.55,2.4; stroke-dashoffset: 0; stroke: #808080; stroke-width: 1.5"/>
    </g>
    <g id="text_22">
     <text style="font-size: 9px; font-family: 'DejaVu Sans', 'Bitstream Vera Sans', 'Computer Modern Sans Serif', 'Lucida Grande', 'Verdana', 'Geneva', 'Lucid', 'Arial', 'Helvetica', 'Avant Garde', sans-serif; text-anchor: start" x="72.88149" y="259.071791" transform="rotate(-0 72.88149 259.071791)">Constant Total</text>
    </g>
   </g>
  </g>
  <g id="axes_2">
   <g id="patch_8">
    <path d="M 385.056781 269.04351
L 688.19976 269.04351
L 688.19976 35.732595
L 385.056781 35.732595
z
" style="fill: #ffffff"/>
   </g>
   <g id="matplotlib.axis_3">
    <g id="xtick_10">
     <g id="line2d_39">
      <path d="M 398.836008 269.04351
L 398.836008 35.732595
" clip-path="url(#p28ad50982f)" style="fill: none; stroke: #b0b0b0; stroke-opacity: 0.18; stroke-width: 0.8; stroke-linecap: square"/>
     </g>
     <g id="line2d_40">
      <g>
       <use xlink:href="#m26519e88d6" x="398.836008" y="269.04351" style="stroke: #000000; stroke-width: 0.8"/>
      </g>
     </g>
     <g id="text_23">
      <text style="font-size: 10px; font-family: 'DejaVu Sans', 'Bitstream Vera Sans', 'Computer Modern Sans Serif', 'Lucida Grande', 'Verdana', 'Geneva', 'Lucid', 'Arial', 'Helvetica', 'Avant Garde', sans-serif; text-anchor: middle" x="398.836008" y="283.641948" transform="rotate(-0 398.836008 283.641948)">0.00</text>
     </g>
    </g>
    <g id="xtick_11">
     <g id="line2d_41">
      <path d="M 433.284073 269.04351
L 433.284073 35.732595
" clip-path="url(#p28ad50982f)" style="fill: none; stroke: #b0b0b0; stroke-opacity: 0.18; stroke-width: 0.8; stroke-linecap: square"/>
     </g>
     <g id="line2d_42">
      <g>
       <use xlink:href="#m26519e88d6" x="433.284073" y="269.04351" style="stroke: #000000; stroke-width: 0.8"/>
      </g>
     </g>
     <g id="text_24">
      <text style="font-size: 10px; font-family: 'DejaVu Sans', 'Bitstream Vera Sans', 'Computer Modern Sans Serif', 'Lucida Grande', 'Verdana', 'Geneva', 'Lucid', 'Arial', 'Helvetica', 'Avant Garde', sans-serif; text-anchor: middle" x="433.284073" y="283.641948" transform="rotate(-0 433.284073 283.641948)">0.25</text>
     </g>
    </g>
    <g id="xtick_12">
     <g id="line2d_43">
      <path d="M 467.732139 269.04351
L 467.732139 35.732595
" clip-path="url(#p28ad50982f)" style="fill: none; stroke: #b0b0b0; stroke-opacity: 0.18; stroke-width: 0.8; stroke-linecap: square"/>
     </g>
     <g id="line2d_44">
      <g>
       <use xlink:href="#m26519e88d6" x="467.732139" y="269.04351" style="stroke: #000000; stroke-width: 0.8"/>
      </g>
     </g>
     <g id="text_25">
      <text style="font-size: 10px; font-family: 'DejaVu Sans', 'Bitstream Vera Sans', 'Computer Modern Sans Serif', 'Lucida Grande', 'Verdana', 'Geneva', 'Lucid', 'Arial', 'Helvetica', 'Avant Garde', sans-serif; text-anchor: middle" x="467.732139" y="283.641948" transform="rotate(-0 467.732139 283.641948)">0.50</text>
     </g>
    </g>
    <g id="xtick_13">
     <g id="line2d_45">
      <path d="M 502.180205 269.04351
L 502.180205 35.732595
" clip-path="url(#p28ad50982f)" style="fill: none; stroke: #b0b0b0; stroke-opacity: 0.18; stroke-width: 0.8; stroke-linecap: square"/>
     </g>
     <g id="line2d_46">
      <g>
       <use xlink:href="#m26519e88d6" x="502.180205" y="269.04351" style="stroke: #000000; stroke-width: 0.8"/>
      </g>
     </g>
     <g id="text_26">
      <text style="font-size: 10px; font-family: 'DejaVu Sans', 'Bitstream Vera Sans', 'Computer Modern Sans Serif', 'Lucida Grande', 'Verdana', 'Geneva', 'Lucid', 'Arial', 'Helvetica', 'Avant Garde', sans-serif; text-anchor: middle" x="502.180205" y="283.641948" transform="rotate(-0 502.180205 283.641948)">0.75</text>
     </g>
    </g>
    <g id="xtick_14">
     <g id="line2d_47">
      <path d="M 536.628271 269.04351
L 536.628271 35.732595
" clip-path="url(#p28ad50982f)" style="fill: none; stroke: #b0b0b0; stroke-opacity: 0.18; stroke-width: 0.8; stroke-linecap: square"/>
     </g>
     <g id="line2d_48">
      <g>
       <use xlink:href="#m26519e88d6" x="536.628271" y="269.04351" style="stroke: #000000; stroke-width: 0.8"/>
      </g>
     </g>
     <g id="text_27">
      <text style="font-size: 10px; font-family: 'DejaVu Sans', 'Bitstream Vera Sans', 'Computer Modern Sans Serif', 'Lucida Grande', 'Verdana', 'Geneva', 'Lucid', 'Arial', 'Helvetica', 'Avant Garde', sans-serif; text-anchor: middle" x="536.628271" y="283.641948" transform="rotate(-0 536.628271 283.641948)">1.00</text>
     </g>
    </g>
    <g id="xtick_15">
     <g id="line2d_49">
      <path d="M 571.076336 269.04351
L 571.076336 35.732595
" clip-path="url(#p28ad50982f)" style="fill: none; stroke: #b0b0b0; stroke-opacity: 0.18; stroke-width: 0.8; stroke-linecap: square"/>
     </g>
     <g id="line2d_50">
      <g>
       <use xlink:href="#m26519e88d6" x="571.076336" y="269.04351" style="stroke: #000000; stroke-width: 0.8"/>
      </g>
     </g>
     <g id="text_28">
      <text style="font-size: 10px; font-family: 'DejaVu Sans', 'Bitstream Vera Sans', 'Computer Modern Sans Serif', 'Lucida Grande', 'Verdana', 'Geneva', 'Lucid', 'Arial', 'Helvetica', 'Avant Garde', sans-serif; text-anchor: middle" x="571.076336" y="283.641948" transform="rotate(-0 571.076336 283.641948)">1.25</text>
     </g>
    </g>
    <g id="xtick_16">
     <g id="line2d_51">
      <path d="M 605.524402 269.04351
L 605.524402 35.732595
" clip-path="url(#p28ad50982f)" style="fill: none; stroke: #b0b0b0; stroke-opacity: 0.18; stroke-width: 0.8; stroke-linecap: square"/>
     </g>
     <g id="line2d_52">
      <g>
       <use xlink:href="#m26519e88d6" x="605.524402" y="269.04351" style="stroke: #000000; stroke-width: 0.8"/>
      </g>
     </g>
     <g id="text_29">
      <text style="font-size: 10px; font-family: 'DejaVu Sans', 'Bitstream Vera Sans', 'Computer Modern Sans Serif', 'Lucida Grande', 'Verdana', 'Geneva', 'Lucid', 'Arial', 'Helvetica', 'Avant Garde', sans-serif; text-anchor: middle" x="605.524402" y="283.641948" transform="rotate(-0 605.524402 283.641948)">1.50</text>
     </g>
    </g>
    <g id="xtick_17">
     <g id="line2d_53">
      <path d="M 639.972468 269.04351
L 639.972468 35.732595
" clip-path="url(#p28ad50982f)" style="fill: none; stroke: #b0b0b0; stroke-opacity: 0.18; stroke-width: 0.8; stroke-linecap: square"/>
     </g>
     <g id="line2d_54">
      <g>
       <use xlink:href="#m26519e88d6" x="639.972468" y="269.04351" style="stroke: #000000; stroke-width: 0.8"/>
      </g>
     </g>
     <g id="text_30">
      <text style="font-size: 10px; font-family: 'DejaVu Sans', 'Bitstream Vera Sans', 'Computer Modern Sans Serif', 'Lucida Grande', 'Verdana', 'Geneva', 'Lucid', 'Arial', 'Helvetica', 'Avant Garde', sans-serif; text-anchor: middle" x="639.972468" y="283.641948" transform="rotate(-0 639.972468 283.641948)">1.75</text>
     </g>
    </g>
    <g id="xtick_18">
     <g id="line2d_55">
      <path d="M 674.420534 269.04351
L 674.420534 35.732595
" clip-path="url(#p28ad50982f)" style="fill: none; stroke: #b0b0b0; stroke-opacity: 0.18; stroke-width: 0.8; stroke-linecap: square"/>
     </g>
     <g id="line2d_56">
      <g>
       <use xlink:href="#m26519e88d6" x="674.420534" y="269.04351" style="stroke: #000000; stroke-width: 0.8"/>
      </g>
     </g>
     <g id="text_31">
      <text style="font-size: 10px; font-family: 'DejaVu Sans', 'Bitstream Vera Sans', 'Computer Modern Sans Serif', 'Lucida Grande', 'Verdana', 'Geneva', 'Lucid', 'Arial', 'Helvetica', 'Avant Garde', sans-serif; text-anchor: middle" x="674.420534" y="283.641948" transform="rotate(-0 674.420534 283.641948)">2.00</text>
     </g>
    </g>
    <g id="text_32">
     <text style="font-size: 10px; font-family: 'DejaVu Sans', 'Bitstream Vera Sans', 'Computer Modern Sans Serif', 'Lucida Grande', 'Verdana', 'Geneva', 'Lucid', 'Arial', 'Helvetica', 'Avant Garde', sans-serif; text-anchor: middle" x="536.628271" y="297.320073" transform="rotate(-0 536.628271 297.320073)">Time (s)</text>
    </g>
   </g>
   <g id="matplotlib.axis_4">
    <g id="ytick_8">
     <g id="line2d_57">
      <path d="M 385.056781 248.636358
L 688.19976 248.636358
" clip-path="url(#p28ad50982f)" style="fill: none; stroke: #b0b0b0; stroke-opacity: 0.18; stroke-width: 0.8; stroke-linecap: square"/>
     </g>
     <g id="line2d_58">
      <g>
       <use xlink:href="#m618fc8a513" x="385.056781" y="248.636358" style="stroke: #000000; stroke-width: 0.8"/>
      </g>
     </g>
     <g id="text_33">
      <text style="font-size: 10px; font-family: 'DejaVu Sans', 'Bitstream Vera Sans', 'Computer Modern Sans Serif', 'Lucida Grande', 'Verdana', 'Geneva', 'Lucid', 'Arial', 'Helvetica', 'Avant Garde', sans-serif; text-anchor: end" x="378.056781" y="252.435577" transform="rotate(-0 378.056781 252.435577)">−4</text>
     </g>
    </g>
    <g id="ytick_9">
     <g id="line2d_59">
      <path d="M 385.056781 200.512117
L 688.19976 200.512117
" clip-path="url(#p28ad50982f)" style="fill: none; stroke: #b0b0b0; stroke-opacity: 0.18; stroke-width: 0.8; stroke-linecap: square"/>
     </g>
     <g id="line2d_60">
      <g>
       <use xlink:href="#m618fc8a513" x="385.056781" y="200.512117" style="stroke: #000000; stroke-width: 0.8"/>
      </g>
     </g>
     <g id="text_34">
      <text style="font-size: 10px; font-family: 'DejaVu Sans', 'Bitstream Vera Sans', 'Computer Modern Sans Serif', 'Lucida Grande', 'Verdana', 'Geneva', 'Lucid', 'Arial', 'Helvetica', 'Avant Garde', sans-serif; text-anchor: end" x="378.056781" y="204.311336" transform="rotate(-0 378.056781 204.311336)">−2</text>
     </g>
    </g>
    <g id="ytick_10">
     <g id="line2d_61">
      <path d="M 385.056781 152.387877
L 688.19976 152.387877
" clip-path="url(#p28ad50982f)" style="fill: none; stroke: #b0b0b0; stroke-opacity: 0.18; stroke-width: 0.8; stroke-linecap: square"/>
     </g>
     <g id="line2d_62">
      <g>
       <use xlink:href="#m618fc8a513" x="385.056781" y="152.387877" style="stroke: #000000; stroke-width: 0.8"/>
      </g>
     </g>
     <g id="text_35">
      <text style="font-size: 10px; font-family: 'DejaVu Sans', 'Bitstream Vera Sans', 'Computer Modern Sans Serif', 'Lucida Grande', 'Verdana', 'Geneva', 'Lucid', 'Arial', 'Helvetica', 'Avant Garde', sans-serif; text-anchor: end" x="378.056781" y="156.187096" transform="rotate(-0 378.056781 156.187096)">0</text>
     </g>
    </g>
    <g id="ytick_11">
     <g id="line2d_63">
      <path d="M 385.056781 104.263637
L 688.19976 104.263637
" clip-path="url(#p28ad50982f)" style="fill: none; stroke: #b0b0b0; stroke-opacity: 0.18; stroke-width: 0.8; stroke-linecap: square"/>
     </g>
     <g id="line2d_64">
      <g>
       <use xlink:href="#m618fc8a513" x="385.056781" y="104.263637" style="stroke: #000000; stroke-width: 0.8"/>
      </g>
     </g>
     <g id="text_36">
      <text style="font-size: 10px; font-family: 'DejaVu Sans', 'Bitstream Vera Sans', 'Computer Modern Sans Serif', 'Lucida Grande', 'Verdana', 'Geneva', 'Lucid', 'Arial', 'Helvetica', 'Avant Garde', sans-serif; text-anchor: end" x="378.056781" y="108.062855" transform="rotate(-0 378.056781 108.062855)">2</text>
     </g>
    </g>
    <g id="ytick_12">
     <g id="line2d_65">
      <path d="M 385.056781 56.139396
L 688.19976 56.139396
" clip-path="url(#p28ad50982f)" style="fill: none; stroke: #b0b0b0; stroke-opacity: 0.18; stroke-width: 0.8; stroke-linecap: square"/>
     </g>
     <g id="line2d_66">
      <g>
       <use xlink:href="#m618fc8a513" x="385.056781" y="56.139396" style="stroke: #000000; stroke-width: 0.8"/>
      </g>
     </g>
     <g id="text_37">
      <text style="font-size: 10px; font-family: 'DejaVu Sans', 'Bitstream Vera Sans', 'Computer Modern Sans Serif', 'Lucida Grande', 'Verdana', 'Geneva', 'Lucid', 'Arial', 'Helvetica', 'Avant Garde', sans-serif; text-anchor: end" x="378.056781" y="59.938615" transform="rotate(-0 378.056781 59.938615)">4</text>
     </g>
    </g>
    <g id="text_38">
     <text style="font-size: 10px; font-family: 'DejaVu Sans', 'Bitstream Vera Sans', 'Computer Modern Sans Serif', 'Lucida Grande', 'Verdana', 'Geneva', 'Lucid', 'Arial', 'Helvetica', 'Avant Garde', sans-serif; text-anchor: middle" x="357.234906" y="152.388053" transform="rotate(-90 357.234906 152.388053)">Power Into Outer Rod (W)</text>
    </g>
   </g>
   <g id="line2d_67">
    <path d="M 398.836008 128.325757
L 409.859389 118.343392
L 413.166403 115.723312
L 415.922248 113.801209
L 418.402509 112.317143
L 420.88277 111.097129
L 423.087446 110.25438
L 425.292122 109.653442
L 427.496798 109.304536
L 429.42589 109.211566
L 431.354982 109.319841
L 433.284073 109.630835
L 435.213165 110.144963
L 437.417841 110.980983
L 439.622517 112.081569
L 441.827194 113.447195
L 444.03187 115.080622
L 446.236546 116.988426
L 448.441222 119.182714
L 450.645898 121.682975
L 452.850575 124.517883
L 455.055251 127.7267
L 457.259927 131.359401
L 459.464603 135.473817
L 461.66928 140.126443
L 463.873956 145.350901
L 466.354216 151.866132
L 471.590322 166.0266
L 472.692661 168.39514
L 473.519414 169.818143
L 474.346168 170.847215
L 474.897337 171.273144
L 475.448506 171.463242
L 475.999675 171.395991
L 476.550844 171.053174
L 477.102013 170.421139
L 477.653182 169.492073
L 478.479936 167.542009
L 479.306689 164.955757
L 480.409027 160.656956
L 482.062534 153.043026
L 484.267211 142.95527
L 485.369549 138.882783
L 486.196302 136.504243
L 487.023056 134.777524
L 487.574225 133.998904
L 488.125394 133.514179
L 488.676563 133.312436
L 489.227732 133.377555
L 489.778901 133.689502
L 490.33007 134.22555
L 491.156824 135.396504
L 492.259162 137.512751
L 493.637085 140.787537
L 495.841761 146.770919
L 499.975529 158.037325
L 502.180205 163.402958
L 504.384881 168.196367
L 506.589557 172.439831
L 508.794233 176.186829
L 510.99891 179.496071
L 513.203586 182.419928
L 515.408262 185.000392
L 517.612938 187.268672
L 519.817615 189.246381
L 522.022291 190.947287
L 524.226967 192.379177
L 526.431643 193.545609
L 528.636319 194.447495
L 530.840996 195.084489
L 532.770087 195.424229
L 534.699179 195.561136
L 536.628271 195.496512
L 538.557362 195.233018
L 540.762039 194.693972
L 542.966715 193.910258
L 545.171391 192.894655
L 547.651652 191.49527
L 550.407497 189.654874
L 553.438927 187.336633
L 557.021526 184.293504
L 562.257632 179.509165
L 569.147245 173.239209
L 572.729844 170.262692
L 575.761273 168.007043
L 578.517119 166.217883
L 580.997379 164.852942
L 583.47764 163.745164
L 585.682316 162.993221
L 587.886992 162.473928
L 590.091669 162.199281
L 592.02076 162.168718
L 593.949852 162.34211
L 595.878944 162.727748
L 597.808035 163.33481
L 599.737127 164.173803
L 601.666219 165.257057
L 603.59531 166.599258
L 605.524402 168.218028
L 607.453494 170.134548
L 609.382586 172.374205
L 611.311677 174.967249
L 613.240769 177.949392
L 615.169861 181.362234
L 617.098952 185.253336
L 619.028044 189.675558
L 620.957136 194.685087
L 622.886227 200.337084
L 624.815319 206.677282
L 626.744411 213.726742
L 628.949087 222.609469
L 632.256101 237.068885
L 634.736362 247.662671
L 636.114285 252.706841
L 637.216623 255.877396
L 638.043376 257.528376
L 638.594545 258.19042
L 639.145714 258.438468
L 639.421299 258.389482
L 639.696883 258.215439
L 640.248052 257.46267
L 640.799222 256.121255
L 641.350391 254.133723
L 641.90156 251.446072
L 642.728313 245.998708
L 643.555067 238.745598
L 644.38182 229.626626
L 645.484158 214.621172
L 646.862081 191.821541
L 648.791173 155.03156
L 651.271433 107.953574
L 652.649356 86.001073
L 653.751694 71.815031
L 654.578448 63.337102
L 655.405201 56.712949
L 656.231955 51.858181
L 656.783124 49.536693
L 657.334293 47.888149
L 657.885462 46.85649
L 658.436631 46.383277
L 658.712216 46.337637
L 659.263385 46.59178
L 659.814554 47.259148
L 660.365723 48.285282
L 661.192476 50.386306
L 662.294815 53.998232
L 663.672737 59.385379
L 666.152998 70.18934
L 669.735597 85.623881
L 671.940273 94.184704
L 674.144949 101.832517
L 674.420534 102.723355
L 674.420534 102.723355
" clip-path="url(#p28ad50982f)" style="fill: none; stroke: #a14520; stroke-width: 1.5; stroke-linecap: square"/>
   </g>
   <g id="line2d_68">
    <path d="M 385.056781 152.387877
L 688.19976 152.387877
" clip-path="url(#p28ad50982f)" style="fill: none; stroke: #808080; stroke-width: 0.8; stroke-linecap: square"/>
   </g>
   <g id="patch_9">
    <path d="M 385.056781 269.04351
L 385.056781 35.732595
" style="fill: none; stroke: #000000; stroke-width: 0.8; stroke-linejoin: miter; stroke-linecap: square"/>
   </g>
   <g id="patch_10">
    <path d="M 688.19976 269.04351
L 688.19976 35.732595
" style="fill: none; stroke: #000000; stroke-width: 0.8; stroke-linejoin: miter; stroke-linecap: square"/>
   </g>
   <g id="patch_11">
    <path d="M 385.056781 269.04351
L 688.19976 269.04351
" style="fill: none; stroke: #000000; stroke-width: 0.8; stroke-linejoin: miter; stroke-linecap: square"/>
   </g>
   <g id="patch_12">
    <path d="M 385.056781 35.732595
L 688.19976 35.732595
" style="fill: none; stroke: #000000; stroke-width: 0.8; stroke-linejoin: miter; stroke-linecap: square"/>
   </g>
   <g id="text_39">
    <text style="font-size: 12px; font-family: 'DejaVu Sans', 'Bitstream Vera Sans', 'Computer Modern Sans Serif', 'Lucida Grande', 'Verdana', 'Geneva', 'Lucid', 'Arial', 'Helvetica', 'Avant Garde', sans-serif; text-anchor: middle" x="536.628271" y="29.732595" transform="rotate(-0 536.628271 29.732595)">Positive and Negative Interface Power</text>
   </g>
  </g>
  <g id="text_40">
   <text style="font-size: 12px; font-family: 'DejaVu Sans', 'Bitstream Vera Sans', 'Computer Modern Sans Serif', 'Lucida Grande', 'Verdana', 'Geneva', 'Lucid', 'Arial', 'Helvetica', 'Avant Garde', sans-serif; text-anchor: middle" x="345.6" y="12.118365" transform="rotate(-0 345.6 12.118365)">Two Unit Rods: Fixed Base, Zero Gravity, No Motors or Losses</text>
  </g>
 </g>
 <defs>
  <clipPath id="p70c52668ca">
   <rect x="39.58149" y="35.732595" width="303.142979" height="233.310915"/>
  </clipPath>
  <clipPath id="p28ad50982f">
   <rect x="385.056781" y="35.732595" width="303.142979" height="233.310915"/>
  </clipPath>
 </defs>
</svg>
