<?xml version="1.0" encoding="utf-8" standalone="no"?>
<!DOCTYPE svg PUBLIC "-//W3C//DTD SVG 1.1//EN"
  "http://www.w3.org/Graphics/SVG/1.1/DTD/svg11.dtd">
<svg xmlns:xlink="http://www.w3.org/1999/xlink" width="703.220045pt" height="285.03625pt" viewBox="0 0 703.220045 285.03625" xmlns="http://www.w3.org/2000/svg" version="1.1">
 <metadata>
  <rdf:RDF xmlns:dc="http://purl.org/dc/elements/1.1/" xmlns:cc="http://creativecommons.org/ns#" xmlns:rdf="http://www.w3.org/1999/02/22-rdf-syntax-ns#">
   <cc:Work>
    <dc:type rdf:resource="http://purl.org/dc/dcmitype/StillImage"/>
    <dc:date>2026-09-10T01:07:45.337954</dc:date>
    <dc:format>image/svg+xml</dc:format>
    <dc:creator>
     <cc:Agent>
      <dc:title>Matplotlib v3.10.8, https://matplotlib.org/</dc:title>
     </cc:Agent>
    </dc:creator>
   </cc:Work>
  </rdf:RDF>
 </metadata>
 <defs>
  <style type="text/css">*{stroke-linejoin: round; stroke-linecap: butt}</style>
 </defs>
 <g id="figure_1">
  <g id="patch_1">
   <path d="M 0 285.03625 
L 703.220045 285.03625 
L 703.220045 0 
L 0 0 
z
" style="fill: #ffffff"/>
  </g>
  <g id="axes_1">
   <g id="patch_2">
    <path d="M 52.303125 247.48 
L 268.827125 247.48 
L 268.827125 50.64 
L 52.303125 50.64 
z
" style="fill: #ffffff"/>
   </g>
   <g id="matplotlib.axis_1">
    <g id="xtick_1">
     <g id="line2d_1">
      <defs>
       <path id="m5bc36fcbcd" d="M 0 0 
L 0 3.5 
" style="stroke: #000000; stroke-width: 0.8"/>
      </defs>
      <g>
       <use xlink:href="#m5bc36fcbcd" x="71.987125" y="247.48" style="stroke: #000000; stroke-width: 0.8"/>
      </g>
     </g>
     <g id="text_1">
      <text style="font-size: 10px; font-family: 'DejaVu Serif'; text-anchor: middle" x="71.987125" y="262.078437" transform="rotate(-0 71.987125 262.078437)">−0.2</text>
     </g>
    </g>
    <g id="xtick_2">
     <g id="line2d_2">
      <g>
       <use xlink:href="#m5bc36fcbcd" x="111.355125" y="247.48" style="stroke: #000000; stroke-width: 0.8"/>
      </g>
     </g>
     <g id="text_2">
      <text style="font-size: 10px; font-family: 'DejaVu Serif'; text-anchor: middle" x="111.355125" y="262.078437" transform="rotate(-0 111.355125 262.078437)">0.0</text>
     </g>
    </g>
    <g id="xtick_3">
     <g id="line2d_3">
      <g>
       <use xlink:href="#m5bc36fcbcd" x="150.723125" y="247.48" style="stroke: #000000; stroke-width: 0.8"/>
      </g>
     </g>
     <g id="text_3">
      <text style="font-size: 10px; font-family: 'DejaVu Serif'; text-anchor: middle" x="150.723125" y="262.078437" transform="rotate(-0 150.723125 262.078437)">0.2</text>
     </g>
    </g>
    <g id="xtick_4">
     <g id="line2d_4">
      <g>
       <use xlink:href="#m5bc36fcbcd" x="190.091125" y="247.48" style="stroke: #000000; stroke-width: 0.8"/>
      </g>
     </g>
     <g id="text_4">
      <text style="font-size: 10px; font-family: 'DejaVu Serif'; text-anchor: middle" x="190.091125" y="262.078437" transform="rotate(-0 190.091125 262.078437)">0.4</text>
     </g>
    </g>
    <g id="xtick_5">
     <g id="line2d_5">
      <g>
       <use xlink:href="#m5bc36fcbcd" x="229.459125" y="247.48" style="stroke: #000000; stroke-width: 0.8"/>
      </g>
     </g>
     <g id="text_5">
      <text style="font-size: 10px; font-family: 'DejaVu Serif'; text-anchor: middle" x="229.459125" y="262.078437" transform="rotate(-0 229.459125 262.078437)">0.6</text>
     </g>
    </g>
    <g id="xtick_6">
     <g id="line2d_6">
      <g>
       <use xlink:href="#m5bc36fcbcd" x="268.827125" y="247.48" style="stroke: #000000; stroke-width: 0.8"/>
      </g>
     </g>
     <g id="text_6">
      <text style="font-size: 10px; font-family: 'DejaVu Serif'; text-anchor: middle" x="268.827125" y="262.078437" transform="rotate(-0 268.827125 262.078437)">0.8</text>
     </g>
    </g>
    <g id="text_7">
     <text style="font-size: 10px; font-family: 'DejaVu Serif'; text-anchor: middle" x="160.565125" y="275.756562" transform="rotate(-0 160.565125 275.756562)">Horizontal Position (m)</text>
    </g>
   </g>
   <g id="matplotlib.axis_2">
    <g id="ytick_1">
     <g id="line2d_7">
      <defs>
       <path id="m3a3c0d7306" d="M 0 0 
L -3.5 0 
" style="stroke: #000000; stroke-width: 0.8"/>
      </defs>
      <g>
       <use xlink:href="#m3a3c0d7306" x="52.303125" y="247.48" style="stroke: #000000; stroke-width: 0.8"/>
      </g>
     </g>
     <g id="text_8">
      <text style="font-size: 10px; font-family: 'DejaVu Serif'; text-anchor: end" x="45.303125" y="251.279219" transform="rotate(-0 45.303125 251.279219)">−0.4</text>
     </g>
    </g>
    <g id="ytick_2">
     <g id="line2d_8">
      <g>
       <use xlink:href="#m3a3c0d7306" x="52.303125" y="208.112" style="stroke: #000000; stroke-width: 0.8"/>
      </g>
     </g>
     <g id="text_9">
      <text style="font-size: 10px; font-family: 'DejaVu Serif'; text-anchor: end" x="45.303125" y="211.911219" transform="rotate(-0 45.303125 211.911219)">−0.2</text>
     </g>
    </g>
    <g id="ytick_3">
     <g id="line2d_9">
      <g>
       <use xlink:href="#m3a3c0d7306" x="52.303125" y="168.744" style="stroke: #000000; stroke-width: 0.8"/>
      </g>
     </g>
     <g id="text_10">
      <text style="font-size: 10px; font-family: 'DejaVu Serif'; text-anchor: end" x="45.303125" y="172.543219" transform="rotate(-0 45.303125 172.543219)">0.0</text>
     </g>
    </g>
    <g id="ytick_4">
     <g id="line2d_10">
      <g>
       <use xlink:href="#m3a3c0d7306" x="52.303125" y="129.376" style="stroke: #000000; stroke-width: 0.8"/>
      </g>
     </g>
     <g id="text_11">
      <text style="font-size: 10px; font-family: 'DejaVu Serif'; text-anchor: end" x="45.303125" y="133.175219" transform="rotate(-0 45.303125 133.175219)">0.2</text>
     </g>
    </g>
    <g id="ytick_5">
     <g id="line2d_11">
      <g>
       <use xlink:href="#m3a3c0d7306" x="52.303125" y="90.008" style="stroke: #000000; stroke-width: 0.8"/>
      </g>
     </g>
     <g id="text_12">
      <text style="font-size: 10px; font-family: 'DejaVu Serif'; text-anchor: end" x="45.303125" y="93.807219" transform="rotate(-0 45.303125 93.807219)">0.4</text>
     </g>
    </g>
    <g id="ytick_6">
     <g id="line2d_12">
      <g>
       <use xlink:href="#m3a3c0d7306" x="52.303125" y="50.64" style="stroke: #000000; stroke-width: 0.8"/>
      </g>
     </g>
     <g id="text_13">
      <text style="font-size: 10px; font-family: 'DejaVu Serif'; text-anchor: end" x="45.303125" y="54.439219" transform="rotate(-0 45.303125 54.439219)">0.6</text>
     </g>
    </g>
    <g id="text_14">
     <text style="font-size: 10px; font-family: 'DejaVu Serif'; text-anchor: middle" x="14.798438" y="149.06" transform="rotate(-90 14.798438 149.06)">Height (m)</text>
    </g>
   </g>
   <g id="line2d_13">
    <path d="M 111.355125 168.744 
L 171.6704 219.354525 
" clip-path="url(#p05f6760968)" style="fill: none; stroke: #176a9a; stroke-width: 3; stroke-linecap: square"/>
    <defs>
     <path id="me6b2819681" d="M 0 3 
C 0.795609 3 1.55874 2.683901 2.12132 2.12132 
C 2.683901 1.55874 3 0.795609 3 0 
C 3 -0.795609 2.683901 -1.55874 2.12132 -2.12132 
C 1.55874 -2.683901 0.795609 -3 0 -3 
C -0.795609 -3 -1.55874 -2.683901 -2.12132 -2.12132 
C -2.683901 -1.55874 -3 -0.795609 -3 0 
C -3 0.795609 -2.683901 1.55874 -2.12132 2.12132 
C -1.55874 2.683901 -0.795609 3 0 3 
z
" style="stroke: #176a9a"/>
    </defs>
    <g clip-path="url(#p05f6760968)">
     <use xlink:href="#me6b2819681" x="111.355125" y="168.744" style="fill: #176a9a; stroke: #176a9a"/>
     <use xlink:href="#me6b2819681" x="171.6704" y="219.354525" style="fill: #176a9a; stroke: #176a9a"/>
    </g>
   </g>
   <g id="line2d_14">
    <path d="M 171.6704 219.354525 
L 216.906857 181.396631 
" clip-path="url(#p05f6760968)" style="fill: none; stroke: #994a1f; stroke-width: 3; stroke-linecap: square"/>
    <defs>
     <path id="m38db70d433" d="M 0 3 
C 0.795609 3 1.55874 2.683901 2.12132 2.12132 
C 2.683901 1.55874 3 0.795609 3 0 
C 3 -0.795609 2.683901 -1.55874 2.12132 -2.12132 
C 1.55874 -2.683901 0.795609 -3 0 -3 
C -0.795609 -3 -1.55874 -2.683901 -2.12132 -2.12132 
C -2.683901 -1.55874 -3 -0.795609 -3 0 
C -3 0.795609 -2.683901 1.55874 -2.12132 2.12132 
C -1.55874 2.683901 -0.795609 3 0 3 
z
" style="stroke: #994a1f"/>
    </defs>
    <g clip-path="url(#p05f6760968)">
     <use xlink:href="#m38db70d433" x="171.6704" y="219.354525" style="fill: #994a1f; stroke: #994a1f"/>
     <use xlink:href="#m38db70d433" x="216.906857" y="181.396631" style="fill: #994a1f; stroke: #994a1f"/>
    </g>
   </g>
   <g id="line2d_15">
    <path d="M 216.906857 181.396631 
L 141.512763 118.133475 
" clip-path="url(#p05f6760968)" style="fill: none; stroke: #704296; stroke-width: 3; stroke-linecap: square"/>
    <defs>
     <path id="mf2332ef205" d="M 0 3 
C 0.795609 3 1.55874 2.683901 2.12132 2.12132 
C 2.683901 1.55874 3 0.795609 3 0 
C 3 -0.795609 2.683901 -1.55874 2.12132 -2.12132 
C 1.55874 -2.683901 0.795609 -3 0 -3 
C -0.795609 -3 -1.55874 -2.683901 -2.12132 -2.12132 
C -2.683901 -1.55874 -3 -0.795609 -3 0 
C -3 0.795609 -2.683901 1.55874 -2.12132 2.12132 
C -1.55874 2.683901 -0.795609 3 0 3 
z
" style="stroke: #704296"/>
    </defs>
    <g clip-path="url(#p05f6760968)">
     <use xlink:href="#mf2332ef205" x="216.906857" y="181.396631" style="fill: #704296; stroke: #704296"/>
     <use xlink:href="#mf2332ef205" x="141.512763" y="118.133475" style="fill: #704296; stroke: #704296"/>
    </g>
   </g>
   <g id="line2d_16">
    <path d="M 111.355125 168.744 
L 111.355125 208.112 
" clip-path="url(#p05f6760968)" style="fill: none; stroke-dasharray: 3.7,1.6; stroke-dashoffset: 0; stroke: #000000"/>
   </g>
   <g id="patch_3">
    <path d="M 52.303125 247.48 
L 52.303125 50.64 
" style="fill: none; stroke: #000000; stroke-width: 0.8; stroke-linejoin: miter; stroke-linecap: square"/>
   </g>
   <g id="patch_4">
    <path d="M 268.827125 247.48 
L 268.827125 50.64 
" style="fill: none; stroke: #000000; stroke-width: 0.8; stroke-linejoin: miter; stroke-linecap: square"/>
   </g>
   <g id="patch_5">
    <path d="M 52.303125 247.48 
L 268.827125 247.48 
" style="fill: none; stroke: #000000; stroke-width: 0.8; stroke-linejoin: miter; stroke-linecap: square"/>
   </g>
   <g id="patch_6">
    <path d="M 52.303125 50.64 
L 268.827125 50.64 
" style="fill: none; stroke: #000000; stroke-width: 0.8; stroke-linejoin: miter; stroke-linecap: square"/>
   </g>
   <g id="text_15">
    <text style="font-size: 10px; font-family: 'DejaVu Serif'; text-anchor: start" x="149.512763" y="190.049263" transform="rotate(-0 149.512763 190.049263)">Link 1</text>
   </g>
   <g id="text_16">
    <text style="font-size: 10px; font-family: 'DejaVu Serif'; text-anchor: start" x="204.288629" y="210.375578" transform="rotate(-0 204.288629 210.375578)">Link 2</text>
   </g>
   <g id="text_17">
    <text style="font-size: 10px; font-family: 'DejaVu Serif'; text-anchor: start" x="187.20981" y="145.765053" transform="rotate(-0 187.20981 145.765053)">Link 3</text>
   </g>
   <g id="patch_7">
    <path d="M 133.854278 219.387175 
Q 123.399807 211.404131 113.65621 203.963911 
" style="fill: none; stroke: #000000; stroke-width: 0.8; stroke-linecap: round"/>
    <path d="M 115.228477 207.177628 
L 113.65621 203.963911 
L 117.170544 204.634327 
" style="fill: none; stroke: #000000; stroke-width: 0.8; stroke-linecap: round"/>
   </g>
   <g id="text_18">
    <text style="font-size: 8px; font-family: 'DejaVu Serif'" transform="translate(127.102325 228.67975)">Downward</text>
    <text style="font-size: 8px; font-family: 'DejaVu Serif'" transform="translate(127.102325 237.638)">Vertical</text>
   </g>
   <g id="text_19">
    <text style="font-size: 9px; font-family: 'DejaVu Serif'" transform="translate(58.798845 63.383794)">Relative q = (50°, 80°, 100°)</text>
    <text style="font-size: 9px; font-family: 'DejaVu Serif'" transform="translate(58.798845 73.461825)">Absolute θ = (50°, 130°, 230°)</text>
   </g>
   <g id="text_20">
    <text style="font-size: 12px; font-family: 'DejaVu Serif'; text-anchor: middle" x="160.565125" y="44.64" transform="rotate(-0 160.565125 44.64)">Fixed-Pivot Three-Link Model</text>
   </g>
  </g>
  <g id="axes_2">
   <g id="patch_8">
    <path d="M 366.710205 247.48 
L 696.020045 247.48 
L 696.020045 50.64 
L 366.710205 50.64 
z
" style="fill: #ffffff"/>
   </g>
   <g id="matplotlib.axis_3">
    <g id="xtick_7">
     <g id="line2d_17">
      <path d="M 381.678834 247.48 
L 381.678834 50.64 
" clip-path="url(#p0df9b73a88)" style="fill: none; stroke: #b0b0b0; stroke-opacity: 0.2; stroke-width: 0.8; stroke-linecap: square"/>
     </g>
     <g id="line2d_18">
      <g>
       <use xlink:href="#m5bc36fcbcd" x="381.678834" y="247.48" style="stroke: #000000; stroke-width: 0.8"/>
      </g>
     </g>
     <g id="text_21">
      <text style="font-size: 10px; font-family: 'DejaVu Serif'; text-anchor: middle" x="381.678834" y="262.078437" transform="rotate(-0 381.678834 262.078437)">0</text>
     </g>
    </g>
    <g id="xtick_8">
     <g id="line2d_19">
      <path d="M 441.55335 247.48 
L 441.55335 50.64 
" clip-path="url(#p0df9b73a88)" style="fill: none; stroke: #b0b0b0; stroke-opacity: 0.2; stroke-width: 0.8; stroke-linecap: square"/>
     </g>
     <g id="line2d_20">
      <g>
       <use xlink:href="#m5bc36fcbcd" x="441.55335" y="247.48" style="stroke: #000000; stroke-width: 0.8"/>
      </g>
     </g>
     <g id="text_22">
      <text style="font-size: 10px; font-family: 'DejaVu Serif'; text-anchor: middle" x="441.55335" y="262.078437" transform="rotate(-0 441.55335 262.078437)">10</text>
     </g>
    </g>
    <g id="xtick_9">
     <g id="line2d_21">
      <path d="M 501.427867 247.48 
L 501.427867 50.64 
" clip-path="url(#p0df9b73a88)" style="fill: none; stroke: #b0b0b0; stroke-opacity: 0.2; stroke-width: 0.8; stroke-linecap: square"/>
     </g>
     <g id="line2d_22">
      <g>
       <use xlink:href="#m5bc36fcbcd" x="501.427867" y="247.48" style="stroke: #000000; stroke-width: 0.8"/>
      </g>
     </g>
     <g id="text_23">
      <text style="font-size: 10px; font-family: 'DejaVu Serif'; text-anchor: middle" x="501.427867" y="262.078437" transform="rotate(-0 501.427867 262.078437)">20</text>
     </g>
    </g>
    <g id="xtick_10">
     <g id="line2d_23">
      <path d="M 561.302383 247.48 
L 561.302383 50.64 
" clip-path="url(#p0df9b73a88)" style="fill: none; stroke: #b0b0b0; stroke-opacity: 0.2; stroke-width: 0.8; stroke-linecap: square"/>
     </g>
     <g id="line2d_24">
      <g>
       <use xlink:href="#m5bc36fcbcd" x="561.302383" y="247.48" style="stroke: #000000; stroke-width: 0.8"/>
      </g>
     </g>
     <g id="text_24">
      <text style="font-size: 10px; font-family: 'DejaVu Serif'; text-anchor: middle" x="561.302383" y="262.078437" transform="rotate(-0 561.302383 262.078437)">30</text>
     </g>
    </g>
    <g id="xtick_11">
     <g id="line2d_25">
      <path d="M 621.1769 247.48 
L 621.1769 50.64 
" clip-path="url(#p0df9b73a88)" style="fill: none; stroke: #b0b0b0; stroke-opacity: 0.2; stroke-width: 0.8; stroke-linecap: square"/>
     </g>
     <g id="line2d_26">
      <g>
       <use xlink:href="#m5bc36fcbcd" x="621.1769" y="247.48" style="stroke: #000000; stroke-width: 0.8"/>
      </g>
     </g>
     <g id="text_25">
      <text style="font-size: 10px; font-family: 'DejaVu Serif'; text-anchor: middle" x="621.1769" y="262.078437" transform="rotate(-0 621.1769 262.078437)">40</text>
     </g>
    </g>
    <g id="xtick_12">
     <g id="line2d_27">
      <path d="M 681.051416 247.48 
L 681.051416 50.64 
" clip-path="url(#p0df9b73a88)" style="fill: none; stroke: #b0b0b0; stroke-opacity: 0.2; stroke-width: 0.8; stroke-linecap: square"/>
     </g>
     <g id="line2d_28">
      <g>
       <use xlink:href="#m5bc36fcbcd" x="681.051416" y="247.48" style="stroke: #000000; stroke-width: 0.8"/>
      </g>
     </g>
     <g id="text_26">
      <text style="font-size: 10px; font-family: 'DejaVu Serif'; text-anchor: middle" x="681.051416" y="262.078437" transform="rotate(-0 681.051416 262.078437)">50</text>
     </g>
    </g>
    <g id="text_27">
     <text style="font-size: 10px; font-family: 'DejaVu Serif'; text-anchor: middle" x="531.365125" y="275.756562" transform="rotate(-0 531.365125 275.756562)">Time (ms)</text>
    </g>
   </g>
   <g id="matplotlib.axis_4">
    <g id="ytick_7">
     <g id="line2d_29">
      <path d="M 366.710205 246.485859 
L 696.020045 246.485859 
" clip-path="url(#p0df9b73a88)" style="fill: none; stroke: #b0b0b0; stroke-opacity: 0.2; stroke-width: 0.8; stroke-linecap: square"/>
     </g>
     <g id="line2d_30">
      <g>
       <use xlink:href="#m3a3c0d7306" x="366.710205" y="246.485859" style="stroke: #000000; stroke-width: 0.8"/>
      </g>
     </g>
     <g id="text_28">
      <text style="font-size: 10px; font-family: 'DejaVu Serif'; text-anchor: end" x="359.710205" y="250.285077" transform="rotate(-0 359.710205 250.285077)">10</text>
     </g>
    </g>
    <g id="ytick_8">
     <g id="line2d_31">
      <path d="M 366.710205 206.720202 
L 696.020045 206.720202 
" clip-path="url(#p0df9b73a88)" style="fill: none; stroke: #b0b0b0; stroke-opacity: 0.2; stroke-width: 0.8; stroke-linecap: square"/>
     </g>
     <g id="line2d_32">
      <g>
       <use xlink:href="#m3a3c0d7306" x="366.710205" y="206.720202" style="stroke: #000000; stroke-width: 0.8"/>
      </g>
     </g>
     <g id="text_29">
      <text style="font-size: 10px; font-family: 'DejaVu Serif'; text-anchor: end" x="359.710205" y="210.519421" transform="rotate(-0 359.710205 210.519421)">20</text>
     </g>
    </g>
    <g id="ytick_9">
     <g id="line2d_33">
      <path d="M 366.710205 166.954545 
L 696.020045 166.954545 
" clip-path="url(#p0df9b73a88)" style="fill: none; stroke: #b0b0b0; stroke-opacity: 0.2; stroke-width: 0.8; stroke-linecap: square"/>
     </g>
     <g id="line2d_34">
      <g>
       <use xlink:href="#m3a3c0d7306" x="366.710205" y="166.954545" style="stroke: #000000; stroke-width: 0.8"/>
      </g>
     </g>
     <g id="text_30">
      <text style="font-size: 10px; font-family: 'DejaVu Serif'; text-anchor: end" x="359.710205" y="170.753764" transform="rotate(-0 359.710205 170.753764)">30</text>
     </g>
    </g>
    <g id="ytick_10">
     <g id="line2d_35">
      <path d="M 366.710205 127.188889 
L 696.020045 127.188889 
" clip-path="url(#p0df9b73a88)" style="fill: none; stroke: #b0b0b0; stroke-opacity: 0.2; stroke-width: 0.8; stroke-linecap: square"/>
     </g>
     <g id="line2d_36">
      <g>
       <use xlink:href="#m3a3c0d7306" x="366.710205" y="127.188889" style="stroke: #000000; stroke-width: 0.8"/>
      </g>
     </g>
     <g id="text_31">
      <text style="font-size: 10px; font-family: 'DejaVu Serif'; text-anchor: end" x="359.710205" y="130.988108" transform="rotate(-0 359.710205 130.988108)">40</text>
     </g>
    </g>
    <g id="ytick_11">
     <g id="line2d_37">
      <path d="M 366.710205 87.423232 
L 696.020045 87.423232 
" clip-path="url(#p0df9b73a88)" style="fill: none; stroke: #b0b0b0; stroke-opacity: 0.2; stroke-width: 0.8; stroke-linecap: square"/>
     </g>
     <g id="line2d_38">
      <g>
       <use xlink:href="#m3a3c0d7306" x="366.710205" y="87.423232" style="stroke: #000000; stroke-width: 0.8"/>
      </g>
     </g>
     <g id="text_32">
      <text style="font-size: 10px; font-family: 'DejaVu Serif'; text-anchor: end" x="359.710205" y="91.222451" transform="rotate(-0 359.710205 91.222451)">50</text>
     </g>
    </g>
    <g id="text_33">
     <text style="font-size: 10px; font-family: 'DejaVu Serif'; text-anchor: middle" x="340.76333" y="149.06" transform="rotate(-90 340.76333 149.06)">Angular Velocity (rad/s)</text>
    </g>
   </g>
   <g id="line2d_39">
    <path d="M 381.678834 238.532727 
L 399.641189 236.844163 
L 416.406053 235.042751 
L 432.572173 233.085131 
L 449.337037 230.825314 
L 466.700647 228.25075 
L 485.261747 225.264804 
L 506.217828 221.661219 
L 535.556341 216.365423 
L 576.869758 208.925185 
L 597.227093 205.495781 
L 614.590703 202.788707 
L 630.756822 200.490617 
L 646.324197 198.505454 
L 661.292826 196.821434 
L 676.261455 195.364295 
L 681.051416 194.946243 
L 681.051416 194.946243 
" clip-path="url(#p0df9b73a88)" style="fill: none; stroke: #176a9a; stroke-width: 2; stroke-linecap: square"/>
   </g>
   <g id="line2d_40">
    <path d="M 381.678834 159.001414 
L 390.660011 153.522673 
L 399.042443 148.663296 
L 407.424876 144.051641 
L 415.807308 139.687629 
L 424.18974 135.569082 
L 432.572173 131.692012 
L 440.954605 128.050934 
L 449.337037 124.639183 
L 458.318215 121.229653 
L 467.299392 118.064764 
L 476.28057 115.134184 
L 485.261747 112.427535 
L 494.84167 109.775834 
L 504.421593 107.355575 
L 514.001515 105.155671 
L 524.180183 103.048191 
L 534.358851 101.166364 
L 545.136264 99.407903 
L 555.913677 97.878261 
L 567.289835 96.498493 
L 578.665993 95.345234 
L 590.640896 94.357796 
L 603.214545 93.547064 
L 616.985684 92.889251 
L 632.553058 92.376559 
L 653.509139 91.930806 
L 681.051416 91.394224 
L 681.051416 91.394224 
" clip-path="url(#p0df9b73a88)" style="fill: none; stroke: #994a1f; stroke-width: 2; stroke-linecap: square"/>
   </g>
   <g id="line2d_41">
    <path d="M 381.678834 59.587273 
L 394.252482 63.290187 
L 406.227385 67.054042 
L 417.603544 70.86287 
L 428.979702 74.911544 
L 439.757115 78.976366 
L 450.534528 83.26965 
L 461.311941 87.795224 
L 472.089354 92.555929 
L 482.866767 97.553924 
L 493.64418 102.790817 
L 504.421593 108.267637 
L 515.199006 113.984666 
L 526.575164 120.279052 
L 537.951322 126.837623 
L 549.32748 133.655484 
L 560.703638 140.724901 
L 572.678541 148.425966 
L 585.25219 156.779948 
L 598.424584 165.798708 
L 612.794467 175.907881 
L 628.960587 187.554096 
L 649.317923 202.510552 
L 681.051416 226.125661 
L 681.051416 226.125661 
" clip-path="url(#p0df9b73a88)" style="fill: none; stroke: #704296; stroke-width: 2; stroke-linecap: square"/>
   </g>
   <g id="patch_9">
    <path d="M 366.710205 247.48 
L 366.710205 50.64 
" style="fill: none; stroke: #000000; stroke-width: 0.8; stroke-linejoin: miter; stroke-linecap: square"/>
   </g>
   <g id="patch_10">
    <path d="M 696.020045 247.48 
L 696.020045 50.64 
" style="fill: none; stroke: #000000; stroke-width: 0.8; stroke-linejoin: miter; stroke-linecap: square"/>
   </g>
   <g id="patch_11">
    <path d="M 366.710205 247.48 
L 696.020045 247.48 
" style="fill: none; stroke: #000000; stroke-width: 0.8; stroke-linejoin: miter; stroke-linecap: square"/>
   </g>
   <g id="patch_12">
    <path d="M 366.710205 50.64 
L 696.020045 50.64 
" style="fill: none; stroke: #000000; stroke-width: 0.8; stroke-linejoin: miter; stroke-linecap: square"/>
   </g>
   <g id="text_34">
    <text style="font-size: 12px; font-family: 'DejaVu Serif'; text-anchor: middle" x="531.365125" y="44.64" transform="rotate(-0 531.365125 44.64)">Zero-Torque Absolute Angular Rates</text>
   </g>
   <g id="legend_1">
    <g id="patch_13">
     <path d="M 600.427858 172.577187 
L 689.020045 172.577187 
Q 691.020045 172.577187 691.020045 170.577187 
L 691.020045 127.542812 
Q 691.020045 125.542812 689.020045 125.542812 
L 600.427858 125.542812 
Q 598.427858 125.542812 598.427858 127.542812 
L 598.427858 170.577187 
Q 598.427858 172.577187 600.427858 172.577187 
z
" style="fill: #ffffff; opacity: 0.8; stroke: #cccccc; stroke-linejoin: miter"/>
    </g>
    <g id="line2d_42">
     <path d="M 602.427858 133.64125 
L 612.427858 133.64125 
L 622.427858 133.64125 
" style="fill: none; stroke: #176a9a; stroke-width: 2; stroke-linecap: square"/>
    </g>
    <g id="text_35">
     <text style="font-size: 10px; font-family: 'DejaVu Serif'; text-anchor: start" x="630.427858" y="137.14125" transform="rotate(-0 630.427858 137.14125)">Upper Arm</text>
    </g>
    <g id="line2d_43">
     <path d="M 602.427858 148.319375 
L 612.427858 148.319375 
L 622.427858 148.319375 
" style="fill: none; stroke: #994a1f; stroke-width: 2; stroke-linecap: square"/>
    </g>
    <g id="text_36">
     <text style="font-size: 10px; font-family: 'DejaVu Serif'; text-anchor: start" x="630.427858" y="151.819375" transform="rotate(-0 630.427858 151.819375)">Forearm</text>
    </g>
    <g id="line2d_44">
     <path d="M 602.427858 162.9975 
L 612.427858 162.9975 
L 622.427858 162.9975 
" style="fill: none; stroke: #704296; stroke-width: 2; stroke-linecap: square"/>
    </g>
    <g id="text_37">
     <text style="font-size: 10px; font-family: 'DejaVu Serif'; text-anchor: start" x="630.427858" y="166.4975" transform="rotate(-0 630.427858 166.4975)">Club</text>
    </g>
   </g>
  </g>
  <g id="text_38">
   <text style="font-size: 12px; font-family: 'DejaVu Serif'; text-anchor: middle" x="328.820045" y="16.318125" transform="rotate(-0 328.820045 16.318125)">Manufactured Rigid-Chain Example; No Golfer Calibration</text>
  </g>
 </g>
 <defs>
  <clipPath id="p05f6760968">
   <rect x="52.303125" y="50.64" width="216.524" height="196.84"/>
  </clipPath>
  <clipPath id="p0df9b73a88">
   <rect x="366.710205" y="50.64" width="329.309841" height="196.84"/>
  </clipPath>
 </defs>
</svg>
